%
M48
M72
T01C0.0200
T02C0.0360
T03C0.0400
T04C0.1250
%
T01
X12375Y950
X12375Y3650
X12375Y6400
X12375Y9150
X12375Y11900
X12375Y14650
X12375Y17400
X12375Y20150
X12375Y22900
X12375Y25650
X12375Y28400
X12375Y31150
X16625Y32150
X18125Y31150
X19925Y32350
X20375Y31900
X21575Y31400
X22125Y33000
X24565Y30150
X24125Y29650
X23625Y29150
X22645Y28640
X21575Y28640
X20375Y29150
X20025Y29670
X18125Y28400
X16625Y29400
X16625Y26650
X18125Y25650
X20015Y26910
X20375Y26400
X21595Y25890
X22625Y25900
X22635Y27050
X22635Y24310
X22625Y23160
X21575Y23150
X20375Y23650
X19925Y24100
X18125Y22900
X16625Y23900
X16625Y21150
X18125Y20150
X19925Y21350
X20375Y20900
X21575Y20450
X22615Y20450
X22625Y21550
X22605Y18810
X22595Y17850
X21575Y17850
X20375Y18150
X19925Y18600
X18125Y17400
X16625Y18400
X16625Y15650
X18125Y14650
X19925Y15850
X20375Y15400
X21575Y14950
X22125Y14400
X22875Y14950
X22875Y16050
X22875Y13300
X22875Y12200
X21575Y12200
X20375Y12650
X20025Y13190
X18125Y11900
X16625Y12900
X16625Y10150
X18125Y9150
X19925Y10350
X20375Y9900
X21525Y9400
X22875Y9400
X22875Y10550
X22875Y7800
X22875Y6650
X21565Y6670
X20375Y7150
X19975Y7650
X18125Y6400
X16625Y7400
X16615Y4350
X18125Y3650
X19925Y4850
X20405Y4350
X21625Y4150
X22875Y4160
X22875Y5050
X22895Y2300
X22125Y1400
X20325Y1650
X19925Y2100
X16625Y1650
X26375Y12900
X27875Y12900
X26125Y14400
X26725Y16150
X27135Y16610
X27545Y16130
X27825Y17960
X29875Y17590
X30625Y12900
X30625Y12150
X31625Y8400
X34875Y11900
X35625Y14400
X36375Y14400
X37125Y14400
X37875Y14400
X35875Y19150
X36375Y20650
X35875Y21650
X36875Y22650
X29375Y25650
X28375Y25150
X27375Y25650
X26125Y30900
X37875Y7650
X37125Y6650
X36375Y5650
X35625Y4650
X31625Y1400
T02
X31875Y14650
X32875Y14650
X33875Y14650
X33875Y16150
X32875Y16150
X31875Y16150
X31875Y17650
X32875Y17650
X33875Y17650
X33875Y19150
X32875Y19150
X31875Y19150
T03
X33625Y20650
X33625Y21650
X33625Y22650
X33625Y23650
X33625Y24650
X33625Y25650
X33125Y28650
X33125Y29650
X33125Y30650
X34125Y30650
X34125Y29650
X34125Y28650
X33625Y8650
X33625Y7650
X33625Y6650
X33625Y5650
X33625Y4650
X33625Y3650
X5125Y6400
X5125Y7400
X5125Y8400
X5125Y9400
X5125Y15900
X5125Y16900
X5125Y17900
X5125Y18900
X5125Y19900
X5125Y20900
X5125Y21900
X5125Y22900
X5125Y23900
X5125Y24900
X5125Y25900
X5125Y26900
X5125Y27900
T04
X1375Y1400
X1375Y32900
X37375Y32900
X37375Y1400
M30
