M48
;
; Format:               Excellon NC Drill Ascii
; This File Name:       bms.txt
; Source File Name:     bms.rrb
; Unique ID:            f0a94124-7116-492a-8d2f-4ebec7e5445f
; Generated Date:       Thursday, 13 March 2014 15:34:31
;
; Created Using:        Robot Room Copper Connection v2.5.5143
; Software Contact:     http://www.robotroom.com/CopperConnection/Support.aspx
; License Number:       1402
;
; Zero Suppression:     Trailing
; Number Precision:     2.4
;
FMAT,2
INCH,LZ
T01C.014
T02C.02
T03C.029
T04C.033
T05C.046
T06C.125
%
T01
X02425Y00093
X0242Y00256
X02417Y00454
Y00654
Y00852
X026Y00851
X0264Y00653
X0268Y00454
X0276Y00257
X02948Y005
X0329Y0088
X03732Y0084
Y007
Y0059
Y005
Y004
X03891Y01005
X0382Y0134
X0362Y01406
X0355Y0135
Y013
X0349Y016
X032
X03191Y0166
X0299Y0168
Y01445
X03025Y01406
X0294Y01347
X03Y013
X0299Y0124
X0256Y01052
X02417
Y01255
X0252
X0256Y01455
X02417
Y01655
X02581
X0262Y01855
X02661Y02051
X02701Y02251
X02418
Y02051
X02417Y01855
T02
X02949Y00198
T03
X0325Y001
Y002
Y003
Y004
Y005
Y006
Y007
Y008
Y0094
Y0104
Y0114
Y0124
X0342Y01109
X0355Y0114
Y0124
Y0104
Y0094
Y008
Y007
Y006
Y005
Y004
Y003
Y002
Y001
X03889Y00499
Y00599
Y00699
X039Y0215
X038
X03725Y0225
Y0235
Y0245
X03625
X03525
X03425
Y0235
Y0225
X03525
X03625
Y0235
X03525
T04
X004Y00596
Y00696
Y00796
Y00896
Y00996
Y01096
Y01196
Y01296
Y01396
Y01496
Y01596
Y01696
Y01796
X04101Y018
Y017
Y015
Y014
Y013
Y012
Y011
Y01
Y00799
Y00699
Y00599
Y00499
Y02
Y021
T05
X01036Y00096
Y00296
X01033Y00494
X01038Y00697
X01033Y00892
Y01096
Y01295
Y01497
Y01693
Y01897
X01034Y02091
Y02294
X01283Y02293
X01533Y02292
X01483Y02094
X01532Y01895
X01482Y01692
X01532Y01496
X01482Y01295
X01532Y01093
X01482Y00895
X01532Y00695
X01482Y00496
X01535Y00296
X01485Y00097
X01735
X01985
X02017Y00296
X01982Y00495
X02014Y00694
X01982Y00894
X02014Y01092
X01982Y01295
X02014Y01495
X01982Y01694
X02014Y01893
X01983Y02092
X02015Y02291
X01733Y02093
X01732Y01693
Y01295
Y00895
Y00496
X01285Y00295
X01282Y00696
Y01094
Y01497
Y01896
T06
X002Y002
Y024
X042
Y002
M30
