G04*
G04 Format:               Gerber RS-274X*
G04 Layer:                TopSilkscreen*
G04 This File Name:       bms.gto*
G04 Source File Name:     bms.rrb*
G04 Unique ID:            f0a94124-7116-492a-8d2f-4ebec7e5445f*
G04 Generated Date:       Thursday, 13 March 2014 15:34:31*
G04*
G04 Created Using:        Robot Room Copper Connection v2.5.5143*
G04 Software Contact:     http://www.robotroom.com/CopperConnection/Support.aspx*
G04 License Number:       1402*
G04*
G04 Zero Suppression:     Leading*
G04 Number Precision:     2.4*
G04*
%FSLAX24Y24*%
%MOIN*%
%LNTopSilkscreen*%
%ADD10C,.006*%
%ADD11C,.0062*%
%ADD12C,.0079*%
%ADD13C,.01*%
%ADD14C,.0109*%
%ADD15C,.012*%
%ADD16C,.031*%
%ADD17C,.037*%
%ADD18C,.056*%
%ADD19C,.07*%
%ADD20C,.1*%
%ADD21C,.25*%
%ADD22R,.006X.006*%
%ADD23R,.056X.056*%
%ADD24R,.07X.07*%
%ADD25R,.02X.026*%
%ADD26R,.03X.03*%
%ADD27R,.03X.055*%
%ADD28R,.04X.06*%
%ADD29R,.045X.08*%
%ADD30R,.053X.039*%
%ADD31R,.059X.039*%
%ADD32R,.059X.118*%
%ADD33R,.064X.064*%
%ADD34R,.08X.01*%
%ADD35R,.081X.114*%
%ADD36R,.13X.065*%
D10*
G01X21010Y250D02*
Y130D01*
X22070D01*
Y250D01*
Y1620D02*
Y1740D01*
X22030D02*
X21010D01*
Y1620D01*
Y2250D02*
Y2130D01*
X22070D01*
Y2250D01*
Y3620D02*
Y3740D01*
X22030D02*
X21010D01*
Y3620D01*
X20980Y4230D02*
Y4110D01*
X22040D01*
Y4230D01*
Y5600D02*
Y5720D01*
X22000D02*
X20980D01*
Y5600D01*
Y6230D02*
Y6110D01*
X22040D01*
Y6230D01*
Y7600D02*
Y7720D01*
X22000D02*
X20980D01*
Y7600D01*
Y8210D02*
Y8090D01*
X22040D01*
Y8210D01*
Y9580D02*
Y9700D01*
X22000D02*
X20980D01*
Y9580D01*
Y10210D02*
Y10090D01*
X22040D01*
Y10210D01*
Y11580D02*
Y11700D01*
X22000D02*
X20980D01*
Y11580D01*
Y12240D02*
Y12120D01*
X22040D01*
Y12240D01*
Y13610D02*
Y13730D01*
X22000D02*
X20980D01*
Y13610D01*
Y14240D02*
Y14120D01*
X22040D01*
Y14240D01*
Y15610D02*
Y15730D01*
X22000D02*
X20980D01*
Y15610D01*
Y16220D02*
Y16100D01*
X22040D01*
Y16220D01*
Y17590D02*
Y17710D01*
X22000D02*
X20980D01*
Y17590D01*
Y18220D02*
Y18100D01*
X22040D01*
Y18220D01*
Y19590D02*
Y19710D01*
X22000D02*
X20980D01*
Y19590D01*
X20990Y20200D02*
Y20080D01*
X22050D01*
Y20200D01*
Y21570D02*
Y21690D01*
X22010D02*
X20990D01*
Y21570D01*
Y22200D02*
Y22080D01*
X22050D01*
Y22200D01*
Y23570D02*
Y23690D01*
X22010D02*
X20990D01*
Y23570D01*
X26000Y750D02*
Y368D01*
Y750D02*
X26191D01*
X26255Y686D01*
Y623D01*
X26191Y559D01*
X26000D01*
X26064D02*
X26255Y368D01*
X26446Y686D02*
X26510Y750D01*
Y368D01*
X26446D02*
X26574D01*
X26765Y686D02*
X26829Y750D01*
X26956D01*
X27020Y686D01*
Y623D01*
X26956Y559D01*
X26892D01*
X26956D02*
X27020Y495D01*
Y431D01*
X26956Y368D01*
X26829D01*
X26765Y431D01*
X26000Y1750D02*
Y1367D01*
Y1750D02*
X26191D01*
X26255Y1686D01*
Y1622D01*
X26191Y1559D01*
X26000D01*
X26064D02*
X26255Y1367D01*
X26446Y1686D02*
X26510Y1750D01*
Y1367D01*
X26446D02*
X26574D01*
X27020Y1495D02*
X26765D01*
Y1559D01*
X26956Y1750D01*
Y1367D01*
X25431Y1245D02*
X25367Y1309D01*
Y1436D01*
X25431Y1500D01*
X25686D01*
X25750Y1436D01*
Y1309D01*
X25686Y1245D01*
Y1054D02*
X25750Y990D01*
X25367D01*
Y1054D02*
Y926D01*
X26000Y2750D02*
Y2368D01*
Y2750D02*
X26191D01*
X26255Y2686D01*
Y2623D01*
X26191Y2559D01*
X26000D01*
X26064D02*
X26255Y2368D01*
X26446Y2686D02*
X26510Y2750D01*
Y2368D01*
X26446D02*
X26574D01*
X26765Y2623D02*
Y2750D01*
X27020D01*
X26765Y2623D02*
X26956D01*
X27020Y2559D01*
Y2431D01*
X26956Y2368D01*
X26829D01*
X26765Y2431D01*
X26000Y3750D02*
Y3367D01*
Y3750D02*
X26191D01*
X26255Y3686D01*
Y3622D01*
X26191Y3559D01*
X26000D01*
X26064D02*
X26255Y3367D01*
X26446Y3686D02*
X26510Y3750D01*
Y3367D01*
X26446D02*
X26574D01*
X26765Y3495D02*
X26829Y3559D01*
X26956D01*
X27020Y3495D01*
Y3431D01*
X26956Y3367D01*
X26829D01*
X26765Y3431D01*
Y3495D01*
Y3622D01*
X26892Y3750D01*
X26956D01*
X25431Y3245D02*
X25367Y3309D01*
Y3436D01*
X25431Y3500D01*
X25686D01*
X25750Y3436D01*
Y3309D01*
X25686Y3245D01*
Y3118D02*
X25750Y3054D01*
Y2926D01*
X25686Y2863D01*
X25622D01*
X25559Y2926D01*
Y3054D01*
X25495Y3118D01*
X25367D01*
Y2863D01*
X30000Y1500D02*
Y1118D01*
Y1500D02*
X30191D01*
X30255Y1436D01*
Y1373D01*
X30191Y1309D01*
X30000D01*
X30064D02*
X30255Y1118D01*
X30382Y1436D02*
X30446Y1500D01*
X30574D01*
X30637Y1436D01*
Y1373D01*
X30574Y1309D01*
X30510D01*
X30574D02*
X30637Y1245D01*
Y1181D01*
X30574Y1118D01*
X30446D01*
X30382Y1181D01*
X30765Y1436D02*
Y1500D01*
X31020D01*
Y1436D01*
X30829Y1245D01*
Y1118D01*
X30185Y3351D02*
X30121Y3288D01*
X29994D01*
X29930Y3351D01*
Y3606D01*
X29994Y3670D01*
X30121D01*
X30185Y3606D01*
X30376D02*
X30440Y3670D01*
Y3288D01*
X30376D02*
X30504D01*
X30695Y3606D02*
X30759Y3670D01*
X30886D01*
X30950Y3606D01*
Y3543D01*
X30886Y3479D01*
X30822D01*
X30886D02*
X30950Y3415D01*
Y3351D01*
X30886Y3288D01*
X30759D01*
X30695Y3351D01*
X26000Y4750D02*
Y4368D01*
Y4750D02*
X26191D01*
X26255Y4686D01*
Y4623D01*
X26191Y4559D01*
X26000D01*
X26064D02*
X26255Y4368D01*
X26446Y4686D02*
X26510Y4750D01*
Y4368D01*
X26446D02*
X26574D01*
X26765Y4686D02*
Y4750D01*
X27020D01*
Y4686D01*
X26829Y4495D01*
Y4368D01*
X26000Y6750D02*
Y6367D01*
Y6750D02*
X26191D01*
X26255Y6686D01*
Y6622D01*
X26191Y6559D01*
X26000D01*
X26064D02*
X26255Y6367D01*
X26446Y6686D02*
X26510Y6750D01*
Y6367D01*
X26446D02*
X26574D01*
X27020Y6622D02*
X26956Y6559D01*
X26829D01*
X26765Y6622D01*
Y6686D01*
X26829Y6750D01*
X26956D01*
X27020Y6686D01*
Y6495D01*
X26892Y6367D01*
X26829D01*
X26000Y7750D02*
Y7368D01*
Y7750D02*
X26191D01*
X26255Y7686D01*
Y7623D01*
X26191Y7559D01*
X26000D01*
X26064D02*
X26255Y7368D01*
X26383Y7686D02*
X26446Y7750D01*
X26574D01*
X26638Y7686D01*
Y7623D01*
X26574Y7559D01*
X26446D01*
X26383Y7495D01*
Y7368D01*
X26638D01*
X26765Y7431D02*
Y7686D01*
X26829Y7750D01*
X26956D01*
X27020Y7686D01*
Y7431D01*
X26956Y7368D01*
X26829D01*
X26765Y7431D01*
X27020Y7686D02*
X26765Y7431D01*
X25431Y7245D02*
X25367Y7309D01*
Y7436D01*
X25431Y7500D01*
X25686D01*
X25750Y7436D01*
Y7309D01*
X25686Y7245D01*
X25495Y6862D02*
Y7117D01*
X25559D01*
X25750Y6926D01*
X25367D01*
X26000Y5750D02*
Y5368D01*
Y5750D02*
X26191D01*
X26255Y5686D01*
Y5623D01*
X26191Y5559D01*
X26000D01*
X26064D02*
X26255Y5368D01*
X26446Y5686D02*
X26510Y5750D01*
Y5368D01*
X26446D02*
X26574D01*
X26829Y5559D02*
X26765Y5623D01*
Y5686D01*
X26829Y5750D01*
X26956D01*
X27020Y5686D01*
Y5623D01*
X26956Y5559D01*
X26829D01*
X26956D02*
X27020Y5495D01*
Y5431D01*
X26956Y5368D01*
X26829D01*
X26765Y5431D01*
Y5495D01*
X26829Y5559D01*
X25431Y5245D02*
X25367Y5309D01*
Y5436D01*
X25431Y5500D01*
X25686D01*
X25750Y5436D01*
Y5309D01*
X25686Y5245D01*
Y5117D02*
X25750Y5054D01*
Y4926D01*
X25686Y4863D01*
X25622D01*
X25559Y4926D01*
Y4990D01*
Y4926D02*
X25495Y4863D01*
X25431D01*
X25367Y4926D01*
Y5054D01*
X25431Y5117D01*
X26000Y8750D02*
Y8367D01*
Y8750D02*
X26191D01*
X26255Y8686D01*
Y8622D01*
X26191Y8559D01*
X26000D01*
X26064D02*
X26255Y8367D01*
X26383Y8686D02*
X26446Y8750D01*
X26574D01*
X26638Y8686D01*
Y8622D01*
X26574Y8559D01*
X26446D01*
X26383Y8495D01*
Y8367D01*
X26638D01*
X26829Y8686D02*
X26892Y8750D01*
Y8367D01*
X26829D02*
X26956D01*
X26000Y10750D02*
Y10368D01*
Y10750D02*
X26191D01*
X26255Y10686D01*
Y10623D01*
X26191Y10559D01*
X26000D01*
X26064D02*
X26255Y10368D01*
X26383Y10686D02*
X26446Y10750D01*
X26574D01*
X26638Y10686D01*
Y10623D01*
X26574Y10559D01*
X26446D01*
X26383Y10495D01*
Y10368D01*
X26638D01*
X26765Y10686D02*
X26829Y10750D01*
X26956D01*
X27020Y10686D01*
Y10623D01*
X26956Y10559D01*
X26892D01*
X26956D02*
X27020Y10495D01*
Y10431D01*
X26956Y10368D01*
X26829D01*
X26765Y10431D01*
X26000Y11750D02*
Y11367D01*
Y11750D02*
X26191D01*
X26255Y11686D01*
Y11622D01*
X26191Y11559D01*
X26000D01*
X26064D02*
X26255Y11367D01*
X26383Y11686D02*
X26446Y11750D01*
X26574D01*
X26638Y11686D01*
Y11622D01*
X26574Y11559D01*
X26446D01*
X26383Y11495D01*
Y11367D01*
X26638D01*
X27020Y11495D02*
X26765D01*
Y11559D01*
X26956Y11750D01*
Y11367D01*
X25431Y11245D02*
X25367Y11309D01*
Y11436D01*
X25431Y11500D01*
X25686D01*
X25750Y11436D01*
Y11309D01*
X25686Y11245D01*
X25495Y11118D02*
X25559Y11054D01*
Y10926D01*
X25495Y10863D01*
X25431D01*
X25367Y10926D01*
Y11054D01*
X25431Y11118D01*
X25495D01*
X25622D01*
X25750Y10990D01*
Y10926D01*
X26000Y9750D02*
Y9368D01*
Y9750D02*
X26191D01*
X26255Y9686D01*
Y9623D01*
X26191Y9559D01*
X26000D01*
X26064D02*
X26255Y9368D01*
X26383Y9686D02*
X26446Y9750D01*
X26574D01*
X26638Y9686D01*
Y9623D01*
X26574Y9559D01*
X26446D01*
X26383Y9495D01*
Y9368D01*
X26638D01*
X26765Y9686D02*
X26829Y9750D01*
X26956D01*
X27020Y9686D01*
Y9623D01*
X26956Y9559D01*
X26829D01*
X26765Y9495D01*
Y9368D01*
X27020D01*
X25431Y9245D02*
X25367Y9309D01*
Y9436D01*
X25431Y9500D01*
X25686D01*
X25750Y9436D01*
Y9309D01*
X25686Y9245D01*
X25622Y9118D02*
X25750D01*
Y8863D01*
X25622Y9118D02*
Y8926D01*
X25559Y8863D01*
X25431D01*
X25367Y8926D01*
Y9054D01*
X25431Y9118D01*
X27250Y17500D02*
X27633D01*
X27250D02*
Y17691D01*
X27314Y17755D01*
X27378D01*
X27441Y17691D01*
Y17500D01*
Y17564D02*
X27633Y17755D01*
X27314Y17882D02*
X27250Y17946D01*
Y18074D01*
X27314Y18137D01*
X27378D01*
X27441Y18074D01*
Y18010D01*
Y18074D02*
X27505Y18137D01*
X27569D01*
X27633Y18074D01*
Y17946D01*
X27569Y17882D01*
X27441Y18329D02*
X27378Y18265D01*
X27314D01*
X27250Y18329D01*
Y18456D01*
X27314Y18520D01*
X27378D01*
X27441Y18456D01*
Y18329D01*
Y18456D02*
X27505Y18520D01*
X27569D01*
X27633Y18456D01*
Y18329D01*
X27569Y18265D01*
X27505D01*
X27441Y18329D01*
X36954Y25680D02*
X37145D01*
Y25361D01*
X37081Y25298D01*
X36954D01*
X36890Y25361D01*
X37336Y25616D02*
X37400Y25680D01*
Y25298D01*
X37336D02*
X37464D01*
X26000Y12750D02*
Y12368D01*
Y12750D02*
X26191D01*
X26255Y12686D01*
Y12623D01*
X26191Y12559D01*
X26000D01*
X26064D02*
X26255Y12368D01*
X26383Y12686D02*
X26446Y12750D01*
X26574D01*
X26638Y12686D01*
Y12623D01*
X26574Y12559D01*
X26446D01*
X26383Y12495D01*
Y12368D01*
X26638D01*
X26765Y12623D02*
Y12750D01*
X27020D01*
X26765Y12623D02*
X26956D01*
X27020Y12559D01*
Y12431D01*
X26956Y12368D01*
X26829D01*
X26765Y12431D01*
X26000Y14750D02*
Y14368D01*
Y14750D02*
X26191D01*
X26255Y14686D01*
Y14623D01*
X26191Y14559D01*
X26000D01*
X26064D02*
X26255Y14368D01*
X26383Y14686D02*
X26446Y14750D01*
X26574D01*
X26638Y14686D01*
Y14623D01*
X26574Y14559D01*
X26446D01*
X26383Y14495D01*
Y14368D01*
X26638D01*
X26765Y14686D02*
Y14750D01*
X27020D01*
Y14686D01*
X26829Y14495D01*
Y14368D01*
X26000Y15750D02*
Y15368D01*
Y15750D02*
X26191D01*
X26255Y15686D01*
Y15622D01*
X26191Y15559D01*
X26000D01*
X26064D02*
X26255Y15368D01*
X26383Y15686D02*
X26446Y15750D01*
X26574D01*
X26638Y15686D01*
Y15622D01*
X26574Y15559D01*
X26446D01*
X26383Y15495D01*
Y15368D01*
X26638D01*
X26829Y15559D02*
X26765Y15622D01*
Y15686D01*
X26829Y15750D01*
X26956D01*
X27020Y15686D01*
Y15622D01*
X26956Y15559D01*
X26829D01*
X26956D02*
X27020Y15495D01*
Y15431D01*
X26956Y15368D01*
X26829D01*
X26765Y15431D01*
Y15495D01*
X26829Y15559D01*
X25431Y15245D02*
X25367Y15309D01*
Y15436D01*
X25431Y15500D01*
X25686D01*
X25750Y15436D01*
Y15309D01*
X25686Y15245D01*
X25559Y15054D02*
X25622Y15117D01*
X25686D01*
X25750Y15054D01*
Y14926D01*
X25686Y14863D01*
X25622D01*
X25559Y14926D01*
Y15054D01*
Y14926D02*
X25495Y14863D01*
X25431D01*
X25367Y14926D01*
Y15054D01*
X25431Y15117D01*
X25495D01*
X25559Y15054D01*
X26000Y13750D02*
Y13368D01*
Y13750D02*
X26191D01*
X26255Y13686D01*
Y13623D01*
X26191Y13559D01*
X26000D01*
X26064D02*
X26255Y13368D01*
X26383Y13686D02*
X26446Y13750D01*
X26574D01*
X26638Y13686D01*
Y13623D01*
X26574Y13559D01*
X26446D01*
X26383Y13495D01*
Y13368D01*
X26638D01*
X26765Y13495D02*
X26829Y13559D01*
X26956D01*
X27020Y13495D01*
Y13431D01*
X26956Y13368D01*
X26829D01*
X26765Y13431D01*
Y13495D01*
Y13623D01*
X26892Y13750D01*
X26956D01*
X25431Y13245D02*
X25367Y13309D01*
Y13436D01*
X25431Y13500D01*
X25686D01*
X25750Y13436D01*
Y13309D01*
X25686Y13245D01*
Y13118D02*
X25750D01*
Y12863D01*
X25686D01*
X25495Y13054D01*
X25367D01*
X26000Y16750D02*
Y16367D01*
Y16750D02*
X26191D01*
X26255Y16686D01*
Y16622D01*
X26191Y16559D01*
X26000D01*
X26064D02*
X26255Y16367D01*
X26383Y16686D02*
X26446Y16750D01*
X26574D01*
X26638Y16686D01*
Y16622D01*
X26574Y16559D01*
X26446D01*
X26383Y16495D01*
Y16367D01*
X26638D01*
X27020Y16622D02*
X26956Y16559D01*
X26829D01*
X26765Y16622D01*
Y16686D01*
X26829Y16750D01*
X26956D01*
X27020Y16686D01*
Y16495D01*
X26892Y16367D01*
X26829D01*
X26000Y18750D02*
Y18368D01*
Y18750D02*
X26191D01*
X26255Y18686D01*
Y18623D01*
X26191Y18559D01*
X26000D01*
X26064D02*
X26255Y18368D01*
X26383Y18686D02*
X26446Y18750D01*
X26574D01*
X26638Y18686D01*
Y18623D01*
X26574Y18559D01*
X26510D01*
X26574D02*
X26638Y18495D01*
Y18431D01*
X26574Y18368D01*
X26446D01*
X26383Y18431D01*
X26829Y18686D02*
X26892Y18750D01*
Y18368D01*
X26829D02*
X26956D01*
X26000Y19750D02*
Y19367D01*
Y19750D02*
X26191D01*
X26255Y19686D01*
Y19623D01*
X26191Y19559D01*
X26000D01*
X26064D02*
X26255Y19367D01*
X26383Y19686D02*
X26446Y19750D01*
X26574D01*
X26638Y19686D01*
Y19623D01*
X26574Y19559D01*
X26510D01*
X26574D02*
X26638Y19495D01*
Y19431D01*
X26574Y19367D01*
X26446D01*
X26383Y19431D01*
X26765Y19686D02*
X26829Y19750D01*
X26956D01*
X27020Y19686D01*
Y19623D01*
X26956Y19559D01*
X26829D01*
X26765Y19495D01*
Y19367D01*
X27020D01*
X25431Y19245D02*
X25367Y19309D01*
Y19436D01*
X25431Y19500D01*
X25686D01*
X25750Y19436D01*
Y19309D01*
X25686Y19245D01*
Y19054D02*
X25750Y18990D01*
X25367D01*
Y19054D02*
Y18926D01*
X25431Y18735D02*
X25686D01*
X25750Y18671D01*
Y18544D01*
X25686Y18480D01*
X25431D01*
X25367Y18544D01*
Y18671D01*
X25431Y18735D01*
X25686Y18480D02*
X25431Y18735D01*
X26000Y17750D02*
Y17368D01*
Y17750D02*
X26191D01*
X26255Y17686D01*
Y17623D01*
X26191Y17559D01*
X26000D01*
X26064D02*
X26255Y17368D01*
X26383Y17686D02*
X26446Y17750D01*
X26574D01*
X26638Y17686D01*
Y17623D01*
X26574Y17559D01*
X26510D01*
X26574D02*
X26638Y17495D01*
Y17431D01*
X26574Y17368D01*
X26446D01*
X26383Y17431D01*
X26765D02*
Y17686D01*
X26829Y17750D01*
X26956D01*
X27020Y17686D01*
Y17431D01*
X26956Y17368D01*
X26829D01*
X26765Y17431D01*
X27020Y17686D02*
X26765Y17431D01*
X25431Y17245D02*
X25367Y17309D01*
Y17436D01*
X25431Y17500D01*
X25686D01*
X25750Y17436D01*
Y17309D01*
X25686Y17245D01*
X25622Y16863D02*
X25559Y16926D01*
Y17054D01*
X25622Y17118D01*
X25686D01*
X25750Y17054D01*
Y16926D01*
X25686Y16863D01*
X25495D01*
X25367Y16990D01*
Y17054D01*
X28155Y16081D02*
X28091Y16017D01*
X27964D01*
X27900Y16081D01*
Y16336D01*
X27964Y16400D01*
X28091D01*
X28155Y16336D01*
X28346D02*
X28410Y16400D01*
Y16017D01*
X28346D02*
X28474D01*
X28920Y16145D02*
X28665D01*
Y16209D01*
X28856Y16400D01*
Y16017D01*
X26000Y20750D02*
Y20367D01*
Y20750D02*
X26191D01*
X26255Y20686D01*
Y20622D01*
X26191Y20559D01*
X26000D01*
X26064D02*
X26255Y20367D01*
X26383Y20686D02*
X26446Y20750D01*
X26574D01*
X26638Y20686D01*
Y20622D01*
X26574Y20559D01*
X26510D01*
X26574D02*
X26638Y20495D01*
Y20431D01*
X26574Y20367D01*
X26446D01*
X26383Y20431D01*
X26765Y20686D02*
X26829Y20750D01*
X26956D01*
X27020Y20686D01*
Y20622D01*
X26956Y20559D01*
X26892D01*
X26956D02*
X27020Y20495D01*
Y20431D01*
X26956Y20367D01*
X26829D01*
X26765Y20431D01*
X26000Y22750D02*
Y22367D01*
Y22750D02*
X26191D01*
X26255Y22686D01*
Y22623D01*
X26191Y22559D01*
X26000D01*
X26064D02*
X26255Y22367D01*
X26383Y22686D02*
X26446Y22750D01*
X26574D01*
X26638Y22686D01*
Y22623D01*
X26574Y22559D01*
X26510D01*
X26574D02*
X26638Y22495D01*
Y22431D01*
X26574Y22367D01*
X26446D01*
X26383Y22431D01*
X26765Y22623D02*
Y22750D01*
X27020D01*
X26765Y22623D02*
X26956D01*
X27020Y22559D01*
Y22431D01*
X26956Y22367D01*
X26829D01*
X26765Y22431D01*
X26000Y23750D02*
Y23368D01*
Y23750D02*
X26191D01*
X26255Y23686D01*
Y23622D01*
X26191Y23559D01*
X26000D01*
X26064D02*
X26255Y23368D01*
X26383Y23686D02*
X26446Y23750D01*
X26574D01*
X26638Y23686D01*
Y23622D01*
X26574Y23559D01*
X26510D01*
X26574D02*
X26638Y23495D01*
Y23431D01*
X26574Y23368D01*
X26446D01*
X26383Y23431D01*
X26765Y23495D02*
X26829Y23559D01*
X26956D01*
X27020Y23495D01*
Y23431D01*
X26956Y23368D01*
X26829D01*
X26765Y23431D01*
Y23495D01*
Y23622D01*
X26892Y23750D01*
X26956D01*
X25431Y23245D02*
X25367Y23309D01*
Y23436D01*
X25431Y23500D01*
X25686D01*
X25750Y23436D01*
Y23309D01*
X25686Y23245D01*
Y23054D02*
X25750Y22990D01*
X25367D01*
Y23054D02*
Y22926D01*
X25686Y22735D02*
X25750Y22671D01*
Y22544D01*
X25686Y22480D01*
X25622D01*
X25559Y22544D01*
Y22671D01*
X25495Y22735D01*
X25367D01*
Y22480D01*
X26000Y21750D02*
Y21367D01*
Y21750D02*
X26191D01*
X26255Y21686D01*
Y21623D01*
X26191Y21559D01*
X26000D01*
X26064D02*
X26255Y21367D01*
X26383Y21686D02*
X26446Y21750D01*
X26574D01*
X26638Y21686D01*
Y21623D01*
X26574Y21559D01*
X26510D01*
X26574D02*
X26638Y21495D01*
Y21431D01*
X26574Y21367D01*
X26446D01*
X26383Y21431D01*
X27020Y21495D02*
X26765D01*
Y21559D01*
X26956Y21750D01*
Y21367D01*
X25431Y21245D02*
X25367Y21309D01*
Y21436D01*
X25431Y21500D01*
X25686D01*
X25750Y21436D01*
Y21309D01*
X25686Y21245D01*
Y21054D02*
X25750Y20990D01*
X25367D01*
Y21054D02*
Y20926D01*
X25686Y20671D02*
X25750Y20607D01*
X25367D01*
Y20671D02*
Y20544D01*
X30500Y20681D02*
Y20873D01*
Y20936D01*
X30564Y21000D01*
X30691D01*
X30755Y20936D01*
Y20745D01*
X30627Y20617D01*
X30564D01*
X30500Y20681D01*
X30627Y20745D02*
X30755Y20617D01*
X30946Y20936D02*
X31010Y21000D01*
Y20617D01*
X30946D02*
X31074D01*
X31265Y20936D02*
X31329Y21000D01*
X31456D01*
X31520Y20936D01*
Y20873D01*
X31456Y20809D01*
X31392D01*
X31456D02*
X31520Y20745D01*
Y20681D01*
X31456Y20617D01*
X31329D01*
X31265Y20681D01*
X28500Y21250D02*
X28883D01*
X28500D02*
Y21441D01*
X28564Y21505D01*
X28628D01*
X28691Y21441D01*
Y21250D01*
Y21314D02*
X28883Y21505D01*
X28564Y21633D02*
X28500Y21696D01*
Y21824D01*
X28564Y21888D01*
X28628D01*
X28691Y21824D01*
Y21760D01*
Y21824D02*
X28755Y21888D01*
X28819D01*
X28883Y21824D01*
Y21696D01*
X28819Y21633D01*
X28628Y22270D02*
X28691Y22206D01*
Y22079D01*
X28628Y22015D01*
X28564D01*
X28500Y22079D01*
Y22206D01*
X28564Y22270D01*
X28755D01*
X28883Y22143D01*
Y22079D01*
X29005Y19681D02*
X28941Y19618D01*
X28814D01*
X28750Y19681D01*
Y19936D01*
X28814Y20000D01*
X28941D01*
X29005Y19936D01*
X29196D02*
X29260Y20000D01*
Y19618D01*
X29196D02*
X29324D01*
X29515Y19873D02*
Y20000D01*
X29770D01*
X29515Y19873D02*
X29706D01*
X29770Y19809D01*
Y19681D01*
X29706Y19618D01*
X29579D01*
X29515Y19681D01*
X34954Y25680D02*
X35145D01*
Y25361D01*
X35081Y25298D01*
X34954D01*
X34890Y25361D01*
X35272Y25616D02*
X35336Y25680D01*
X35464D01*
X35527Y25616D01*
Y25552D01*
X35464Y25489D01*
X35400D01*
X35464D02*
X35527Y25425D01*
Y25361D01*
X35464Y25298D01*
X35336D01*
X35272Y25361D01*
X33954Y25680D02*
X34145D01*
Y25361D01*
X34081Y25298D01*
X33954D01*
X33890Y25361D01*
X34527Y25425D02*
X34272D01*
Y25489D01*
X34464Y25680D01*
Y25298D01*
X37740Y16900D02*
Y16518D01*
Y16900D02*
X37931D01*
X37995Y16836D01*
Y16773D01*
X37931Y16709D01*
X37740D01*
X37804D02*
X37995Y16518D01*
X38377Y16645D02*
X38122D01*
Y16709D01*
X38314Y16900D01*
Y16518D01*
X38505Y16836D02*
Y16900D01*
X38760D01*
Y16836D01*
X38569Y16645D01*
Y16518D01*
X40250Y21686D02*
Y21495D01*
X39931D01*
X39867Y21559D01*
Y21686D01*
X39931Y21750D01*
X40122Y21367D02*
X40250D01*
Y21113D01*
X40122Y21367D02*
Y21176D01*
X40059Y21113D01*
X39931D01*
X39867Y21176D01*
Y21304D01*
X39931Y21367D01*
X39900Y11600D02*
X39518D01*
X39900D02*
Y11409D01*
X39836Y11345D01*
X39773D01*
X39709Y11409D01*
Y11600D01*
Y11536D02*
X39518Y11345D01*
X39645Y10962D02*
Y11217D01*
X39709D01*
X39900Y11026D01*
X39518D01*
X39645Y10835D02*
X39709Y10771D01*
Y10644D01*
X39645Y10580D01*
X39581D01*
X39518Y10644D01*
Y10771D01*
X39581Y10835D01*
X39645D01*
X39773D01*
X39900Y10708D01*
Y10644D01*
X36800Y11400D02*
Y11017D01*
Y11400D02*
X36991D01*
X37055Y11336D01*
Y11272D01*
X36991Y11209D01*
X36800D01*
X36864D02*
X37055Y11017D01*
X37437Y11145D02*
X37182D01*
Y11209D01*
X37374Y11400D01*
Y11017D01*
X37565Y11272D02*
Y11400D01*
X37820D01*
X37565Y11272D02*
X37756D01*
X37820Y11209D01*
Y11081D01*
X37756Y11017D01*
X37629D01*
X37565Y11081D01*
X36955Y8681D02*
X36891Y8618D01*
X36764D01*
X36700Y8681D01*
Y8936D01*
X36764Y9000D01*
X36891D01*
X36955Y8936D01*
X37146D02*
X37210Y9000D01*
Y8618D01*
X37146D02*
X37274D01*
X37465Y8745D02*
X37529Y8809D01*
X37656D01*
X37720Y8745D01*
Y8681D01*
X37656Y8618D01*
X37529D01*
X37465Y8681D01*
Y8745D01*
Y8873D01*
X37593Y9000D01*
X37656D01*
X37400Y8200D02*
Y7817D01*
Y8200D02*
X37591D01*
X37655Y8136D01*
Y8072D01*
X37591Y8009D01*
X37400D01*
X37464D02*
X37655Y7817D01*
X38038Y7945D02*
X37783D01*
Y8009D01*
X37974Y8200D01*
Y7817D01*
X38420Y7945D02*
X38165D01*
Y8009D01*
X38356Y8200D01*
Y7817D01*
X37400Y7200D02*
Y6818D01*
Y7200D02*
X37591D01*
X37655Y7136D01*
Y7073D01*
X37591Y7009D01*
X37400D01*
X37464D02*
X37655Y6818D01*
X38038Y6945D02*
X37783D01*
Y7009D01*
X37974Y7200D01*
Y6818D01*
X38165Y7136D02*
X38229Y7200D01*
X38356D01*
X38420Y7136D01*
Y7073D01*
X38356Y7009D01*
X38293D01*
X38356D02*
X38420Y6945D01*
Y6881D01*
X38356Y6818D01*
X38229D01*
X38165Y6881D01*
X37400Y6100D02*
Y5718D01*
Y6100D02*
X37591D01*
X37655Y6036D01*
Y5973D01*
X37591Y5909D01*
X37400D01*
X37464D02*
X37655Y5718D01*
X38038Y5845D02*
X37783D01*
Y5909D01*
X37974Y6100D01*
Y5718D01*
X38165Y6036D02*
X38229Y6100D01*
X38356D01*
X38420Y6036D01*
Y5973D01*
X38356Y5909D01*
X38229D01*
X38165Y5845D01*
Y5718D01*
X38420D01*
X37500Y5200D02*
Y4818D01*
Y5200D02*
X37691D01*
X37755Y5136D01*
Y5073D01*
X37691Y5009D01*
X37500D01*
X37564D02*
X37755Y4818D01*
X38137Y4945D02*
X37882D01*
Y5009D01*
X38074Y5200D01*
Y4818D01*
X38329Y5136D02*
X38392Y5200D01*
Y4818D01*
X38329D02*
X38456D01*
X37500Y4200D02*
Y3818D01*
Y4200D02*
X37691D01*
X37755Y4136D01*
Y4073D01*
X37691Y4009D01*
X37500D01*
X37564D02*
X37755Y3818D01*
X38137Y3945D02*
X37882D01*
Y4009D01*
X38074Y4200D01*
Y3818D01*
X38265Y3881D02*
Y4136D01*
X38329Y4200D01*
X38456D01*
X38520Y4136D01*
Y3881D01*
X38456Y3818D01*
X38329D01*
X38265Y3881D01*
X38520Y4136D02*
X38265Y3881D01*
X33000Y16200D02*
X33382D01*
X33000D02*
Y16391D01*
X33064Y16455D01*
X33127D01*
X33191Y16391D01*
Y16200D01*
Y16264D02*
X33382Y16455D01*
X33255Y16837D02*
Y16582D01*
X33191D01*
X33000Y16774D01*
X33382D01*
X33191Y17029D02*
X33127Y16965D01*
X33064D01*
X33000Y17029D01*
Y17156D01*
X33064Y17220D01*
X33127D01*
X33191Y17156D01*
Y17029D01*
Y17156D02*
X33255Y17220D01*
X33319D01*
X33382Y17156D01*
Y17029D01*
X33319Y16965D01*
X33255D01*
X33191Y17029D01*
X38381Y13745D02*
X38317Y13809D01*
Y13936D01*
X38381Y14000D01*
X38636D01*
X38700Y13936D01*
Y13809D01*
X38636Y13745D01*
Y13554D02*
X38700Y13490D01*
X38317D01*
Y13554D02*
Y13426D01*
X38509Y13171D02*
X38572Y13235D01*
X38636D01*
X38700Y13171D01*
Y13044D01*
X38636Y12980D01*
X38572D01*
X38509Y13044D01*
Y13171D01*
Y13044D02*
X38445Y12980D01*
X38381D01*
X38317Y13044D01*
Y13171D01*
X38381Y13235D01*
X38445D01*
X38509Y13171D01*
X37155Y11581D02*
X37091Y11518D01*
X36964D01*
X36900Y11581D01*
Y11836D01*
X36964Y11900D01*
X37091D01*
X37155Y11836D01*
X37346D02*
X37410Y11900D01*
Y11518D01*
X37346D02*
X37474D01*
X37665Y11836D02*
Y11900D01*
X37920D01*
Y11836D01*
X37729Y11645D01*
Y11518D01*
X37255Y14881D02*
X37191Y14818D01*
X37064D01*
X37000Y14881D01*
Y15136D01*
X37064Y15200D01*
X37191D01*
X37255Y15136D01*
X37446D02*
X37510Y15200D01*
Y14818D01*
X37446D02*
X37574D01*
X38020Y15073D02*
X37956Y15009D01*
X37829D01*
X37765Y15073D01*
Y15136D01*
X37829Y15200D01*
X37956D01*
X38020Y15136D01*
Y14945D01*
X37893Y14818D01*
X37829D01*
X35800Y17100D02*
X35417D01*
X35800D02*
Y16909D01*
X35736Y16845D01*
X35672D01*
X35609Y16909D01*
Y17100D01*
Y17036D02*
X35417Y16845D01*
X35545Y16463D02*
Y16718D01*
X35609D01*
X35800Y16526D01*
X35417D01*
X35672Y16080D02*
X35609Y16144D01*
Y16271D01*
X35672Y16335D01*
X35736D01*
X35800Y16271D01*
Y16144D01*
X35736Y16080D01*
X35545D01*
X35417Y16208D01*
Y16271D01*
X35954Y25680D02*
X36145D01*
Y25361D01*
X36081Y25298D01*
X35954D01*
X35890Y25361D01*
X36273Y25616D02*
X36336Y25680D01*
X36464D01*
X36528Y25616D01*
Y25552D01*
X36464Y25489D01*
X36336D01*
X36273Y25425D01*
Y25298D01*
X36528D01*
D11*
X39305Y7559D02*
X39239Y7493D01*
X39106D01*
X39040Y7559D01*
Y7824D01*
X39106Y7890D01*
X39239D01*
X39305Y7824D01*
X39636Y7691D02*
X39504D01*
X39438Y7757D01*
Y7824D01*
X39504Y7890D01*
X39636D01*
X39703Y7824D01*
X39636Y7691D02*
X39703Y7625D01*
Y7559D01*
X39636Y7493D01*
X39504D01*
X39438Y7559D01*
X38870Y4520D02*
X39135D01*
X39003D02*
Y4123D01*
X39268Y4520D02*
Y4123D01*
Y4321D02*
X39533D01*
Y4520D02*
Y4123D01*
D12*
X38184Y24116D02*
X38268Y24200D01*
Y23697D01*
X38184D02*
X38351D01*
X38100Y22781D02*
Y23116D01*
X38184Y23200D01*
X38351D01*
X38435Y23116D01*
Y22781D01*
X38351Y22698D01*
X38184D01*
X38100Y22781D01*
X38435Y23116D02*
X38100Y22781D01*
X20419Y500D02*
X20168D01*
X20084D01*
X20000Y584D01*
Y751D01*
X20084Y835D01*
X20335D01*
X20503Y667D01*
Y584D01*
X20419Y500D01*
X20335Y667D02*
X20503Y835D01*
X20084Y1086D02*
X20000Y1170D01*
X20503D01*
Y1086D02*
Y1254D01*
X40019Y13135D02*
X40103Y13051D01*
Y12884D01*
X40019Y12800D01*
X39684D01*
X39600Y12884D01*
Y13051D01*
X39684Y13135D01*
X40103Y13302D02*
X39600D01*
X39935Y13637D01*
X39600D02*
X40103D01*
X39684Y13805D02*
X39600Y13889D01*
Y14056D01*
X39684Y14140D01*
X39768D01*
X39851Y14056D01*
Y13972D01*
Y14056D02*
X39935Y14140D01*
X40019D01*
X40103Y14056D01*
Y13889D01*
X40019Y13805D01*
X29535Y10600D02*
Y10181D01*
X29451Y10097D01*
X29284D01*
X29200Y10181D01*
Y10600D01*
X29786Y10516D02*
X29870Y10600D01*
Y10097D01*
X29786D02*
X29954D01*
X5081Y12125D02*
X4997Y12209D01*
Y12376D01*
X5081Y12460D01*
X5416D01*
X5500Y12376D01*
Y12209D01*
X5416Y12125D01*
X4997Y11958D02*
X5500D01*
X5165Y11622D01*
X5500D02*
X4997D01*
X5416Y11371D02*
X5500Y11287D01*
X4997D01*
Y11371D02*
Y11204D01*
X12250Y2250D02*
Y1747D01*
Y2250D02*
X12501D01*
X12585Y2166D01*
Y2082D01*
X12501Y1999D01*
X12250D01*
X12334D02*
X12585Y1747D01*
X12836Y2166D02*
X12920Y2250D01*
Y1747D01*
X12836D02*
X13004D01*
X17750Y4250D02*
Y3747D01*
Y4250D02*
X18001D01*
X18085Y4166D01*
Y4082D01*
X18001Y3999D01*
X17750D01*
X17834D02*
X18085Y3747D01*
X18252Y4166D02*
X18336Y4250D01*
X18504D01*
X18588Y4166D01*
Y4082D01*
X18504Y3999D01*
X18336D01*
X18252Y3915D01*
Y3747D01*
X18588D01*
X7500Y23748D02*
Y23999D01*
Y24250D01*
X7835D01*
X7500Y23999D02*
X7751D01*
X8086Y24166D02*
X8170Y24250D01*
Y23748D01*
X8086D02*
X8254D01*
X8505Y24166D02*
X8589Y24250D01*
X8756D01*
X8840Y24166D01*
Y24083D01*
X8756Y23999D01*
X8589D01*
X8505Y23915D01*
Y23748D01*
X8840D01*
X20419Y2500D02*
X20168D01*
X20084D01*
X20000Y2584D01*
Y2751D01*
X20084Y2835D01*
X20335D01*
X20503Y2667D01*
Y2584D01*
X20419Y2500D01*
X20335Y2667D02*
X20503Y2835D01*
X20084Y3002D02*
X20000Y3086D01*
Y3254D01*
X20084Y3338D01*
X20168D01*
X20251Y3254D01*
Y3086D01*
X20335Y3002D01*
X20503D01*
Y3338D01*
X7500Y3758D02*
Y4009D01*
Y4260D01*
X7835D01*
X7500Y4009D02*
X7751D01*
X8002Y4176D02*
X8086Y4260D01*
X8254D01*
X8338Y4176D01*
Y4093D01*
X8254Y4009D01*
X8086D01*
X8002Y3925D01*
Y3758D01*
X8338D01*
X7500Y1727D02*
Y1979D01*
Y2230D01*
X7835D01*
X7500Y1979D02*
X7751D01*
X8086Y2146D02*
X8170Y2230D01*
Y1727D01*
X8086D02*
X8254D01*
X20419Y4500D02*
X20168D01*
X20084D01*
X20000Y4584D01*
Y4751D01*
X20084Y4835D01*
X20335D01*
X20503Y4668D01*
Y4584D01*
X20419Y4500D01*
X20335Y4668D02*
X20503Y4835D01*
X20084Y5003D02*
X20000Y5086D01*
Y5254D01*
X20084Y5338D01*
X20168D01*
X20251Y5254D01*
Y5170D01*
Y5254D02*
X20335Y5338D01*
X20419D01*
X20503Y5254D01*
Y5086D01*
X20419Y5003D01*
Y6500D02*
X20168D01*
X20084D01*
X20000Y6584D01*
Y6751D01*
X20084Y6835D01*
X20335D01*
X20503Y6668D01*
Y6584D01*
X20419Y6500D01*
X20335Y6668D02*
X20503Y6835D01*
X20335Y7338D02*
Y7003D01*
X20251D01*
X20000Y7254D01*
X20503D01*
X10926Y6370D02*
X11010D01*
Y6035D01*
X10926D01*
X10591Y6370D01*
Y6035D02*
X10508D01*
Y6370D01*
X10591D01*
X10926Y5867D02*
X11010Y5784D01*
Y5616D01*
X10926Y5532D01*
X10842D01*
X10759Y5616D01*
Y5700D01*
Y5616D02*
X10675Y5532D01*
X10591D01*
X10508Y5616D01*
Y5784D01*
X10591Y5867D01*
X12250Y6250D02*
Y5747D01*
Y6250D02*
X12501D01*
X12585Y6166D01*
Y6082D01*
X12501Y5999D01*
X12250D01*
X12334D02*
X12585Y5747D01*
X12752Y6166D02*
X12836Y6250D01*
X13004D01*
X13087Y6166D01*
Y6082D01*
X13004Y5999D01*
X12920D01*
X13004D02*
X13087Y5915D01*
Y5831D01*
X13004Y5747D01*
X12836D01*
X12752Y5831D01*
X17750Y8250D02*
Y7748D01*
Y8250D02*
X18001D01*
X18085Y8166D01*
Y8083D01*
X18001Y7999D01*
X17750D01*
X17834D02*
X18085Y7748D01*
X18588Y7915D02*
X18252D01*
Y7999D01*
X18504Y8250D01*
Y7748D01*
X7500Y5747D02*
Y5999D01*
Y6250D01*
X7835D01*
X7500Y5999D02*
X7751D01*
X8002Y6166D02*
X8086Y6250D01*
X8254D01*
X8338Y6166D01*
Y6082D01*
X8254Y5999D01*
X8170D01*
X8254D02*
X8338Y5915D01*
Y5831D01*
X8254Y5747D01*
X8086D01*
X8002Y5831D01*
X20419Y8500D02*
X20168D01*
X20084D01*
X20000Y8584D01*
Y8751D01*
X20084Y8835D01*
X20335D01*
X20503Y8668D01*
Y8584D01*
X20419Y8500D01*
X20335Y8668D02*
X20503Y8835D01*
X20168Y9003D02*
X20000D01*
Y9338D01*
X20168Y9003D02*
Y9254D01*
X20251Y9338D01*
X20419D01*
X20503Y9254D01*
Y9086D01*
X20419Y9003D01*
Y10500D02*
X20168D01*
X20084D01*
X20000Y10584D01*
Y10751D01*
X20084Y10835D01*
X20335D01*
X20503Y10667D01*
Y10584D01*
X20419Y10500D01*
X20335Y10667D02*
X20503Y10835D01*
X20335Y11003D02*
X20251Y11086D01*
Y11254D01*
X20335Y11338D01*
X20419D01*
X20503Y11254D01*
Y11086D01*
X20419Y11003D01*
X20335D01*
X20168D01*
X20000Y11170D01*
Y11254D01*
X12000Y10250D02*
Y9747D01*
Y10250D02*
X12251D01*
X12335Y10166D01*
Y10083D01*
X12251Y9999D01*
X12000D01*
X12084D02*
X12335Y9747D01*
X12502Y10083D02*
Y10250D01*
X12837D01*
X12502Y10083D02*
X12754D01*
X12837Y9999D01*
Y9831D01*
X12754Y9747D01*
X12586D01*
X12502Y9831D01*
X17750Y12250D02*
Y11747D01*
Y12250D02*
X18001D01*
X18085Y12166D01*
Y12082D01*
X18001Y11999D01*
X17750D01*
X17834D02*
X18085Y11747D01*
X18252Y11915D02*
X18336Y11999D01*
X18504D01*
X18588Y11915D01*
Y11831D01*
X18504Y11747D01*
X18336D01*
X18252Y11831D01*
Y11915D01*
Y12082D01*
X18420Y12250D01*
X18504D01*
X7500Y9747D02*
Y9999D01*
Y10250D01*
X7835D01*
X7500Y9999D02*
X7751D01*
X8002Y10083D02*
Y10250D01*
X8338D01*
X8002Y10083D02*
X8254D01*
X8338Y9999D01*
Y9831D01*
X8254Y9747D01*
X8086D01*
X8002Y9831D01*
X10926Y4370D02*
X11010D01*
Y4035D01*
X10926D01*
X10591Y4370D01*
Y4035D02*
X10508D01*
Y4370D01*
X10591D01*
X10926Y3867D02*
X11010Y3784D01*
Y3616D01*
X10926Y3532D01*
X10842D01*
X10759Y3616D01*
Y3784D01*
X10675Y3867D01*
X10508D01*
Y3532D01*
X7500Y7697D02*
Y7949D01*
Y8200D01*
X7835D01*
X7500Y7949D02*
X7751D01*
X8338Y7865D02*
X8002D01*
Y7949D01*
X8254Y8200D01*
Y7697D01*
X10906Y12310D02*
X10990D01*
Y11975D01*
X10906D01*
X10571Y12310D01*
Y11975D02*
X10488D01*
Y12310D01*
X10571D01*
X10655Y11807D02*
X10739Y11724D01*
Y11556D01*
X10655Y11472D01*
X10571D01*
X10488Y11556D01*
Y11724D01*
X10571Y11807D01*
X10655D01*
X10822D01*
X10990Y11640D01*
Y11556D01*
X20419Y12500D02*
X20168D01*
X20084D01*
X20000Y12584D01*
Y12751D01*
X20084Y12835D01*
X20335D01*
X20503Y12667D01*
Y12584D01*
X20419Y12500D01*
X20335Y12667D02*
X20503Y12835D01*
X20084Y13002D02*
X20000D01*
Y13337D01*
X20084D01*
X20335Y13086D01*
X20503D01*
X7500Y11757D02*
Y12009D01*
Y12260D01*
X7835D01*
X7500Y12009D02*
X7751D01*
X8002Y11925D02*
X8086Y12009D01*
X8254D01*
X8338Y11925D01*
Y11841D01*
X8254Y11757D01*
X8086D01*
X8002Y11841D01*
Y11925D01*
Y12092D01*
X8170Y12260D01*
X8254D01*
X20419Y14500D02*
X20168D01*
X20084D01*
X20000Y14584D01*
Y14751D01*
X20084Y14835D01*
X20335D01*
X20503Y14668D01*
Y14584D01*
X20419Y14500D01*
X20335Y14668D02*
X20503Y14835D01*
X20251Y15086D02*
X20168Y15002D01*
X20084D01*
X20000Y15086D01*
Y15254D01*
X20084Y15337D01*
X20168D01*
X20251Y15254D01*
Y15086D01*
Y15254D02*
X20335Y15337D01*
X20419D01*
X20503Y15254D01*
Y15086D01*
X20419Y15002D01*
X20335D01*
X20251Y15086D01*
X12250Y14250D02*
Y13747D01*
Y14250D02*
X12501D01*
X12585Y14166D01*
Y14082D01*
X12501Y13999D01*
X12250D01*
X12334D02*
X12585Y13747D01*
X12752Y14166D02*
Y14250D01*
X13087D01*
Y14166D01*
X12836Y13915D01*
Y13747D01*
X17750Y16250D02*
Y15748D01*
Y16250D02*
X18001D01*
X18085Y16166D01*
Y16082D01*
X18001Y15999D01*
X17750D01*
X17834D02*
X18085Y15748D01*
X18336Y15999D02*
X18252Y16082D01*
Y16166D01*
X18336Y16250D01*
X18504D01*
X18588Y16166D01*
Y16082D01*
X18504Y15999D01*
X18336D01*
X18504D02*
X18588Y15915D01*
Y15831D01*
X18504Y15748D01*
X18336D01*
X18252Y15831D01*
Y15915D01*
X18336Y15999D01*
X20419Y16500D02*
X20168D01*
X20084D01*
X20000Y16584D01*
Y16751D01*
X20084Y16835D01*
X20335D01*
X20503Y16668D01*
Y16584D01*
X20419Y16500D01*
X20335Y16668D02*
X20503Y16835D01*
X20168Y17338D02*
X20251Y17254D01*
Y17086D01*
X20168Y17003D01*
X20084D01*
X20000Y17086D01*
Y17254D01*
X20084Y17338D01*
X20335D01*
X20503Y17170D01*
Y17086D01*
X7500Y13728D02*
Y13979D01*
Y14230D01*
X7835D01*
X7500Y13979D02*
X7751D01*
X8002Y14146D02*
Y14230D01*
X8338D01*
Y14146D01*
X8086Y13895D01*
Y13728D01*
X20419Y18500D02*
X20168D01*
X20084D01*
X20000Y18584D01*
Y18751D01*
X20084Y18835D01*
X20335D01*
X20503Y18668D01*
Y18584D01*
X20419Y18500D01*
X20335Y18668D02*
X20503Y18835D01*
X20084Y19086D02*
X20000Y19170D01*
X20503D01*
Y19086D02*
Y19254D01*
X20419Y19505D02*
X20084D01*
X20000Y19589D01*
Y19756D01*
X20084Y19840D01*
X20419D01*
X20503Y19756D01*
Y19589D01*
X20419Y19505D01*
X20084Y19840D02*
X20419Y19505D01*
X10916Y18400D02*
X11000D01*
Y18065D01*
X10916D01*
X10581Y18400D01*
Y18065D02*
X10498D01*
Y18400D01*
X10581D01*
X10832Y17562D02*
X10749Y17646D01*
Y17814D01*
X10832Y17898D01*
X10916D01*
X11000Y17814D01*
Y17646D01*
X10916Y17562D01*
X10665D01*
X10498Y17730D01*
Y17814D01*
X12250Y18250D02*
Y17748D01*
Y18250D02*
X12501D01*
X12585Y18166D01*
Y18082D01*
X12501Y17999D01*
X12250D01*
X12334D02*
X12585Y17748D01*
X13087Y18082D02*
X13004Y17999D01*
X12836D01*
X12752Y18082D01*
Y18166D01*
X12836Y18250D01*
X13004D01*
X13087Y18166D01*
Y17915D01*
X12920Y17748D01*
X12836D01*
X17250Y20250D02*
Y19747D01*
Y20250D02*
X17501D01*
X17585Y20166D01*
Y20082D01*
X17501Y19999D01*
X17250D01*
X17334D02*
X17585Y19747D01*
X17836Y20166D02*
X17920Y20250D01*
Y19747D01*
X17836D02*
X18004D01*
X18255Y19831D02*
Y20166D01*
X18339Y20250D01*
X18506D01*
X18590Y20166D01*
Y19831D01*
X18506Y19747D01*
X18339D01*
X18255Y19831D01*
X18590Y20166D02*
X18255Y19831D01*
X7500Y17748D02*
Y17999D01*
Y18250D01*
X7835D01*
X7500Y17999D02*
X7751D01*
X8338Y18082D02*
X8254Y17999D01*
X8086D01*
X8002Y18082D01*
Y18166D01*
X8086Y18250D01*
X8254D01*
X8338Y18166D01*
Y17915D01*
X8170Y17748D01*
X8086D01*
X10916Y10400D02*
X11000D01*
Y10065D01*
X10916D01*
X10581Y10400D01*
Y10065D02*
X10498D01*
Y10400D01*
X10581D01*
X10832Y9898D02*
X11000D01*
Y9562D01*
X10832Y9898D02*
Y9646D01*
X10749Y9562D01*
X10581D01*
X10498Y9646D01*
Y9814D01*
X10581Y9898D01*
X7500Y15718D02*
Y15969D01*
Y16220D01*
X7835D01*
X7500Y15969D02*
X7751D01*
X8086D02*
X8002Y16052D01*
Y16136D01*
X8086Y16220D01*
X8254D01*
X8338Y16136D01*
Y16052D01*
X8254Y15969D01*
X8086D01*
X8254D02*
X8338Y15885D01*
Y15801D01*
X8254Y15718D01*
X8086D01*
X8002Y15801D01*
Y15885D01*
X8086Y15969D01*
X10886Y16380D02*
X10970D01*
Y16045D01*
X10886D01*
X10551Y16380D01*
Y16045D02*
X10467D01*
Y16380D01*
X10551D01*
X10719Y15794D02*
X10802Y15878D01*
X10886D01*
X10970Y15794D01*
Y15626D01*
X10886Y15543D01*
X10802D01*
X10719Y15626D01*
Y15794D01*
Y15626D02*
X10635Y15543D01*
X10551D01*
X10467Y15626D01*
Y15794D01*
X10551Y15878D01*
X10635D01*
X10719Y15794D01*
X20419Y20500D02*
X20168D01*
X20084D01*
X20000Y20584D01*
Y20751D01*
X20084Y20835D01*
X20335D01*
X20503Y20668D01*
Y20584D01*
X20419Y20500D01*
X20335Y20668D02*
X20503Y20835D01*
X20084Y21086D02*
X20000Y21170D01*
X20503D01*
Y21086D02*
Y21254D01*
X20084Y21589D02*
X20000Y21673D01*
X20503D01*
Y21589D02*
Y21756D01*
X20419Y22500D02*
X20168D01*
X20084D01*
X20000Y22584D01*
Y22751D01*
X20084Y22835D01*
X20335D01*
X20503Y22668D01*
Y22584D01*
X20419Y22500D01*
X20335Y22668D02*
X20503Y22835D01*
X20084Y23086D02*
X20000Y23170D01*
X20503D01*
Y23086D02*
Y23254D01*
X20084Y23505D02*
X20000Y23589D01*
Y23756D01*
X20084Y23840D01*
X20168D01*
X20251Y23756D01*
Y23589D01*
X20335Y23505D01*
X20503D01*
Y23840D01*
X10906Y22520D02*
X10990D01*
Y22185D01*
X10906D01*
X10571Y22520D01*
Y22185D02*
X10488D01*
Y22520D01*
X10571D01*
X10906Y21934D02*
X10990Y21850D01*
X10488D01*
Y21934D02*
Y21766D01*
X10906Y21431D02*
X10990Y21347D01*
X10488D01*
Y21431D02*
Y21264D01*
X12000Y22250D02*
Y21747D01*
Y22250D02*
X12251D01*
X12335Y22166D01*
Y22082D01*
X12251Y21999D01*
X12000D01*
X12084D02*
X12335Y21747D01*
X12586Y22166D02*
X12670Y22250D01*
Y21747D01*
X12586D02*
X12754D01*
X13089Y22166D02*
X13172Y22250D01*
Y21747D01*
X13089D02*
X13256D01*
X17250Y24250D02*
Y23748D01*
Y24250D02*
X17501D01*
X17585Y24166D01*
Y24083D01*
X17501Y23999D01*
X17250D01*
X17334D02*
X17585Y23748D01*
X17836Y24166D02*
X17920Y24250D01*
Y23748D01*
X17836D02*
X18004D01*
X18255Y24166D02*
X18339Y24250D01*
X18506D01*
X18590Y24166D01*
Y24083D01*
X18506Y23999D01*
X18339D01*
X18255Y23915D01*
Y23748D01*
X18590D01*
X7500Y21747D02*
Y21999D01*
Y22250D01*
X7835D01*
X7500Y21999D02*
X7751D01*
X8086Y22166D02*
X8170Y22250D01*
Y21747D01*
X8086D02*
X8254D01*
X8589Y22166D02*
X8672Y22250D01*
Y21747D01*
X8589D02*
X8756D01*
X7500Y19747D02*
Y19999D01*
Y20250D01*
X7835D01*
X7500Y19999D02*
X7751D01*
X8086Y20166D02*
X8170Y20250D01*
Y19747D01*
X8086D02*
X8254D01*
X8505Y19831D02*
Y20166D01*
X8589Y20250D01*
X8756D01*
X8840Y20166D01*
Y19831D01*
X8756Y19747D01*
X8589D01*
X8505Y19831D01*
X8840Y20166D02*
X8505Y19831D01*
X10926Y20500D02*
X11010D01*
Y20165D01*
X10926D01*
X10591Y20500D01*
Y20165D02*
X10508D01*
Y20500D01*
X10591D01*
X10926Y19914D02*
X11010Y19830D01*
X10508D01*
Y19914D02*
Y19746D01*
X10591Y19495D02*
X10926D01*
X11010Y19411D01*
Y19244D01*
X10926Y19160D01*
X10591D01*
X10508Y19244D01*
Y19411D01*
X10591Y19495D01*
X10926Y19160D02*
X10591Y19495D01*
X10886Y14410D02*
X10970D01*
Y14075D01*
X10886D01*
X10551Y14410D01*
Y14075D02*
X10467D01*
Y14410D01*
X10551D01*
X10886Y13908D02*
X10970D01*
Y13572D01*
X10886D01*
X10635Y13824D01*
X10467D01*
X36500Y2065D02*
X36081D01*
X35997Y2149D01*
Y2316D01*
X36081Y2400D01*
X36500D01*
X36416Y1897D02*
X36500Y1814D01*
Y1646D01*
X36416Y1562D01*
X36332D01*
X36249Y1646D01*
Y1814D01*
X36165Y1897D01*
X35997D01*
Y1562D01*
X34035Y13700D02*
Y13281D01*
X33951Y13198D01*
X33784D01*
X33700Y13281D01*
Y13700D01*
X34202Y13616D02*
X34286Y13700D01*
X34454D01*
X34537Y13616D01*
Y13532D01*
X34454Y13449D01*
X34370D01*
X34454D02*
X34537Y13365D01*
Y13281D01*
X34454Y13198D01*
X34286D01*
X34202Y13281D01*
X40219Y6035D02*
X40302Y5951D01*
Y5784D01*
X40219Y5700D01*
X39884D01*
X39800Y5784D01*
Y5951D01*
X39884Y6035D01*
X40302Y6203D02*
X39800D01*
X40135Y6538D01*
X39800D02*
X40302D01*
X39884Y6705D02*
X39800Y6789D01*
Y6956D01*
X39884Y7040D01*
X39967D01*
X40051Y6956D01*
Y6789D01*
X40135Y6705D01*
X40302D01*
Y7040D01*
X40635Y21781D02*
X40551Y21697D01*
X40384D01*
X40300Y21781D01*
Y22116D01*
X40384Y22200D01*
X40551D01*
X40635Y22116D01*
X40803Y21697D02*
Y22200D01*
X41138Y21865D01*
Y22200D02*
Y21697D01*
X41305Y22032D02*
Y22200D01*
X41640D01*
X41305Y22032D02*
X41556D01*
X41640Y21949D01*
Y21781D01*
X41556Y21697D01*
X41389D01*
X41305Y21781D01*
X40635Y16081D02*
X40551Y15998D01*
X40384D01*
X40300Y16081D01*
Y16416D01*
X40384Y16500D01*
X40551D01*
X40635Y16416D01*
X40803Y15998D02*
Y16500D01*
X41138Y16165D01*
Y16500D02*
Y15998D01*
X41640Y16165D02*
X41305D01*
Y16249D01*
X41556Y16500D01*
Y15998D01*
X36340Y20100D02*
Y20435D01*
Y20268D02*
X36843D01*
X36424Y20603D02*
X36340Y20686D01*
Y20854D01*
X36424Y20938D01*
X36508D01*
X36591Y20854D01*
Y20686D01*
X36675Y20603D01*
X36843D01*
Y20938D01*
X40230Y5446D02*
Y5195D01*
X39811D01*
X39728Y5279D01*
Y5446D01*
X39811Y5530D01*
X39895Y5028D02*
X39979Y4944D01*
Y4776D01*
X39895Y4692D01*
X39811D01*
X39728Y4776D01*
Y4944D01*
X39811Y5028D01*
X39895D01*
X40063D01*
X40230Y4860D01*
Y4776D01*
X34600Y20300D02*
X34935D01*
X34768D02*
Y19797D01*
X35186Y20216D02*
X35270Y20300D01*
Y19797D01*
X35186D02*
X35354D01*
X10926Y24560D02*
X11010D01*
Y24225D01*
X10926D01*
X10591Y24560D01*
Y24225D02*
X10508D01*
Y24560D01*
X10591D01*
X10926Y23974D02*
X11010Y23890D01*
X10508D01*
Y23974D02*
Y23806D01*
X10926Y23555D02*
X11010Y23471D01*
Y23304D01*
X10926Y23220D01*
X10842D01*
X10759Y23304D01*
Y23471D01*
X10675Y23555D01*
X10508D01*
Y23220D01*
X10936Y8370D02*
X11020D01*
Y8035D01*
X10936D01*
X10601Y8370D01*
Y8035D02*
X10518D01*
Y8370D01*
X10601D01*
X10685Y7532D02*
Y7867D01*
X10769D01*
X11020Y7616D01*
X10518D01*
X10946Y2400D02*
X11030D01*
Y2065D01*
X10946D01*
X10611Y2400D01*
Y2065D02*
X10528D01*
Y2400D01*
X10611D01*
X10946Y1814D02*
X11030Y1730D01*
X10528D01*
Y1814D02*
Y1646D01*
D13*
X3000Y4960D02*
X-1000D01*
Y18960D01*
X3000D01*
X30210Y10920D02*
Y16040D01*
X29720D01*
X29690D02*
Y15540D01*
X29440D01*
Y16040D01*
X28940D01*
Y10920D01*
X30190D01*
X3000Y18960D02*
Y4960D01*
X42010Y16000D02*
X46010D01*
Y9000D01*
X42010D01*
Y16000D01*
X37650Y24500D02*
X37850D01*
X9440Y6680D02*
X10120D01*
X37850Y24500D02*
Y23500D01*
X37650D01*
X9440Y4680D02*
X10120D01*
X9420Y12620D02*
X10100D01*
X37850Y23500D02*
Y22500D01*
X37650D01*
X9430Y18710D02*
X10110D01*
X9430Y10710D02*
X10110D01*
X9400Y16690D02*
X10080D01*
X9410Y22680D02*
X10090D01*
X9430Y20660D02*
X10110D01*
X9400Y14720D02*
X10080D01*
X9450Y8680D02*
X10130D01*
X35650Y24500D02*
X35850D01*
Y23500D01*
X35650D01*
X35850D02*
Y22500D01*
X35650D01*
X33850Y24500D02*
X33650D01*
Y23500D01*
X33850D01*
X33650D02*
Y22500D01*
X33850D01*
X42010Y8990D02*
X46010D01*
Y3990D01*
X42010D01*
Y8990D01*
Y22000D02*
X46010D01*
Y19000D01*
X42010D01*
Y22000D01*
Y19000D02*
X46010D01*
Y16000D01*
X42010D01*
Y19000D01*
X37740Y20150D02*
Y17650D01*
X39490D01*
Y20150D01*
X37740D01*
X37500Y22000D02*
Y21000D01*
X39500D01*
Y22000D01*
X37500D01*
X39290Y6990D02*
X39490D01*
Y5990D01*
X39290D01*
X39490D02*
Y4990D01*
X39290D01*
X9430Y24720D02*
X10110D01*
X36650Y24500D02*
X36850D01*
Y23500D01*
X36650D01*
X36850D02*
Y22500D01*
X36650D01*
X9460Y2710D02*
X10140D01*
G75*
X37840Y19900D02*
G02I150J0D01*
G01X34850Y19300D02*
G02I150J0D01*
D14*
G01X11600Y25310D02*
X11949D01*
X12065Y25194D01*
Y25078D01*
X11949Y24961D01*
X11716D01*
X11949D02*
X12065Y24845D01*
Y24729D01*
X11949Y24612D01*
X11600D01*
X11716Y25310D02*
Y24612D01*
X12297D02*
Y25310D01*
X12530Y25078D01*
X12762Y25310D01*
Y24612D01*
X12530Y25078D02*
Y24961D01*
X13344D02*
X13111D01*
X12995Y25078D01*
Y25194D01*
X13111Y25310D01*
X13344D01*
X13460Y25194D01*
X13344Y24961D02*
X13460Y24845D01*
Y24729D01*
X13344Y24612D01*
X13111D01*
X12995Y24729D01*
X13692Y24961D02*
X14158D01*
X14390Y24845D02*
X14506Y24961D01*
X14739D01*
X14855Y24845D01*
Y24729D01*
X14739Y24612D01*
X14506D01*
X14390Y24729D01*
Y24845D01*
Y25078D01*
X14622Y25310D01*
X14739D01*
X15204Y24961D02*
X15087Y25078D01*
Y25194D01*
X15204Y25310D01*
X15436D01*
X15553Y25194D01*
Y25078D01*
X15436Y24961D01*
X15204D01*
X15436D02*
X15553Y24845D01*
Y24729D01*
X15436Y24612D01*
X15204D01*
X15087Y24729D01*
Y24845D01*
X15204Y24961D01*
X15785Y24729D02*
Y25194D01*
X15901Y25310D01*
X16134D01*
X16250Y25194D01*
Y24729D01*
X16134Y24612D01*
X15901D01*
X15785Y24729D01*
X16250Y25194D02*
X15785Y24729D01*
X16947Y24845D02*
X16482D01*
Y24961D01*
X16831Y25310D01*
Y24612D01*
X17180Y24961D02*
X17645D01*
X17877Y25194D02*
X17994Y25310D01*
X18226D01*
X18342Y25194D01*
Y25078D01*
X18226Y24961D01*
X17994D01*
X17877Y24845D01*
Y24612D01*
X18342D01*
X19272Y25310D02*
Y24612D01*
Y25310D02*
X19621D01*
X19737Y25194D01*
Y25078D01*
X19621Y24961D01*
X19272D01*
X19389D02*
X19737Y24612D01*
X20319D02*
X20086D01*
X19970Y24729D01*
Y24961D01*
X20086Y25078D01*
X20319D01*
X20435Y24961D01*
Y24845D01*
X19970D01*
X21132Y25078D02*
Y24845D01*
X20900Y24612D01*
X20667Y24845D01*
Y25078D01*
X22062Y24612D02*
Y25078D01*
X22295Y25310D01*
X22527Y25078D01*
Y24612D01*
X22062Y24845D02*
X22527D01*
D15*
X23200Y930D02*
X22760D01*
Y230D01*
X23200D01*
X23560Y930D02*
X24000D01*
Y230D01*
X23560D01*
X23200Y1830D02*
X22760D01*
Y1130D01*
X23200D01*
X23560Y1830D02*
X24000D01*
Y1130D01*
X23560D01*
X24450Y1020D02*
Y580D01*
X25150D01*
Y1020D01*
X24450Y1380D02*
Y1820D01*
X25150D01*
Y1380D01*
X13330Y570D02*
X11790D01*
X13330Y1360D02*
X11750D01*
X18830Y2570D02*
X17290D01*
X18830Y3360D02*
X17250D01*
X7600Y25530D02*
X6810D01*
Y24470D01*
X7600D01*
X8320Y25530D02*
X9110D01*
Y24470D01*
X8320D01*
X9390Y21520D02*
Y21080D01*
X10090D01*
Y21520D01*
X23200Y2930D02*
X22760D01*
Y2230D01*
X23200D01*
X23560Y2930D02*
X24000D01*
Y2230D01*
X23560D01*
X23200Y3830D02*
X22760D01*
Y3130D01*
X23200D01*
X23560Y3830D02*
X24000D01*
Y3130D01*
X23560D01*
X24450Y3030D02*
Y2590D01*
X25150D01*
Y3030D01*
X24450Y3390D02*
Y3830D01*
X25150D01*
Y3390D01*
X30260Y2330D02*
X29820D01*
Y1630D01*
X30260D01*
X30620Y2330D02*
X31060D01*
Y1630D01*
X30620D01*
X30610Y2420D02*
X31050D01*
Y3120D01*
X30610D01*
X30250Y2420D02*
X29810D01*
Y3120D01*
X30250D01*
X27900Y17900D02*
Y17460D01*
X7580Y5480D02*
X6790D01*
Y4420D01*
X7580D01*
X8300Y5480D02*
X9090D01*
Y4420D01*
X8300D01*
X7610Y3500D02*
X6820D01*
Y2440D01*
X7610D01*
X8330Y3500D02*
X9120D01*
Y2440D01*
X8330D01*
X9420Y5520D02*
Y5080D01*
X10120D01*
Y5520D01*
X9420Y6420D02*
Y6860D01*
X10120D01*
X27900Y17460D02*
X28600D01*
X23170Y4910D02*
X22730D01*
Y4210D01*
X23170D01*
X23530Y4910D02*
X23970D01*
Y4210D01*
X23530D01*
X23170Y6910D02*
X22730D01*
Y6210D01*
X23170D01*
X23530Y6910D02*
X23970D01*
Y6210D01*
X23530D01*
X23170Y7810D02*
X22730D01*
Y7110D01*
X23170D01*
X23530Y7810D02*
X23970D01*
Y7110D01*
X23530D01*
X24420Y7010D02*
Y6570D01*
X25120D01*
Y7010D01*
X24420Y7370D02*
Y7810D01*
X25120D01*
Y7370D01*
X23170Y5810D02*
X22730D01*
Y5110D01*
X23170D01*
X23530Y5810D02*
X23970D01*
Y5110D01*
X23530D01*
X24420Y5000D02*
Y4560D01*
X25120D01*
Y5000D01*
X24420Y5360D02*
Y5800D01*
X25120D01*
Y5360D01*
X10120Y6860D02*
Y6420D01*
X9420Y3520D02*
Y3080D01*
X10120D01*
X13300Y4550D02*
X11760D01*
X13300Y5340D02*
X11720D01*
X18800Y6550D02*
X17260D01*
X18800Y7340D02*
X17220D01*
X7580Y7520D02*
X6790D01*
Y6460D01*
X7580D01*
X8300Y7520D02*
X9090D01*
Y6460D01*
X8300D01*
X28600Y17460D02*
Y17900D01*
X10120Y3080D02*
Y3520D01*
X23170Y8890D02*
X22730D01*
Y8190D01*
X23170D01*
X23530Y8890D02*
X23970D01*
Y8190D01*
X23530D01*
X23170Y10890D02*
X22730D01*
Y10190D01*
X23170D01*
X23530Y10890D02*
X23970D01*
Y10190D01*
X23530D01*
X23170Y11790D02*
X22730D01*
Y11090D01*
X23170D01*
X23530Y11790D02*
X23970D01*
Y11090D01*
X23530D01*
X24420Y10990D02*
Y10550D01*
X25120D01*
Y10990D01*
X24420Y11350D02*
Y11790D01*
X25120D01*
Y11350D01*
X23170Y9790D02*
X22730D01*
Y9090D01*
X23170D01*
X23530Y9790D02*
X23970D01*
Y9090D01*
X23530D01*
X24420Y8980D02*
Y8540D01*
X25120D01*
Y8980D01*
X24420Y9340D02*
Y9780D01*
X25120D01*
Y9340D01*
X9420Y4420D02*
Y4860D01*
X9400Y11460D02*
Y11020D01*
X10100D01*
Y11460D01*
X13300Y8530D02*
X11760D01*
X13300Y9320D02*
X11720D01*
X18800Y10530D02*
X17260D01*
X18800Y11320D02*
X17220D01*
X7580Y11500D02*
X6790D01*
Y10440D01*
X7580D01*
X8300Y11500D02*
X9090D01*
Y10440D01*
X8300D01*
X9420Y4860D02*
X10120D01*
Y4420D01*
X9440Y1550D02*
Y1110D01*
X10140D01*
Y1550D01*
X9440Y2450D02*
Y2890D01*
X10140D01*
X27900Y18260D02*
Y18700D01*
X9400Y12360D02*
Y12800D01*
X10100D01*
X7580Y9440D02*
X6790D01*
Y8380D01*
X7580D01*
X8300Y9440D02*
X9090D01*
Y8380D01*
X8300D01*
X10100Y12800D02*
Y12360D01*
X9410Y9550D02*
Y9110D01*
X10110D01*
X27900Y18700D02*
X28600D01*
X10110Y9110D02*
Y9550D01*
X28600Y18700D02*
Y18260D01*
X9410Y10450D02*
Y10890D01*
X10110D01*
Y10450D01*
X7580Y13490D02*
X6790D01*
Y12430D01*
X7580D01*
X8300Y13490D02*
X9090D01*
Y12430D01*
X8300D01*
X23170Y12920D02*
X22730D01*
Y12220D01*
X23170D01*
X23530Y12920D02*
X23970D01*
Y12220D01*
X23530D01*
X23170Y14920D02*
X22730D01*
Y14220D01*
X23170D01*
X23530Y14920D02*
X23970D01*
Y14220D01*
X23530D01*
X23170Y15820D02*
X22730D01*
Y15120D01*
X23170D01*
X23530Y15820D02*
X23970D01*
Y15120D01*
X23530D01*
X24420Y15020D02*
Y14580D01*
X25120D01*
Y15020D01*
X24420Y15380D02*
Y15820D01*
X25120D01*
Y15380D01*
X23170Y13820D02*
X22730D01*
Y13120D01*
X23170D01*
X23530Y13820D02*
X23970D01*
Y13120D01*
X23530D01*
X24420Y13020D02*
Y12580D01*
X25120D01*
Y13020D01*
X24420Y13380D02*
Y13820D01*
X25120D01*
Y13380D01*
X9410Y17550D02*
Y17110D01*
X10110D01*
Y17550D01*
X9410Y18450D02*
Y18890D01*
X10110D01*
Y18450D01*
X13300Y12560D02*
X11760D01*
X13300Y13350D02*
X11720D01*
X18800Y14560D02*
X17260D01*
X18800Y15350D02*
X17220D01*
X7580Y15510D02*
X6790D01*
Y14450D01*
X7580D01*
X8300Y15510D02*
X9090D01*
Y14450D01*
X8300D01*
X23170Y16900D02*
X22730D01*
Y16200D01*
X23170D01*
X23530Y16900D02*
X23970D01*
Y16200D01*
X23530D01*
X23170Y18900D02*
X22730D01*
Y18200D01*
X23170D01*
X23530Y18900D02*
X23970D01*
Y18200D01*
X23530D01*
X23170Y19800D02*
X22730D01*
Y19100D01*
X23170D01*
X23530Y19800D02*
X23970D01*
Y19100D01*
X23530D01*
X24420Y19000D02*
Y18560D01*
X25120D01*
Y19000D01*
X24420Y19360D02*
Y19800D01*
X25120D01*
Y19360D01*
X23170Y17800D02*
X22730D01*
Y17100D01*
X23170D01*
X23530Y17800D02*
X23970D01*
Y17100D01*
X23530D01*
X24420Y16990D02*
Y16550D01*
X25120D01*
Y16990D01*
X24420Y17350D02*
Y17790D01*
X25120D01*
Y17350D01*
X9380Y15530D02*
Y15090D01*
X10080D01*
Y15530D01*
X9380Y16430D02*
Y16870D01*
X10080D01*
Y16430D01*
X13300Y16540D02*
X11760D01*
X13300Y17330D02*
X11720D01*
X28350Y17250D02*
X27910D01*
X18800Y18540D02*
X17260D01*
X18800Y19330D02*
X17220D01*
X7580Y19510D02*
X6790D01*
Y18450D01*
X7580D01*
X8300Y19510D02*
X9090D01*
Y18450D01*
X8300D01*
X9430Y7520D02*
Y7080D01*
X10130D01*
Y7520D01*
X9430Y8420D02*
Y8860D01*
X10130D01*
X7580Y17470D02*
X6790D01*
Y16410D01*
X7580D01*
X8300Y17470D02*
X9090D01*
Y16410D01*
X8300D01*
X9380Y13560D02*
Y13120D01*
X10080D01*
Y13560D01*
X9380Y14460D02*
Y14900D01*
X10080D01*
X27910Y17250D02*
Y16550D01*
X28350D01*
X28710Y17250D02*
X29150D01*
Y16550D01*
X28710D01*
X9390Y22420D02*
Y22860D01*
X10090D01*
Y22420D01*
X23180Y20880D02*
X22740D01*
Y20180D01*
X23180D01*
X23540Y20880D02*
X23980D01*
Y20180D01*
X23540D01*
X23180Y22880D02*
X22740D01*
Y22180D01*
X23180D01*
X23540Y22880D02*
X23980D01*
Y22180D01*
X23540D01*
X23180Y23780D02*
X22740D01*
Y23080D01*
X23180D01*
X23540Y23780D02*
X23980D01*
Y23080D01*
X23540D01*
X24430Y22980D02*
Y22540D01*
X25130D01*
Y22980D01*
X24430Y23340D02*
Y23780D01*
X25130D01*
Y23340D01*
X23180Y21780D02*
X22740D01*
Y21080D01*
X23180D01*
X23540Y21780D02*
X23980D01*
Y21080D01*
X23540D01*
X24430Y20970D02*
Y20530D01*
X25130D01*
Y20970D01*
X24430Y21330D02*
Y21770D01*
X25130D01*
Y21330D01*
X9410Y19500D02*
Y19060D01*
X10110D01*
Y19500D01*
X9410Y20400D02*
Y20840D01*
X10110D01*
Y20400D01*
X13310Y20520D02*
X11770D01*
X13310Y21310D02*
X11730D01*
X18810Y22520D02*
X17270D01*
X18810Y23310D02*
X17230D01*
X7590Y23490D02*
X6800D01*
Y22430D01*
X7590D01*
X8310Y23490D02*
X9100D01*
Y22430D01*
X8310D01*
X7590Y21450D02*
X6800D01*
Y20390D01*
X7590D01*
X8310Y21450D02*
X9100D01*
Y20390D01*
X8310D01*
X10080Y14900D02*
Y14460D01*
X10130Y8860D02*
Y8420D01*
X29840Y19590D02*
Y17870D01*
X32160Y19590D02*
Y17870D01*
X31350Y17670D02*
X31550D01*
X30440D02*
X30640D01*
X30200Y19590D02*
X29840D01*
X31800D02*
X32160D01*
X29100Y21500D02*
Y21060D01*
X29800D01*
Y21500D01*
X29100Y21860D02*
Y22300D01*
X29800D01*
Y21860D01*
X29000Y20850D02*
X28560D01*
Y20150D01*
X29000D01*
X29360Y20850D02*
X29800D01*
Y20150D01*
X29360D01*
X33750Y8400D02*
X33150D01*
Y600D01*
X34850D01*
Y8400D01*
X34250D01*
Y7900D01*
X33750D01*
Y8400D01*
Y12800D02*
X33150D01*
Y9000D01*
X34850D01*
Y12800D01*
X34250D01*
Y12300D01*
X33750D01*
Y12800D01*
X38440Y15650D02*
X38880D01*
Y16350D01*
X38440D01*
X38080Y15650D02*
X37640D01*
Y16350D01*
X38080D01*
X9410Y23560D02*
Y23120D01*
X39230Y11300D02*
Y11740D01*
X38530D01*
Y11300D01*
X39230Y10940D02*
Y10500D01*
X38530D01*
Y10940D01*
X34250Y16880D02*
Y17320D01*
X33550D01*
Y16880D01*
X37100Y10850D02*
X36660D01*
Y10150D01*
X37100D01*
X37460Y10850D02*
X37900D01*
Y10150D01*
X37460D01*
X37100Y9850D02*
X36660D01*
Y9150D01*
X37100D01*
X37460Y9850D02*
X37900D01*
Y9150D01*
X37460D01*
X34250Y16520D02*
Y16080D01*
X36830Y7650D02*
X37270D01*
Y8350D01*
X36830D01*
X36470Y7650D02*
X36030D01*
Y8350D01*
X36470D01*
X36830Y6650D02*
X37270D01*
Y7350D01*
X36830D01*
X36470Y6650D02*
X36030D01*
Y7350D01*
X36470D01*
X36830Y5650D02*
X37270D01*
Y6350D01*
X36830D01*
X36470Y5650D02*
X36030D01*
Y6350D01*
X36470D01*
X36830Y4650D02*
X37270D01*
Y5350D01*
X36830D01*
X36470Y4650D02*
X36030D01*
Y5350D01*
X36470D01*
X36830Y3650D02*
X37270D01*
Y4350D01*
X36830D01*
X36470Y3650D02*
X36030D01*
Y4350D01*
X36470D01*
X34250Y16080D02*
X33550D01*
Y16520D01*
X37260Y13750D02*
X36820D01*
Y13050D01*
X37260D01*
X37620Y13750D02*
X38060D01*
Y13050D01*
X37620D01*
X37260Y12850D02*
X36820D01*
Y12150D01*
X37260D01*
X37620Y12850D02*
X38060D01*
Y12150D01*
X37620D01*
X37260Y14650D02*
X36820D01*
Y13950D01*
X37260D01*
X37620Y14650D02*
X38060D01*
Y13950D01*
X37620D01*
X35250Y16880D02*
Y17320D01*
X34550D01*
Y16880D01*
X35250Y16520D02*
Y16080D01*
X34550D01*
Y16520D01*
X9410Y23120D02*
X10110D01*
Y23560D01*
X9410Y24460D02*
Y24900D01*
X10110D01*
Y24460D01*
X34710Y19600D02*
X35350D01*
Y18300D01*
X34710D01*
Y19600D01*
X10140Y2890D02*
Y2450D01*
%LPC*%
D16*
X26800Y4540D03*
X27600Y2570D03*
X24200Y2560D03*
X24250Y930D03*
X26400Y6530D03*
X26000Y8510D03*
X25600Y10520D03*
X24170Y4540D03*
Y6540D03*
X25200Y12550D03*
X24170Y8520D03*
Y10520D03*
Y12550D03*
X26610Y20510D03*
X24170Y14550D03*
X25600D03*
X27010Y22510D03*
X24170Y16550D03*
Y18550D03*
X26200D03*
X24180Y20510D03*
Y22510D03*
X25810Y16550D03*
X29900Y14450D03*
Y16800D03*
X29400Y13470D03*
X31910Y16600D03*
X35500Y13500D03*
Y13000D03*
X30250Y14060D03*
X32000Y16000D03*
X34900D03*
X30000Y13000D03*
X38910Y10050D03*
X29900Y12400D03*
X29480Y5000D03*
X32900Y8800D03*
X37320Y5000D03*
Y4000D03*
Y5900D03*
Y7000D03*
Y8400D03*
X38200Y13400D03*
X36200Y14060D03*
D17*
X29490Y1980D03*
D18*
X37250Y22500D03*
X32500Y7000D03*
X37250Y23500D03*
X32500Y6000D03*
Y5000D03*
Y4000D03*
Y3000D03*
Y2000D03*
Y1000D03*
X35500D03*
Y2000D03*
Y3000D03*
Y4000D03*
Y5000D03*
Y6000D03*
Y7000D03*
Y8000D03*
X35250Y22500D03*
Y23500D03*
X34250Y22500D03*
Y23500D03*
X32500Y11400D03*
Y10400D03*
Y9400D03*
X35500D03*
Y10400D03*
Y11400D03*
Y12400D03*
X38000Y21500D03*
X39000D03*
X38890Y4990D03*
Y5990D03*
X34200Y11090D03*
X36250Y22500D03*
Y23500D03*
D19*
X4000Y7960D03*
Y8960D03*
Y6960D03*
Y10960D03*
Y9960D03*
Y11960D03*
Y13960D03*
Y12960D03*
Y14960D03*
Y15960D03*
X41010Y13000D03*
Y12000D03*
Y14000D03*
Y10000D03*
X4000Y17960D03*
Y16960D03*
X41010Y11000D03*
Y5990D03*
Y4990D03*
Y6990D03*
Y20000D03*
Y17000D03*
D20*
X10360Y2960D03*
Y960D03*
X20170Y2960D03*
X12850Y2950D03*
X15350Y2960D03*
X14850Y970D03*
X17350D03*
X19850D03*
X10380Y6970D03*
X10330Y4940D03*
X20140Y6940D03*
X12820Y6960D03*
X15320Y6950D03*
X14820Y4960D03*
X17320D03*
X19820Y4950D03*
X10330Y10960D03*
Y8920D03*
X20140Y10920D03*
X12820Y10940D03*
X15320Y10930D03*
X14820Y8950D03*
X17320D03*
X19820Y8940D03*
X10330Y14970D03*
Y12950D03*
X20140Y14950D03*
X12820Y14970D03*
X15320Y14960D03*
X14820Y12950D03*
X17320D03*
X19820D03*
X10330Y18970D03*
Y16930D03*
X20140Y18930D03*
X12820Y18960D03*
X15320Y18950D03*
X14820Y16920D03*
X17320Y16930D03*
X19820Y16940D03*
X10340Y22940D03*
Y20910D03*
X20150Y22910D03*
X12830Y22930D03*
X15330Y22920D03*
X14830Y20940D03*
X17330Y20930D03*
X19830Y20920D03*
D21*
X2000Y24000D03*
X42000D03*
Y2000D03*
X2000D03*
D23*
X32500Y8000D03*
X37250Y24500D03*
X32500Y12400D03*
X35250Y24500D03*
X34250D03*
X38890Y6990D03*
X36250Y24500D03*
D24*
X4000Y5960D03*
X41010Y15000D03*
Y7990D03*
Y21000D03*
Y18000D03*
D25*
X0Y26000D03*
D26*
X23100Y580D03*
X23650D03*
X23100Y2580D03*
X23650D03*
X23100Y3480D03*
X23650D03*
X24800Y2930D03*
Y3480D03*
X23100Y1480D03*
X23650D03*
X24800Y920D03*
Y1470D03*
X29450Y21400D03*
Y21950D03*
X28250Y17800D03*
X30710Y2770D03*
X30160Y1980D03*
X30710D03*
X30160Y2770D03*
X28900Y20500D03*
X29450D03*
X28250Y18350D03*
X23070Y4560D03*
X23620D03*
X23070Y6560D03*
X23620D03*
X23070Y7460D03*
X23620D03*
X24770Y6910D03*
Y7460D03*
X23070Y5460D03*
X23620D03*
X24770Y4900D03*
Y5450D03*
X23070Y8540D03*
X23620D03*
X23070Y10540D03*
X23620D03*
X23070Y11440D03*
X23620D03*
X24770Y10890D03*
Y11440D03*
X23070Y9440D03*
X23620D03*
X24770Y8880D03*
Y9430D03*
X23070Y12570D03*
X23620D03*
X23070Y14570D03*
X23620D03*
X23070Y15470D03*
X23620D03*
X24770Y14920D03*
Y15470D03*
X23070Y13470D03*
X23620D03*
X24770Y12920D03*
Y13470D03*
X23070Y16550D03*
X23620D03*
X23070Y18550D03*
X23620D03*
X23070Y19450D03*
X23620D03*
X24770Y18900D03*
Y19450D03*
X23070Y17450D03*
X23620D03*
X24770Y16890D03*
Y17440D03*
X28250Y16900D03*
X28800D03*
X23080Y20530D03*
X23630D03*
X23080Y22530D03*
X23630D03*
X23080Y23430D03*
X23630D03*
X24780Y22880D03*
Y23430D03*
X23080Y21430D03*
X23630D03*
X24780Y20870D03*
Y21420D03*
X38540Y16000D03*
X37990D03*
X33900Y16980D03*
Y16430D03*
X38880Y11400D03*
X36930Y7000D03*
X37000Y10500D03*
X37550D03*
X38880Y10850D03*
X36380Y7000D03*
X36930Y6000D03*
X36380D03*
X36930Y8000D03*
X37000Y9500D03*
X37550D03*
X36380Y8000D03*
X36930Y5000D03*
X36380D03*
X36930Y4000D03*
X36380D03*
X34900Y16980D03*
X37160Y13400D03*
X37710D03*
X37160Y12500D03*
X37710D03*
X37160Y14300D03*
X37710D03*
X34900Y16430D03*
D27*
X9760Y20300D03*
Y19640D03*
X9730Y16330D03*
Y15670D03*
X9740Y22320D03*
Y21660D03*
X9770Y6320D03*
Y5660D03*
Y4320D03*
X9790Y2350D03*
X9770Y3660D03*
X9790Y1690D03*
X9780Y8320D03*
Y7660D03*
X9750Y12260D03*
Y11600D03*
X9760Y10350D03*
Y9690D03*
Y18350D03*
X9730Y14360D03*
Y13700D03*
X9760Y17690D03*
Y24360D03*
Y23700D03*
D28*
X31000Y17400D03*
X31910D03*
X30090D03*
D29*
X37240Y19900D03*
Y17900D03*
X39890Y19900D03*
Y17900D03*
D30*
X34300Y19400D03*
Y18400D03*
X35770Y19400D03*
Y18400D03*
D31*
X22000Y580D03*
Y1330D03*
Y2580D03*
Y3330D03*
X21970Y4560D03*
Y5310D03*
Y6560D03*
Y7310D03*
Y8540D03*
Y9290D03*
Y10540D03*
Y11290D03*
Y12570D03*
Y13320D03*
Y14570D03*
Y15320D03*
Y16550D03*
Y17300D03*
Y18550D03*
Y19300D03*
X21980Y20530D03*
Y21280D03*
Y22530D03*
Y23280D03*
D32*
X13720Y960D03*
X11320D03*
X19220Y2960D03*
X16820D03*
X13690Y4940D03*
X11290D03*
X19190Y6940D03*
X16790D03*
X13690Y8920D03*
X11290D03*
X19190Y10920D03*
X16790D03*
X13690Y12950D03*
X11290D03*
X19190Y14950D03*
X16790D03*
X13690Y16930D03*
X11290D03*
X19190Y18930D03*
X16790D03*
X13700Y20910D03*
X11300D03*
X19200Y22910D03*
X16800D03*
D33*
X7340Y25000D03*
X8590D03*
X7320Y4950D03*
X8570D03*
X7350Y2970D03*
X8600D03*
X7320Y6990D03*
X8570D03*
X7320Y10970D03*
X8570D03*
X7320Y8910D03*
X8570D03*
X7320Y12960D03*
X8570D03*
X7320Y14980D03*
X8570D03*
X7320Y18980D03*
X8570D03*
X7320Y16940D03*
X8570D03*
X7330Y22960D03*
X8580D03*
X7330Y20920D03*
X8580D03*
D34*
X28250Y12690D03*
Y12890D03*
Y13080D03*
Y13280D03*
Y13480D03*
Y13670D03*
Y13870D03*
Y14070D03*
Y14260D03*
Y14460D03*
Y14660D03*
Y14850D03*
Y15050D03*
Y15250D03*
Y15440D03*
Y15640D03*
Y11510D03*
Y11710D03*
Y11900D03*
Y12100D03*
Y12300D03*
Y12490D03*
X30900Y11900D03*
Y12100D03*
Y12290D03*
Y12490D03*
Y12690D03*
Y12880D03*
Y13080D03*
Y13280D03*
Y13470D03*
Y13670D03*
Y13870D03*
Y14060D03*
Y14260D03*
Y14460D03*
Y14650D03*
Y14850D03*
X28250Y11310D03*
Y11120D03*
X30900D03*
Y11310D03*
Y11510D03*
Y11700D03*
Y15050D03*
Y15250D03*
Y15440D03*
Y15640D03*
D35*
X21210Y960D03*
Y2960D03*
X21180Y4940D03*
Y6940D03*
Y8920D03*
Y10920D03*
Y12950D03*
Y14950D03*
Y16930D03*
Y18930D03*
X21190Y20910D03*
Y22910D03*
D36*
X31000Y19880D03*
%LPD*%
D22*
X0Y26000D02*
X45000D01*
Y0D01*
X0D01*
Y26000D01*
M02*
