G04*
G04 Format:               Gerber RS-274X*
G04 Layer:                BottomCopper*
G04 This File Name:       bms.gbl*
G04 Source File Name:     bms.rrb*
G04 Unique ID:            f0a94124-7116-492a-8d2f-4ebec7e5445f*
G04 Generated Date:       Thursday, 13 March 2014 15:34:31*
G04*
G04 Created Using:        Robot Room Copper Connection v2.5.5143*
G04 Software Contact:     http://www.robotroom.com/CopperConnection/Support.aspx*
G04 License Number:       1402*
G04*
G04 Zero Suppression:     Leading*
G04 Number Precision:     2.4*
G04*
%FSLAX24Y24*%
%MOIN*%
%LNBottomCopper*%
%ADD10C,.008*%
%ADD11C,.01*%
%ADD12C,.012*%
%ADD13C,.03*%
%ADD14C,.031*%
%ADD15C,.037*%
%ADD16C,.05*%
%ADD17C,.056*%
%ADD18C,.07*%
%ADD19C,.08*%
%ADD20C,.1*%
%ADD21C,.25*%
%ADD22R,.006X.006*%
%ADD23R,.056X.056*%
%ADD24R,.07X.07*%
%ADD25R,.03X.03*%
G36*
G01X36250Y3500D02*
X39800D01*
Y300D01*
X36250D01*
Y3500D01*
G37*
G36*
X27500Y19500D02*
X28750D01*
Y5250D01*
X27500D01*
Y19500D01*
G37*
G36*
X28100Y12000D02*
X31900D01*
Y1900D01*
X28100D01*
Y12000D01*
G37*
G36*
X28100Y5100D02*
X33700D01*
Y100D01*
X28100D01*
Y5100D01*
G37*
G36*
X36750Y20750D02*
X40000D01*
Y10750D01*
X36750D01*
Y20750D01*
G37*
G36*
X32500Y21500D02*
X37250D01*
Y15750D01*
X32500D01*
Y21500D01*
G37*
G36*
X27500Y25500D02*
X32750D01*
Y17250D01*
X27500D01*
Y25500D01*
G37*
D10*
X24200Y2560D02*
X27600Y2570D01*
X24170Y4540D02*
X26800D01*
X24170Y6540D02*
X26400Y6530D01*
X24170Y8520D02*
X26000Y8510D01*
X24170Y10520D02*
X25600D01*
X24170Y12550D02*
X25200D01*
X24180Y22510D02*
X27010D01*
X24180Y20510D02*
X26610D01*
X24170Y18550D02*
X26200D01*
X24170Y14550D02*
X25600D01*
X24170Y16550D02*
X25810D01*
X29900Y14450D02*
Y16800D01*
X31910Y16600D02*
X30250D01*
Y14060D01*
Y13470D01*
X29400D01*
X38890Y6990D02*
X38910Y10050D01*
X35500Y11400D02*
X34900D01*
X34200Y11090D02*
Y3000D01*
X35500D01*
X32500Y7000D02*
X31700D01*
X32500Y9400D02*
X31700D01*
X32500Y6000D02*
X33280D01*
X31700Y9400D02*
Y8800D01*
X32500Y10400D02*
X33280D01*
X32900Y8800D02*
X31700D01*
X33280Y10400D02*
Y6000D01*
X37320Y8400D02*
Y7000D01*
Y4000D02*
Y5000D01*
Y5900D01*
Y7000D01*
X31700Y8800D02*
Y7000D01*
X34900Y11400D02*
Y8000D01*
X35500D01*
X31700Y7000D02*
Y5000D01*
X30000Y13000D02*
X31000D01*
X29900Y12400D02*
X31600D01*
X31000Y13000D02*
Y13500D01*
X35500D01*
X31600Y12400D02*
Y13000D01*
X35500D01*
D11*
X39810Y11000D02*
X41010D01*
X39810Y7990D02*
X41010D01*
X39800Y15000D02*
X41010D01*
X39810Y12990D02*
X41010Y13000D01*
X38890Y4990D02*
X39800Y5000D01*
X32500D02*
X31700D01*
X29480D02*
X31700D01*
X32500D02*
X33600D01*
X30250Y14060D02*
X36200D01*
X33600Y5000D02*
Y11890D01*
X38200Y11900D01*
D12*
X41010Y20000D02*
X42010D01*
Y17000D01*
X41010D01*
D13*
X24250Y930D02*
Y1980D01*
D14*
X26800Y4540D03*
X27600Y2570D03*
X24200Y2560D03*
X24250Y930D03*
X26400Y6530D03*
X26000Y8510D03*
X25600Y10520D03*
X24170Y4540D03*
Y6540D03*
X25200Y12550D03*
X24170Y8520D03*
Y10520D03*
Y12550D03*
X26610Y20510D03*
X24170Y14550D03*
X25600D03*
X27010Y22510D03*
X24170Y16550D03*
Y18550D03*
X26200D03*
X24180Y20510D03*
Y22510D03*
X25810Y16550D03*
X29900Y14450D03*
Y16800D03*
X29400Y13470D03*
X31910Y16600D03*
X35500Y13500D03*
Y13000D03*
X30250Y14060D03*
X32000Y16000D03*
X34900D03*
X30000Y13000D03*
X38910Y10050D03*
X29900Y12400D03*
X29480Y5000D03*
X32900Y8800D03*
X37320Y5000D03*
Y4000D03*
Y5900D03*
Y7000D03*
Y8400D03*
X38200Y13400D03*
X36200Y14060D03*
D15*
X29490Y1980D03*
D16*
X10360Y960D02*
X10370Y1980D01*
X24250D01*
X29490D02*
X24250D01*
X36250Y22500D02*
X37250D01*
X32000Y16000D02*
X34250D01*
X39810Y330D02*
X32500D01*
X34250Y22500D02*
X35250D01*
X39810Y12990D02*
Y11000D01*
Y7990D02*
Y11000D01*
X39800Y15000D02*
Y13400D01*
X39810Y7990D02*
X39800Y5000D01*
X32500D02*
Y4000D01*
X29490Y1980D02*
X32500Y2000D01*
Y4000D02*
Y3000D01*
Y2000D01*
X39800Y5000D02*
X39810Y330D01*
Y12990D02*
X39800Y13400D01*
X38200D02*
X39800D01*
X38200Y11900D02*
Y13400D01*
X34900Y16000D02*
X38200D01*
X34250D02*
X34900D01*
X38200D02*
Y13400D01*
X32500Y2000D02*
Y1000D01*
Y330D01*
X35250Y22500D02*
X36250D01*
D17*
X37250Y22500D03*
X32500Y7000D03*
X37250Y23500D03*
X32500Y6000D03*
Y5000D03*
Y4000D03*
Y3000D03*
Y2000D03*
Y1000D03*
X35500D03*
Y2000D03*
Y3000D03*
Y4000D03*
Y5000D03*
Y6000D03*
Y7000D03*
Y8000D03*
X35250Y22500D03*
Y23500D03*
X34250Y22500D03*
Y23500D03*
X32500Y11400D03*
Y10400D03*
Y9400D03*
X35500D03*
Y10400D03*
Y11400D03*
Y12400D03*
X38000Y21500D03*
X39000D03*
X38890Y4990D03*
Y5990D03*
X34200Y11090D03*
X36250Y22500D03*
Y23500D03*
D18*
X4000Y7960D03*
Y8960D03*
Y6960D03*
Y10960D03*
Y9960D03*
Y11960D03*
Y13960D03*
Y12960D03*
Y14960D03*
Y15960D03*
X41010Y13000D03*
Y12000D03*
Y14000D03*
Y10000D03*
X4000Y17960D03*
Y16960D03*
X41010Y11000D03*
Y5990D03*
Y4990D03*
Y6990D03*
Y20000D03*
Y17000D03*
D19*
X13740Y1000D02*
X14850Y970D01*
X5980Y960D02*
X10360D01*
X14850Y970D02*
X17350D01*
X19850D01*
X10360Y960D02*
X11260Y940D01*
X19850Y970D02*
X23230Y1000D01*
X5940Y2980D02*
X10360Y2960D01*
X19170Y2950D02*
X20170Y2960D01*
X10360D02*
X12850Y2950D01*
X15350Y2960D01*
X20170D02*
X23230D01*
X15350D02*
X16770Y2990D01*
X6000Y4940D02*
X10330D01*
X11260D01*
X13700Y4970D02*
X14820Y4960D01*
X17320D01*
X19820Y4950D01*
X23310Y4970D01*
X5900Y8900D02*
X10330Y8920D01*
X11200D01*
X5900Y12940D02*
X10330Y12950D01*
X11300Y12940D01*
X6100Y16910D02*
X10330Y16930D01*
X11400Y16920D01*
X6000Y20900D02*
X10340Y20910D01*
X11300Y20900D01*
X13600Y8960D02*
X14820Y8950D01*
X17320D01*
X19820Y8940D01*
X23210Y8960D01*
X13500Y12940D02*
X14820Y12950D01*
X17320D01*
X19820D01*
X23110Y12940D01*
X13600Y16940D02*
X14820Y16920D01*
X17320Y16930D01*
X19820Y16940D01*
X23210D01*
X13600Y20960D02*
X14830Y20940D01*
X17330Y20930D01*
X19830Y20920D01*
X23210Y20940D01*
X5900Y6980D02*
X10380Y6970D01*
X12820Y6960D01*
X15320Y6950D01*
X16730D01*
X5900Y10940D02*
X10330Y10960D01*
X12820Y10940D01*
X15320Y10930D01*
X16730Y10950D01*
X6000Y15000D02*
X10330Y14970D01*
X12820D01*
X15320Y14960D01*
X16830Y14990D01*
X5900Y18960D02*
X10330Y18970D01*
X12820Y18960D01*
X15320Y18950D01*
X16730Y18970D01*
X20140Y6940D02*
X23200Y6930D01*
X19140Y6910D02*
X20140Y6940D01*
X6000Y22940D02*
X10340D01*
X12830Y22930D01*
X15330Y22920D01*
X16830Y22950D01*
X20140Y10920D02*
X23200Y10900D01*
X19140Y10890D02*
X20140Y10920D01*
Y14950D02*
X23200Y14960D01*
X19140D02*
X20140Y14950D01*
Y18930D02*
X23200Y18940D01*
X19140Y18930D02*
X20140D01*
X20150Y22910D02*
X23100Y22900D01*
X19040Y22910D02*
X20150D01*
D20*
X10360Y2960D03*
Y960D03*
X20170Y2960D03*
X12850Y2950D03*
X15350Y2960D03*
X14850Y970D03*
X17350D03*
X19850D03*
X10380Y6970D03*
X10330Y4940D03*
X20140Y6940D03*
X12820Y6960D03*
X15320Y6950D03*
X14820Y4960D03*
X17320D03*
X19820Y4950D03*
X10330Y10960D03*
Y8920D03*
X20140Y10920D03*
X12820Y10940D03*
X15320Y10930D03*
X14820Y8950D03*
X17320D03*
X19820Y8940D03*
X10330Y14970D03*
Y12950D03*
X20140Y14950D03*
X12820Y14970D03*
X15320Y14960D03*
X14820Y12950D03*
X17320D03*
X19820D03*
X10330Y18970D03*
Y16930D03*
X20140Y18930D03*
X12820Y18960D03*
X15320Y18950D03*
X14820Y16920D03*
X17320Y16930D03*
X19820Y16940D03*
X10340Y22940D03*
Y20910D03*
X20150Y22910D03*
X12830Y22930D03*
X15330Y22920D03*
X14830Y20940D03*
X17330Y20930D03*
X19830Y20920D03*
D21*
X2000Y24000D03*
X42000D03*
Y2000D03*
X2000D03*
D23*
X32500Y8000D03*
X37250Y24500D03*
X32500Y12400D03*
X35250Y24500D03*
X34250D03*
X38890Y6990D03*
X36250Y24500D03*
D24*
X4000Y5960D03*
X41010Y15000D03*
Y7990D03*
Y21000D03*
Y18000D03*
D25*
X11260Y940D03*
Y4940D03*
X5980Y960D03*
X13740Y1000D03*
X23230D03*
Y2960D03*
X5940Y2980D03*
X16770Y2990D03*
X23310Y4970D03*
X19170Y2950D03*
X13700Y4970D03*
X6000Y4940D03*
X11300Y12940D03*
X11400Y16920D03*
X11300Y20900D03*
X5900Y8900D03*
X13600Y8960D03*
X5900Y12940D03*
X11200Y8920D03*
X6100Y16910D03*
X6000Y20900D03*
X23210Y8960D03*
X13500Y12940D03*
X23110D03*
X13600Y16940D03*
X23210D03*
X13600Y20960D03*
X23210Y20940D03*
X5900Y6980D03*
X16730Y6950D03*
X5900Y10940D03*
X16730Y10950D03*
X6000Y15000D03*
X16830Y14990D03*
X5900Y18960D03*
X16730Y18970D03*
X6000Y22940D03*
X16830Y22950D03*
X23200Y6930D03*
X19140Y6910D03*
X23200Y10900D03*
X19140Y10890D03*
X23200Y14960D03*
X19140D03*
X23200Y18940D03*
X19140Y18930D03*
X23100Y22900D03*
X19040Y22910D03*
D22*
X0Y26000D02*
X45000D01*
Y0D01*
X0D01*
Y26000D01*
M02*
