M48
;
; Format:               Excellon NC Drill Ascii
; This File Name:       bmsE.txt
; Source File Name:     bmsE.rrb
; Unique ID:            bca468ea-87cd-4f63-8e83-bbeb9de39dea
; Generated Date:       Saturday, 23 August 2014 16:22:35
;
; Created Using:        Robot Room Copper Connection v2.6.5209
; Software Contact:     http://www.robotroom.com/CopperConnection/Support.aspx
; License Number:       1402
;
; Zero Suppression:     Trailing
; Number Precision:     2.4
;
FMAT,2
INCH,LZ
T01C.014
T02C.02
T03C.029
T04C.035
T05C.125
%
T01
X0387Y00456
X03867Y00654
Y00854
Y01052
X0405Y01051
X0409Y00853
X0413Y00654
X0421Y00457
X04398Y007
X0474Y0108
X05182Y0104
Y009
Y0079
Y007
Y006
X05338Y01205
X0527Y0154
X0509Y01606
X05Y0155
Y015
X0494Y018
X0465
X04641Y0186
X0444Y0188
Y01645
X04475Y01606
X0439Y01547
X0445Y015
X0444Y0144
X0401Y01252
X03867
Y01455
X0397
X0401Y01655
X03867
Y01855
X04031
X0407Y02055
X04111Y02251
X04151Y02451
X03868
Y02251
X03867Y02055
T02
X04399Y00398
T03
X005Y004
Y006
Y008
Y01
Y012
Y014
Y016
Y018
Y02
Y022
Y024
Y026
X009
Y024
Y022
Y02
Y018
Y016
Y014
Y012
Y01
Y008
Y006
Y004
X015Y0065
X017Y0085
X018Y009
X015Y0105
Y0145
Y0185
X017Y02025
X018Y021
X015Y0225
Y027
X02Y0255
Y0245
X0255Y02125
X027Y0205
X029Y02126
X0325Y0205
Y0165
Y0125
Y0085
X029Y00926
X027Y0085
X0255Y00925
X027Y0125
Y0165
Y0245
X0325
X037Y02392
Y01994
Y01594
Y01194
Y00796
Y00396
X0325Y0045
X029Y0017
X027Y0045
X0255Y0025
X018Y0017
X017Y0025
X047Y003
Y004
Y005
Y006
Y007
Y008
Y009
Y01
Y0114
Y0124
Y0134
Y0144
X0487Y01309
X05Y0134
Y0144
Y0124
Y0114
Y01
Y009
Y008
Y007
Y006
Y005
Y004
Y003
T04
X004Y009
Y01
Y011
Y012
Y013
Y014
Y015
Y016
Y017
Y018
Y019
Y02
Y021
X01Y0215
X011Y0195
X01Y0175
X011Y0155
X01Y0135
X011Y0115
X01Y0095
X011Y0075
X01Y0055
X011Y0035
X015
X016
Y0075
X015
Y0115
X016
X02
X021Y0095
X022
X023Y0115
X022Y0135
X021
X02Y0155
X021Y0175
X022
X023Y0195
X022Y0215
X021
X02Y0195
X016
X015
Y0155
X016
X023
X027
X028
Y0195
X027
Y0235
X028
X032
X033Y0255
Y0215
X032Y0195
X033Y0175
X032Y0155
X033Y0135
X032Y0115
X033Y0095
X032Y0075
X033Y0055
X032Y0035
Y0025
X028Y0035
X027
Y0075
X028
Y0115
X027
X023Y0075
X022Y0055
X021
X02Y0035
X023
X02Y0075
Y0235
X021Y0255
X022
X023Y0235
X016
X015
X011
X01Y0255
X04875
Y0245
X04975
Y0255
Y0265
X04875
X05075
X05175
Y0255
X05075
Y0245
X05175
X0525Y02352
X0535
X0555Y023
Y022
Y02
Y019
Y017
Y016
Y015
Y014
Y013
Y012
Y01
Y009
Y008
Y007
X0534
Y008
Y009
T05
X002Y002
Y028
X0575
Y002
M30
