G04*
G04 Format:               Gerber RS-274X*
G04 Layer:                BottomSolderMask*
G04 This File Name:       bmsE.gbs*
G04 Source File Name:     bmsE.rrb*
G04 Unique ID:            bca468ea-87cd-4f63-8e83-bbeb9de39dea*
G04 Generated Date:       Saturday, 23 August 2014 16:22:35*
G04*
G04 Created Using:        Robot Room Copper Connection v2.6.5209*
G04 Software Contact:     http://www.robotroom.com/CopperConnection/Support.aspx*
G04 License Number:       1402*
G04*
G04 Zero Suppression:     Leading*
G04 Number Precision:     2.4*
G04*
G04 Polarity:             Negative. Dark is solderable. Clear space is coating.*
G04*
%FSLAX24Y24*%
%MOIN*%
%LNBottomSolderMask*%
%ADD10C,.041*%
%ADD11C,.047*%
%ADD12C,.066*%
%ADD13C,.075*%
%ADD14C,.09*%
%ADD15C,.26*%
%ADD16R,.006X.006*%
%ADD17R,.066X.066*%
%ADD18R,.075X.075*%
%ADD19R,.09X.09*%
D10*
G01X41300Y6540D03*
X42100Y4570D03*
X38700Y4560D03*
X40900Y8530D03*
X40500Y10510D03*
X40100Y12520D03*
X38670Y6540D03*
Y8540D03*
X39700Y14550D03*
X38670Y10520D03*
Y12520D03*
Y14550D03*
X41110Y22510D03*
X38670Y16550D03*
X40100D03*
X41510Y24510D03*
X38670Y18550D03*
Y20550D03*
X40700D03*
X38680Y22510D03*
Y24510D03*
X40310Y18550D03*
X44400Y16450D03*
Y18800D03*
X43900Y15470D03*
X46410Y18600D03*
X50000Y15500D03*
Y15000D03*
X44750Y16060D03*
X46500Y18000D03*
X49400D03*
X44500Y15000D03*
X53380Y12050D03*
X44400Y14400D03*
X43980Y7000D03*
X47400Y10800D03*
X51820Y7000D03*
Y6000D03*
Y7900D03*
Y9000D03*
Y10400D03*
X52700Y15400D03*
X50900Y16060D03*
D11*
X43990Y3980D03*
D12*
X37000Y23920D03*
Y19940D03*
X20000Y25500D03*
X15000Y27000D03*
X20000Y24500D03*
X47000Y9000D03*
X27000Y24500D03*
X15000Y22500D03*
X27000Y20500D03*
X15000Y18500D03*
Y14500D03*
X27000Y16500D03*
X15000Y10500D03*
X27000Y12500D03*
Y8500D03*
X15000Y6500D03*
X37000Y15940D03*
Y11940D03*
Y7960D03*
Y3960D03*
X27000Y4500D03*
X32500Y20500D03*
Y24500D03*
X5000Y26000D03*
X9000D03*
X5000Y24000D03*
X9000D03*
X5000Y22000D03*
X9000D03*
X5000Y20000D03*
X9000D03*
X5000Y18000D03*
X9000D03*
X5000Y16000D03*
X9000D03*
X5000Y14000D03*
X9000D03*
X5000Y12000D03*
X9000D03*
X5000Y10000D03*
X9000D03*
X5000Y8000D03*
X9000D03*
X5000Y6000D03*
X9000D03*
X5000Y4000D03*
X9000D03*
X32500Y16500D03*
Y12500D03*
Y8500D03*
Y4500D03*
X47000Y8000D03*
Y7000D03*
Y6000D03*
Y5000D03*
X25500Y9250D03*
X47000Y4000D03*
Y3000D03*
X50000D03*
Y4000D03*
Y5000D03*
Y6000D03*
Y7000D03*
Y8000D03*
Y9000D03*
Y10000D03*
X17000Y8500D03*
Y2500D03*
Y20250D03*
X25500Y21250D03*
X47000Y13400D03*
Y12400D03*
Y11400D03*
X50000D03*
Y12400D03*
Y13400D03*
Y14400D03*
X25500Y2500D03*
X29000Y1700D03*
X18000D03*
Y21000D03*
Y9000D03*
X29000Y9260D03*
Y21260D03*
X48700Y13090D03*
D13*
X51750Y24500D03*
Y25500D03*
X52500Y23520D03*
X53500D03*
X50750Y24500D03*
Y25500D03*
X21000Y17500D03*
Y25500D03*
X32000Y2500D03*
X10000Y25500D03*
X49750Y24500D03*
X21000Y21500D03*
X10000D03*
X16000Y19500D03*
X20000D03*
X15000D03*
X11000D03*
X10000Y17500D03*
X33000Y21500D03*
X22000D03*
X28000Y19500D03*
X32000D03*
X27000D03*
X23000D03*
X49750Y25500D03*
X16000Y23500D03*
X20000D03*
X33000Y25500D03*
X22000D03*
X15000Y23500D03*
X11000D03*
X33000Y17500D03*
X22000D03*
X21000Y13500D03*
X10000D03*
X33000D03*
X22000D03*
X21000Y9500D03*
X16000Y15500D03*
X20000D03*
X15000D03*
X11000D03*
X10000Y9500D03*
X33000D03*
X22000D03*
X28000Y15500D03*
X32000D03*
X21000Y5500D03*
X10000D03*
X27000Y15500D03*
X23000D03*
X33000Y5500D03*
X22000D03*
X28000Y23500D03*
X32000D03*
X27000D03*
X23000D03*
X16000Y11500D03*
X20000D03*
X15000D03*
X11000D03*
X28000D03*
X32000D03*
X27000D03*
X23000D03*
X16000Y7500D03*
X20000D03*
X15000D03*
X11000D03*
X28000D03*
X32000D03*
X27000D03*
X23000D03*
X48750Y24500D03*
Y25500D03*
X16000Y3500D03*
X20000D03*
X15000D03*
X11000D03*
X53400Y7000D03*
Y8000D03*
X28000Y3500D03*
X32000D03*
X27000D03*
X23000D03*
D14*
X55500Y8000D03*
Y7000D03*
Y9000D03*
X4000Y11000D03*
X55500Y22000D03*
Y19000D03*
Y15000D03*
Y14000D03*
Y16000D03*
Y12000D03*
Y13000D03*
X4000Y12000D03*
Y10000D03*
Y14000D03*
Y13000D03*
Y15000D03*
Y17000D03*
Y16000D03*
Y18000D03*
Y19000D03*
Y21000D03*
Y20000D03*
D15*
X2000Y28000D03*
X57500D03*
Y2000D03*
X2000D03*
D17*
X47000Y10000D03*
Y14400D03*
D18*
X51750Y26500D03*
X50750D03*
X49750D03*
X48750D03*
X53400Y9000D03*
D19*
X55500Y10000D03*
X4000Y9000D03*
X55500Y23000D03*
Y17000D03*
Y20000D03*
D16*
X0Y30000D02*
X59500D01*
Y0D01*
X0D01*
Y30000D01*
M02*
