G04*
G04 Format:               Gerber RS-274X*
G04 Layer:                TopCopper*
G04 This File Name:       bmsE.gtl*
G04 Source File Name:     bmsE.rrb*
G04 Unique ID:            bca468ea-87cd-4f63-8e83-bbeb9de39dea*
G04 Generated Date:       Saturday, 23 August 2014 16:22:35*
G04*
G04 Created Using:        Robot Room Copper Connection v2.6.5209*
G04 Software Contact:     http://www.robotroom.com/CopperConnection/Support.aspx*
G04 License Number:       1402*
G04*
G04 Zero Suppression:     Leading*
G04 Number Precision:     2.4*
G04*
%FSLAX24Y24*%
%MOIN*%
%LNTopCopper*%
%ADD10C,.008*%
%ADD11C,.01*%
%ADD12C,.012*%
%ADD13C,.02*%
%ADD14C,.025*%
%ADD15C,.03*%
%ADD16C,.031*%
%ADD17C,.037*%
%ADD18C,.05*%
%ADD19C,.056*%
%ADD20C,.065*%
%ADD21C,.08*%
%ADD22C,.25*%
%ADD23R,.006X.006*%
%ADD24R,.056X.056*%
%ADD25R,.065X.065*%
%ADD26R,.08X.08*%
%ADD27R,.02X.026*%
%ADD28R,.03X.03*%
%ADD29R,.04X.06*%
%ADD30R,.045X.08*%
%ADD31R,.053X.039*%
%ADD32R,.059X.039*%
%ADD33R,.08X.01*%
%ADD34R,.13X.065*%
G36*
G01X44500Y24800D02*
X46900D01*
Y19900D01*
X44500D01*
Y24800D01*
G37*
G36*
X43100Y27200D02*
X46900D01*
Y24300D01*
X43100D01*
Y27200D01*
G37*
D10*
X39270Y2920D02*
X45200D01*
X45400Y13120D02*
X45710D01*
X45730Y2580D01*
X38150D01*
X43990Y3980D02*
X44660D01*
X45210D02*
Y4770D01*
X39270Y3470D02*
X43670D01*
X44810Y13310D02*
Y5950D01*
X45210D01*
X43990Y4770D02*
X44660D01*
X45210Y5950D02*
Y4770D01*
X45400Y14100D02*
X44800D01*
X45400Y13310D02*
X44810D01*
X45400Y14290D02*
X44800Y14300D01*
X42750Y13310D02*
X42100D01*
X43670Y3470D02*
Y13130D01*
X42750Y13120D01*
X42100Y13310D02*
Y4570D01*
X39270Y5480D02*
X41900D01*
Y13510D01*
X41300Y6540D02*
X41700Y6530D01*
X41900Y13510D02*
X42750D01*
X41700Y13710D02*
X42750D01*
X41700D02*
Y6530D01*
X41500Y7460D02*
Y13900D01*
X42750D01*
X41100Y9460D02*
X39270D01*
X41300Y14100D02*
X42750D01*
X40900Y8530D02*
X41300Y8520D01*
Y14100D01*
X41100Y9460D02*
Y14310D01*
X42750Y14300D01*
X40500Y10510D02*
X40900D01*
X42750Y14690D02*
X40700D01*
X40900Y10510D02*
Y14490D01*
X50750Y26500D02*
X51750D01*
X40900Y14490D02*
X42750D01*
X40700Y14690D02*
Y11430D01*
X39270D01*
X40100Y12520D02*
X40500D01*
X40300Y13440D02*
Y15090D01*
X40500Y12520D02*
Y14890D01*
X42750D01*
X40300Y15090D02*
X42750Y15080D01*
X39700Y14550D02*
X40100D01*
X47540Y25010D02*
Y17440D01*
X40100Y14550D02*
Y15280D01*
X42750D01*
X51750Y25500D02*
X51250Y25000D01*
X42100Y17450D02*
X42750Y17440D01*
X45400Y17640D02*
X47290D01*
X42750Y15480D02*
X39270Y15470D01*
X51250Y25000D02*
Y23500D01*
X42100Y17450D02*
Y25430D01*
X45200Y2920D02*
X45210Y3980D01*
X41510Y24510D02*
X41900Y24520D01*
Y17260D01*
X51250Y23500D02*
X48000D01*
X41900Y17260D02*
X42750Y17250D01*
X41700Y23420D02*
Y17060D01*
X42750Y17050D01*
X41110Y22510D02*
X41500D01*
X39270Y21450D02*
X41300Y21460D01*
X41500Y22510D02*
Y16860D01*
X42750Y16850D01*
X41300Y21460D02*
Y16670D01*
X42750Y16660D01*
X40700Y20550D02*
X41100D01*
X39270Y19440D02*
X40900D01*
X41100Y20550D02*
Y16470D01*
X42750Y16460D01*
X40900Y19440D02*
Y16260D01*
X42750D01*
X40310Y18550D02*
X40700D01*
X39270Y17470D02*
X40500D01*
X40700Y18550D02*
Y16080D01*
X42750Y16070D01*
Y15670D02*
X40100Y15680D01*
X40500Y17470D02*
Y15880D01*
X42750Y15870D01*
X40100Y15680D02*
Y16550D01*
X45400Y15670D02*
X44400D01*
X51740Y19900D02*
X51380D01*
X44590Y19400D02*
Y18800D01*
X46410Y19400D02*
Y18600D01*
X44590Y18800D02*
X44400D01*
X45400Y15470D02*
X43900D01*
X47290Y25500D02*
Y17640D01*
X47800Y24000D02*
Y17250D01*
X44400Y16450D02*
Y15670D01*
X45400Y16060D02*
X44750D01*
X45400Y15280D02*
X44160D01*
Y14910D01*
X43460D01*
X48000Y23500D02*
Y17050D01*
X49750Y26500D02*
X48750D01*
X47080D01*
X45400Y17440D02*
X47540D01*
X47080Y26500D02*
X47070Y18600D01*
X46410D01*
X53040Y18000D02*
X53000Y22700D01*
Y10700D02*
Y13400D01*
X47290Y25500D02*
X48750D01*
X53000Y22700D02*
X53500D01*
X50760Y21400D02*
X50750Y21900D01*
X49250Y25010D02*
X49750Y25500D01*
X51500Y12500D02*
X50800Y12400D01*
X48780Y21390D02*
X48240Y21400D01*
X50250Y21390D02*
X50760Y21400D01*
X45400Y16460D02*
X50000D01*
X49250Y25010D02*
X47540D01*
X45400Y16260D02*
X50220D01*
X48780Y20390D02*
X48800Y19800D01*
X48240Y21400D02*
Y19600D01*
X51740Y19900D02*
X52480D01*
X54390D02*
X54400Y19000D01*
X48800Y19800D02*
X50230D01*
X48240Y19600D02*
X49980D01*
X52480Y19900D02*
X52490Y18000D01*
X45400Y17250D02*
X47800D01*
X51740Y21900D02*
Y23000D01*
X52500D01*
Y23520D01*
X51820Y10400D02*
Y10700D01*
X54400Y19000D02*
X55500D01*
X54610Y9780D02*
X52640D01*
X50250Y20390D02*
X51380Y19900D01*
X47400Y10800D02*
X50900D01*
X51820Y10700D02*
X53000D01*
X50750Y21900D02*
X51740D01*
X52050Y12500D02*
X52060Y12900D01*
X50900Y10800D02*
Y11500D01*
X55500Y20000D02*
X54390Y21900D01*
X50900Y11500D02*
X51500D01*
X50880Y9500D02*
X47000D01*
X51660Y16300D02*
X50980D01*
X49400Y18430D02*
Y18000D01*
X45400Y13510D02*
X46100Y13500D01*
X51660Y16300D02*
Y16700D01*
X47960Y6500D02*
X46400D01*
X45400Y13900D02*
X48700D01*
X46400Y6500D02*
Y13700D01*
X46100Y13500D02*
Y5500D01*
X47640D01*
X45400Y14490D02*
X46470D01*
X47640Y5500D02*
Y3000D01*
X47960Y6500D02*
Y4000D01*
X47640Y3000D02*
X50000D01*
X47960Y4000D02*
X50000D01*
X46470Y14490D02*
Y14900D01*
X50000Y13400D02*
X53000D01*
X55500Y16000D02*
X54000D01*
X52430Y8500D02*
Y10100D01*
X50000Y9000D02*
X50880D01*
X55500Y14000D02*
X54300D01*
X55510Y5600D02*
X50880D01*
X53400Y8000D02*
X55500D01*
X47000Y9500D02*
Y10000D01*
X55500Y9000D02*
X54210Y8990D01*
X54610Y9780D02*
Y12000D01*
X52200Y10360D02*
Y9500D01*
X50000Y10000D02*
X49990Y10400D01*
X55500Y7000D02*
X55510Y5600D01*
X50880Y7000D02*
Y6600D01*
X50000Y8000D02*
X50880D01*
Y5600D02*
Y6000D01*
X46400Y13700D02*
X45400D01*
X46470Y14900D02*
X49400D01*
X53380Y12850D02*
Y12050D01*
X49400Y12900D02*
X52060D01*
X50000Y12400D02*
X50800D01*
X47000Y13400D02*
X48000D01*
X49400Y12900D02*
Y14900D01*
X49990Y10400D02*
X51420D01*
X50880Y10000D02*
Y9500D01*
X52200D01*
X52650Y7510D02*
X50880Y7500D01*
Y9000D02*
Y8500D01*
X52430D01*
X54000Y16000D02*
Y10360D01*
X50880Y7500D02*
Y8000D01*
X54210Y8990D02*
Y8480D01*
X54000Y10360D02*
X52200D01*
X52890Y8490D02*
Y6600D01*
X52050Y11500D02*
Y12500D01*
X52890Y6600D02*
X50880D01*
X51820Y10400D02*
X51420D01*
X48000Y13400D02*
Y12400D01*
X50000D01*
X51430Y10000D02*
X51420Y10400D01*
X51430Y9000D02*
X51820D01*
X51430Y8000D02*
X51820Y7900D01*
X51430Y7000D02*
X51820D01*
X51430Y6000D02*
X51820D01*
X50000Y7000D02*
X50880D01*
X50000Y6000D02*
X50880D01*
X45400Y15080D02*
X44800D01*
X45400Y14880D02*
X44900D01*
X44800Y15080D02*
X44500Y15000D01*
X44900Y14880D02*
X44400Y14400D01*
X51660Y14500D02*
X50750D01*
X53000Y13400D02*
Y16700D01*
X44020Y14100D02*
X44800D01*
X52210Y14500D02*
Y15400D01*
X50000Y15000D02*
X50750D01*
X52210Y15400D02*
X52700D01*
X50750Y15000D02*
Y14500D01*
X45400Y17050D02*
X48000D01*
X44800Y14300D02*
Y14100D01*
X48700Y13090D02*
Y13900D01*
X52650Y7510D02*
X52640Y9780D01*
X55500Y12000D02*
X54610D01*
X54300Y10100D02*
X52430D01*
X54300D02*
Y14000D01*
X52210Y15400D02*
Y16300D01*
X51660Y15400D02*
X50360D01*
X51660Y16700D02*
X53000D01*
Y13400D02*
X53380D01*
X50900Y16060D02*
X50980Y16300D01*
X50360Y15400D02*
X50000Y15500D01*
X49980Y19600D02*
X50000Y16460D01*
X50230Y19800D02*
X50220Y16260D01*
X45400Y16850D02*
X48390D01*
X53500Y22700D02*
Y23520D01*
X48390Y16850D02*
X48400Y18430D01*
X49400Y18980D02*
X48900D01*
X48400D02*
X49400D01*
X48900D02*
Y16650D01*
X45400D01*
X49750Y26500D02*
X50750D01*
X47800Y24000D02*
X50240D01*
Y25200D01*
X50750Y25500D01*
D11*
X20000Y23500D02*
Y24500D01*
X4000Y13000D02*
X6000D01*
Y10000D01*
X20000Y3500D02*
Y4500D01*
X52890Y8490D02*
X54210Y8480D01*
X6000Y10000D02*
X5000D01*
X38150Y3480D02*
X39270Y3470D01*
X4000Y11000D02*
X2000D01*
X4000Y20000D02*
X3000D01*
X5000D02*
X6000D01*
X3000D02*
Y24000D01*
X5000D01*
X6000Y20000D02*
Y18500D01*
X4500D01*
X4000Y18000D01*
X2000Y11000D02*
Y6000D01*
X5000D01*
X37600Y2580D02*
X36500D01*
X10000Y25500D02*
X20000D01*
Y24500D01*
X38150Y5480D02*
X39270D01*
X15000Y23500D02*
X16000D01*
X37600Y4580D02*
X36500Y4590D01*
X38150Y4580D02*
X38700Y4560D01*
X9000Y22000D02*
Y22500D01*
X20000Y19500D02*
Y20500D01*
X23000Y22500D02*
X15000D01*
X23000D02*
Y23500D01*
X22000Y25500D02*
X23000Y23500D01*
Y22500D02*
X32000D01*
X20000Y11500D02*
Y12500D01*
X15000Y22500D02*
X9000D01*
X32000D02*
Y23500D01*
X16000Y19500D02*
X15000D01*
X32000Y18500D02*
X23000D01*
X9000Y20000D02*
Y20250D01*
X10000Y21500D02*
X20000D01*
X32000Y14500D02*
X23000D01*
X20000Y20500D02*
X27000D01*
X20000Y21500D02*
Y20500D01*
X9000Y18000D02*
Y18500D01*
X23000Y19500D02*
Y18500D01*
X9000D02*
X15000D01*
X35120D02*
X32000D01*
Y19500D01*
X10000Y17500D02*
X20000D01*
X9000Y14000D02*
Y14500D01*
X20000Y17500D02*
Y16500D01*
X27000D01*
X9000Y14500D02*
X15000D01*
X20000Y15500D02*
Y16500D01*
X32000Y14500D02*
Y15500D01*
X23000D02*
Y14500D01*
X15000D01*
X10000Y13500D02*
X20000D01*
Y12500D02*
X27000D01*
X20000Y13500D02*
Y12500D01*
X9000Y10000D02*
Y10500D01*
X23000Y11500D02*
Y10500D01*
X9000D02*
X15000D01*
X32000D02*
Y11500D01*
Y10500D02*
X23000D01*
X20000Y7500D02*
Y8500D01*
X10000Y9500D02*
X20000D01*
Y8500D02*
X27000D01*
X20000Y9500D02*
Y8500D01*
X38120Y7460D02*
X39270Y7450D01*
X37570Y6560D02*
X36470Y6570D01*
X38120Y6560D02*
X38670Y6540D01*
X39270Y7450D02*
X41500Y7460D01*
X38120Y9460D02*
X39270D01*
X9000Y6000D02*
Y6500D01*
X37570Y8560D02*
X36460D01*
X38120D02*
X38670Y8540D01*
X23000Y7500D02*
Y6500D01*
X9000D02*
X15000D01*
X32000D02*
Y7500D01*
Y6500D02*
X23000D01*
X15000Y15500D02*
X16000D01*
X15000Y11500D02*
X16000D01*
X15000Y7500D02*
X16000D01*
X27000Y12500D02*
X32500D01*
X32000Y14500D02*
X35120D01*
X10000Y5500D02*
X20000D01*
Y4500D02*
X27000D01*
X20000Y5500D02*
Y4500D01*
X21000Y22100D02*
X33700D01*
X38120Y11440D02*
X39270Y11430D01*
X37570Y10540D02*
X36470D01*
X38120D02*
X38670Y10520D01*
X38120Y13440D02*
X39270D01*
X37570Y12540D02*
X36460Y12550D01*
X38120Y12540D02*
X38670Y12520D01*
X39270Y13440D02*
X40300D01*
X32000Y3500D02*
Y2500D01*
X15000Y3500D02*
X16000D01*
X23000D02*
Y2500D01*
X33000Y25500D02*
Y22910D01*
X21000Y26250D02*
Y25500D01*
X36470Y21950D02*
X35120Y21940D01*
X33000Y22910D02*
X35680D01*
X21000Y26250D02*
X34880D01*
X35120Y21940D02*
Y22500D01*
X15000Y18500D02*
X23000D01*
X34880Y26250D02*
Y24920D01*
X35710D01*
X15000Y10500D02*
X23000D01*
X21000Y22100D02*
Y21500D01*
X33700Y22100D02*
Y20940D01*
X35680Y20930D01*
X33000Y21500D02*
Y18940D01*
X35670D01*
X15000Y6500D02*
X23000D01*
X21000Y17500D02*
Y18150D01*
X33000Y17500D02*
Y14950D01*
X35120Y22500D02*
X32000D01*
X33700Y18140D02*
Y16960D01*
X21000Y13500D02*
Y14100D01*
X33700Y16960D02*
X35670D01*
X33000Y14950D02*
X35670D01*
X33000Y13500D02*
Y10920D01*
X21000Y14100D02*
X33700D01*
Y12940D01*
X21000Y9500D02*
Y10100D01*
X33700Y12940D02*
X35670Y12930D01*
X33000Y10920D02*
X35680D01*
X33000Y9500D02*
Y6950D01*
X21000Y10100D02*
X33700D01*
Y8940D01*
X21000Y5500D02*
Y6100D01*
X33700Y8940D02*
X35670D01*
X33000Y6950D02*
X35680D01*
X33000Y5500D02*
Y2960D01*
X21000Y6100D02*
X33700D01*
Y5000D01*
X27000Y16500D02*
X32500D01*
X33700Y5000D02*
X35500D01*
X32500Y20500D02*
X27000D01*
X33000Y2960D02*
X35710D01*
X32500Y24500D02*
X27000D01*
X38120Y15470D02*
X39270D01*
X37570Y14570D02*
X36460D01*
X38120D02*
X38670Y14550D01*
X38120Y17470D02*
X39270D01*
X37570Y16570D02*
X36460Y16580D01*
X38120Y16570D02*
X38670Y16550D01*
X38120Y19450D02*
X39270Y19440D01*
X37570Y18550D02*
X36460Y18560D01*
X38120Y18550D02*
X38670D01*
X38120Y21450D02*
X39270D01*
X37570Y20550D02*
X36470D01*
X38120D02*
X38670D01*
X35120Y18500D02*
Y17960D01*
X36480Y17970D01*
X35120Y14500D02*
Y13960D01*
X27000Y8500D02*
X32500D01*
X35120Y13960D02*
X36470Y13970D01*
X32000Y10500D02*
X35000D01*
Y9960D01*
X36480D01*
X27000Y4500D02*
X32500D01*
X32000Y6500D02*
X35120D01*
Y5960D01*
X36500D01*
X21000Y18150D02*
X33700Y18140D01*
X38130Y23430D02*
X39280Y23420D01*
X37580Y22530D02*
X36470D01*
X38130D02*
X38680Y22510D01*
X39280Y23420D02*
X41700D01*
X38130Y25430D02*
X39280D01*
X37580Y24530D02*
X36500Y24540D01*
X38130Y24530D02*
X38680Y24510D01*
X39280Y25430D02*
X42100D01*
X42750Y18900D02*
Y17640D01*
X16000Y21000D02*
Y20250D01*
Y9000D02*
Y8500D01*
Y20250D02*
X17000D01*
X16000Y8500D02*
X17000D01*
X25500Y9250D02*
X26750D01*
X25500Y21250D02*
X26750D01*
X18000Y1700D02*
X29000D01*
X50400Y16000D02*
X51200Y17250D01*
X54000D01*
Y17900D01*
X56300D01*
Y4000D01*
X16550Y21000D02*
X18000D01*
X50400Y16000D02*
X46200D01*
X27300Y21250D02*
X29000Y21260D01*
X51000Y4000D02*
Y1700D01*
X16550Y9000D02*
X18000D01*
X51000Y1700D02*
X29000D01*
X27300Y9250D02*
X29000Y9260D01*
X51000Y4000D02*
X56300D01*
X45400Y14690D02*
X46200Y14700D01*
Y16000D01*
X53000Y16700D02*
X54000D01*
D12*
X55500Y23000D02*
X56510D01*
Y20000D01*
X55500D01*
D13*
X42750Y19800D02*
Y18900D01*
D14*
X37600Y3960D02*
X37000D01*
X37600D02*
Y3480D01*
X36500Y3330D02*
Y3960D01*
X39270Y3470D02*
Y4930D01*
X36470Y7940D02*
Y7320D01*
X36480Y9960D02*
X36460Y9310D01*
X37570Y7940D02*
Y7460D01*
X39270Y8910D02*
Y7450D01*
X37570Y19930D02*
X37000Y19940D01*
X37580Y23910D02*
X37000Y23920D01*
X37570Y15950D02*
X37000Y15940D01*
X37570Y11920D02*
X37000Y11940D01*
X37570Y9960D02*
X36480D01*
X37570Y7940D02*
X37000Y7960D01*
X37590Y5960D02*
X37000D01*
X36500Y3960D02*
X37000D01*
X36470Y13970D02*
X37570D01*
X36470Y11920D02*
Y11290D01*
X37570Y9960D02*
Y9460D01*
X36470Y11920D02*
X37000Y11940D01*
X36470Y13970D02*
X36460Y13300D01*
X37570Y11920D02*
Y11440D01*
X36480Y17970D02*
X37570D01*
X39270Y12890D02*
Y11430D01*
X36500Y5960D02*
Y5340D01*
X37590Y5960D02*
X37600Y5480D01*
X39270Y10880D02*
Y9460D01*
Y6900D02*
Y5480D01*
X36470Y15950D02*
X37000Y15940D01*
X37570Y13970D02*
Y13440D01*
X36470Y21950D02*
X37570D01*
X36470Y15950D02*
X36460Y15320D01*
X36470Y19930D02*
X37000Y19940D01*
X36480Y17970D02*
X36460Y17330D01*
X37570Y15950D02*
Y15470D01*
X39270Y16920D02*
Y15470D01*
X36480Y23910D02*
X36470Y23280D01*
Y19930D02*
X36460Y19310D01*
X37570Y17970D02*
Y17470D01*
X36480Y23910D02*
X37000Y23920D01*
X36470Y21950D02*
Y21300D01*
X37570Y19930D02*
Y19450D01*
X39270Y20900D02*
Y19440D01*
Y17470D02*
Y18890D01*
Y14920D02*
Y13440D01*
X37580Y23910D02*
Y23430D01*
X39280Y23420D02*
Y24880D01*
X37570Y21950D02*
Y21450D01*
X39270D02*
X39280Y22870D01*
X37580Y27000D02*
Y25430D01*
X36500Y25290D02*
Y27000D01*
X36470Y7940D02*
X37000Y7960D01*
X36500Y5960D02*
X37000D01*
X45400Y18000D02*
X46500D01*
X45400D02*
X43460D01*
D15*
X37580Y27000D02*
X36500D01*
X43990Y3980D02*
Y4770D01*
Y5910D02*
X43980Y7000D01*
X43990Y5910D02*
Y4770D01*
X37580Y27000D02*
X42750D01*
Y20350D02*
X42730Y23950D01*
X43300Y18900D02*
X43990D01*
X42750Y27000D02*
X42730Y23950D01*
X43950D02*
X42730D01*
X43950Y23400D02*
Y22500D01*
X45500D01*
X43400D02*
Y19800D01*
X43990D01*
X45500Y19400D02*
Y22500D01*
X43990Y19800D02*
Y18900D01*
X44000Y18400D01*
X43460Y14910D02*
Y18000D01*
Y18400D02*
Y18000D01*
X44020Y14100D02*
X43980Y7000D01*
X44000Y14290D02*
X43460D01*
Y18400D02*
X44000D01*
X43460Y14290D02*
Y14910D01*
X44020Y14100D02*
X44000Y14290D01*
D16*
X41300Y6540D03*
X42100Y4570D03*
X38700Y4560D03*
X40900Y8530D03*
X40500Y10510D03*
X40100Y12520D03*
X38670Y6540D03*
Y8540D03*
X39700Y14550D03*
X38670Y10520D03*
Y12520D03*
Y14550D03*
X41110Y22510D03*
X38670Y16550D03*
X40100D03*
X41510Y24510D03*
X38670Y18550D03*
Y20550D03*
X40700D03*
X38680Y22510D03*
Y24510D03*
X40310Y18550D03*
X44400Y16450D03*
Y18800D03*
X43900Y15470D03*
X46410Y18600D03*
X50000Y15500D03*
Y15000D03*
X44750Y16060D03*
X46500Y18000D03*
X49400D03*
X44500Y15000D03*
X53380Y12050D03*
X44400Y14400D03*
X43980Y7000D03*
X47400Y10800D03*
X51820Y7000D03*
Y6000D03*
Y7900D03*
Y9000D03*
Y10400D03*
X52700Y15400D03*
X50900Y16060D03*
D17*
X43990Y3980D03*
D18*
X9000Y27000D02*
X15000D01*
X32000Y2500D02*
X23000D01*
X4000Y9000D02*
Y7000D01*
X9000Y26000D02*
Y27000D01*
X4000Y7000D02*
X7000D01*
Y2500D01*
X23000D01*
X36500Y27000D02*
X15000D01*
X4000Y21000D02*
Y23000D01*
X7000D01*
Y26000D01*
X5000D02*
X7000D01*
D19*
X37000Y23920D03*
Y19940D03*
X20000Y25500D03*
X15000Y27000D03*
X20000Y24500D03*
X47000Y9000D03*
X27000Y24500D03*
X15000Y22500D03*
X27000Y20500D03*
X15000Y18500D03*
Y14500D03*
X27000Y16500D03*
X15000Y10500D03*
X27000Y12500D03*
Y8500D03*
X15000Y6500D03*
X37000Y15940D03*
Y11940D03*
Y7960D03*
Y3960D03*
X27000Y4500D03*
X32500Y20500D03*
Y24500D03*
X5000Y26000D03*
X9000D03*
X5000Y24000D03*
X9000D03*
X5000Y22000D03*
X9000D03*
X5000Y20000D03*
X9000D03*
X5000Y18000D03*
X9000D03*
X5000Y16000D03*
X9000D03*
X5000Y14000D03*
X9000D03*
X5000Y12000D03*
X9000D03*
X5000Y10000D03*
X9000D03*
X5000Y8000D03*
X9000D03*
X5000Y6000D03*
X9000D03*
X5000Y4000D03*
X9000D03*
X32500Y16500D03*
Y12500D03*
Y8500D03*
Y4500D03*
X47000Y8000D03*
Y7000D03*
Y6000D03*
Y5000D03*
X25500Y9250D03*
X47000Y4000D03*
Y3000D03*
X50000D03*
Y4000D03*
Y5000D03*
Y6000D03*
Y7000D03*
Y8000D03*
Y9000D03*
Y10000D03*
X17000Y8500D03*
Y2500D03*
Y20250D03*
X25500Y21250D03*
X47000Y13400D03*
Y12400D03*
Y11400D03*
X50000D03*
Y12400D03*
Y13400D03*
Y14400D03*
X25500Y2500D03*
X29000Y1700D03*
X18000D03*
Y21000D03*
Y9000D03*
X29000Y9260D03*
Y21260D03*
X48700Y13090D03*
D20*
X51750Y24500D03*
Y25500D03*
X52500Y23520D03*
X53500D03*
X50750Y24500D03*
Y25500D03*
X21000Y17500D03*
Y25500D03*
X32000Y2500D03*
X10000Y25500D03*
X49750Y24500D03*
X21000Y21500D03*
X10000D03*
X16000Y19500D03*
X20000D03*
X15000D03*
X11000D03*
X10000Y17500D03*
X33000Y21500D03*
X22000D03*
X28000Y19500D03*
X32000D03*
X27000D03*
X23000D03*
X49750Y25500D03*
X16000Y23500D03*
X20000D03*
X33000Y25500D03*
X22000D03*
X15000Y23500D03*
X11000D03*
X33000Y17500D03*
X22000D03*
X21000Y13500D03*
X10000D03*
X33000D03*
X22000D03*
X21000Y9500D03*
X16000Y15500D03*
X20000D03*
X15000D03*
X11000D03*
X10000Y9500D03*
X33000D03*
X22000D03*
X28000Y15500D03*
X32000D03*
X21000Y5500D03*
X10000D03*
X27000Y15500D03*
X23000D03*
X33000Y5500D03*
X22000D03*
X28000Y23500D03*
X32000D03*
X27000D03*
X23000D03*
X16000Y11500D03*
X20000D03*
X15000D03*
X11000D03*
X28000D03*
X32000D03*
X27000D03*
X23000D03*
X16000Y7500D03*
X20000D03*
X15000D03*
X11000D03*
X28000D03*
X32000D03*
X27000D03*
X23000D03*
X48750Y24500D03*
Y25500D03*
X16000Y3500D03*
X20000D03*
X15000D03*
X11000D03*
X53400Y7000D03*
Y8000D03*
X28000Y3500D03*
X32000D03*
X27000D03*
X23000D03*
D21*
X55500Y8000D03*
Y7000D03*
Y9000D03*
X4000Y11000D03*
X55500Y22000D03*
Y19000D03*
Y15000D03*
Y14000D03*
Y16000D03*
Y12000D03*
Y13000D03*
X4000Y12000D03*
Y10000D03*
Y14000D03*
Y13000D03*
Y15000D03*
Y17000D03*
Y16000D03*
Y18000D03*
Y19000D03*
Y21000D03*
Y20000D03*
D22*
X2000Y28000D03*
X57500D03*
Y2000D03*
X2000D03*
D24*
X47000Y10000D03*
Y14400D03*
D25*
X51750Y26500D03*
X50750D03*
X49750D03*
X48750D03*
X53400Y9000D03*
D26*
X55500Y10000D03*
X4000Y9000D03*
X55500Y23000D03*
Y17000D03*
Y20000D03*
D27*
X0Y30000D03*
D28*
X37600Y2580D03*
X38150D03*
X37600Y4580D03*
X38150D03*
X37600Y5480D03*
X38150D03*
X39270Y4930D03*
Y5480D03*
X37600Y3480D03*
X38150D03*
X39270Y2920D03*
Y3470D03*
X43950Y23400D03*
Y23950D03*
X42750Y19800D03*
X45210Y4770D03*
X44660Y3980D03*
X45210D03*
X44660Y4770D03*
X43400Y22500D03*
X43950D03*
X42750Y20350D03*
X37570Y6560D03*
X38120D03*
X37570Y8560D03*
X38120D03*
X37570Y9460D03*
X38120D03*
X39270Y8910D03*
Y9460D03*
X37570Y7460D03*
X38120D03*
X39270Y6900D03*
Y7450D03*
X37570Y10540D03*
X38120D03*
X37570Y12540D03*
X38120D03*
X37570Y13440D03*
X38120D03*
X39270Y12890D03*
Y13440D03*
X37570Y11440D03*
X38120D03*
X39270Y10880D03*
Y11430D03*
X37570Y14570D03*
X38120D03*
X37570Y16570D03*
X38120D03*
X37570Y17470D03*
X38120D03*
X39270Y16920D03*
Y17470D03*
X37570Y15470D03*
X38120D03*
X39270Y14920D03*
Y15470D03*
X37570Y18550D03*
X38120D03*
X37570Y20550D03*
X38120D03*
X37570Y21450D03*
X38120D03*
X39270Y20900D03*
Y21450D03*
X37570Y19450D03*
X38120D03*
X39270Y18890D03*
Y19440D03*
X42750Y18900D03*
X43300D03*
X37580Y22530D03*
X38130D03*
X37580Y24530D03*
X38130D03*
X37580Y25430D03*
X38130D03*
X39280Y24880D03*
Y25430D03*
X37580Y23430D03*
X38130D03*
X39280Y22870D03*
Y23420D03*
X16000Y9000D03*
X16550D03*
X26750Y21250D03*
X27300D03*
X26750Y9250D03*
X27300D03*
X16000Y21000D03*
X16550D03*
X53040Y18000D03*
X52490D03*
X48400Y18980D03*
Y18430D03*
X53380Y13400D03*
X51430Y9000D03*
X51500Y12500D03*
X52050D03*
X53380Y12850D03*
X54000Y16700D03*
X50880Y9000D03*
X51430Y8000D03*
X50880D03*
X51430Y10000D03*
X51500Y11500D03*
X52050D03*
X50880Y10000D03*
X51430Y7000D03*
X50880D03*
X51430Y6000D03*
X50880D03*
X49400Y18980D03*
X51660Y15400D03*
X52210D03*
X51660Y14500D03*
X52210D03*
X51660Y16300D03*
X52210D03*
X49400Y18430D03*
X54000Y17250D03*
D29*
X45500Y19400D03*
X46410D03*
X44590D03*
D30*
X51740Y21900D03*
Y19900D03*
X54390Y21900D03*
Y19900D03*
D31*
X48780Y21390D03*
Y20390D03*
X50250Y21390D03*
Y20390D03*
D32*
X36470Y10540D03*
Y11290D03*
X35680Y10920D03*
X36500Y2580D03*
Y4590D03*
Y5340D03*
Y3330D03*
X36460Y8560D03*
Y9310D03*
X35670Y8940D03*
X36470Y6570D03*
Y7320D03*
X35710Y4970D03*
X35680Y6950D03*
X36460Y14570D03*
X35710Y2960D03*
X36460Y15320D03*
X35670Y14950D03*
X36460Y12550D03*
Y13300D03*
X35670Y12930D03*
X36460Y16580D03*
Y17330D03*
Y18560D03*
X35670Y16960D03*
X36460Y19310D03*
X36470Y20550D03*
X35670Y18940D03*
X36470Y21300D03*
X35680Y20930D03*
X36470Y22530D03*
Y23280D03*
X35680Y22910D03*
X36500Y24540D03*
Y25290D03*
X35710Y24920D03*
D33*
X42750Y14690D03*
Y14890D03*
Y15080D03*
Y15280D03*
Y15480D03*
Y15670D03*
Y15870D03*
Y16070D03*
Y16260D03*
Y16460D03*
Y16660D03*
Y16850D03*
Y17050D03*
Y17250D03*
Y17440D03*
Y17640D03*
Y13510D03*
Y13710D03*
Y13900D03*
Y14100D03*
Y14300D03*
Y14490D03*
X45400Y13900D03*
Y14100D03*
Y14290D03*
Y14490D03*
Y14690D03*
Y14880D03*
Y15080D03*
Y15280D03*
Y15470D03*
Y15670D03*
Y15870D03*
Y16060D03*
Y16260D03*
Y16460D03*
Y16650D03*
Y16850D03*
X42750Y13310D03*
Y13120D03*
X45400D03*
Y13310D03*
Y13510D03*
Y13700D03*
Y17050D03*
Y17250D03*
Y17440D03*
Y17640D03*
D34*
X45500Y21880D03*
D23*
X0Y30000D02*
X59500D01*
Y0D01*
X0D01*
Y30000D01*
M02*
