G04*
G04 Format:               Gerber RS-274X*
G04 Layer:                TopSilkscreen*
G04 This File Name:       bmsE.gto*
G04 Source File Name:     bmsE.rrb*
G04 Unique ID:            bca468ea-87cd-4f63-8e83-bbeb9de39dea*
G04 Generated Date:       Saturday, 23 August 2014 16:22:35*
G04*
G04 Created Using:        Robot Room Copper Connection v2.6.5209*
G04 Software Contact:     http://www.robotroom.com/CopperConnection/Support.aspx*
G04 License Number:       1402*
G04*
G04 Zero Suppression:     Leading*
G04 Number Precision:     2.4*
G04*
%FSLAX24Y24*%
%MOIN*%
%LNTopSilkscreen*%
%ADD10C,.006*%
%ADD11C,.0062*%
%ADD12C,.0079*%
%ADD13C,.008*%
%ADD14C,.01*%
%ADD15C,.0109*%
%ADD16C,.012*%
%ADD17C,.031*%
%ADD18C,.037*%
%ADD19C,.056*%
%ADD20C,.065*%
%ADD21C,.08*%
%ADD22C,.25*%
%ADD23R,.006X.006*%
%ADD24R,.056X.056*%
%ADD25R,.065X.065*%
%ADD26R,.08X.08*%
%ADD27R,.02X.026*%
%ADD28R,.03X.03*%
%ADD29R,.04X.06*%
%ADD30R,.045X.08*%
%ADD31R,.053X.039*%
%ADD32R,.059X.039*%
%ADD33R,.08X.01*%
%ADD34R,.13X.065*%
D10*
G01X35480Y10210D02*
Y10090D01*
X36540D01*
Y10210D01*
Y11580D02*
Y11700D01*
X36500D02*
X35480D01*
Y11580D01*
X35470Y8230D02*
Y8110D01*
X36530D01*
Y8230D01*
Y9600D02*
Y9720D01*
X36490D02*
X35470D01*
Y9600D01*
X35480Y6240D02*
Y6120D01*
X36540D01*
Y6240D01*
Y7610D02*
Y7730D01*
X36500D02*
X35480D01*
Y7610D01*
X35510Y4260D02*
Y4140D01*
X36570D01*
Y4260D01*
Y5630D02*
Y5750D01*
X36530D02*
X35510D01*
Y5630D01*
Y2250D02*
Y2130D01*
X36570D01*
Y2250D01*
Y3620D02*
Y3740D01*
X36530D02*
X35510D01*
Y3620D01*
X35470Y14240D02*
Y14120D01*
X36530D01*
Y14240D01*
Y15610D02*
Y15730D01*
X36490D02*
X35470D01*
Y15610D01*
Y12220D02*
Y12100D01*
X36530D01*
Y12220D01*
Y13590D02*
Y13710D01*
X36490D02*
X35470D01*
Y13590D01*
Y16250D02*
Y16130D01*
X36530D01*
Y16250D01*
Y17620D02*
Y17740D01*
X36490D02*
X35470D01*
Y17620D01*
Y18230D02*
Y18110D01*
X36530D01*
Y18230D01*
Y19600D02*
Y19720D01*
X36490D02*
X35470D01*
Y19600D01*
X35480Y20220D02*
Y20100D01*
X36540D01*
Y20220D01*
Y21590D02*
Y21710D01*
X36500D02*
X35480D01*
Y21590D01*
Y22200D02*
Y22080D01*
X36540D01*
Y22200D01*
Y23570D02*
Y23690D01*
X36500D02*
X35480D01*
Y23570D01*
X35510Y24210D02*
Y24090D01*
X36570D01*
Y24210D01*
Y25580D02*
Y25700D01*
X36530D02*
X35510D01*
Y25580D01*
X40500Y2750D02*
Y2367D01*
Y2750D02*
X40691D01*
X40755Y2686D01*
Y2622D01*
X40691Y2559D01*
X40500D01*
X40564D02*
X40755Y2367D01*
X40946Y2686D02*
X41010Y2750D01*
Y2367D01*
X40946D02*
X41074D01*
X41265Y2686D02*
X41329Y2750D01*
X41456D01*
X41520Y2686D01*
Y2622D01*
X41456Y2559D01*
X41392D01*
X41456D02*
X41520Y2495D01*
Y2431D01*
X41456Y2367D01*
X41329D01*
X41265Y2431D01*
X51564Y27500D02*
X51755D01*
Y27181D01*
X51691Y27117D01*
X51564D01*
X51500Y27181D01*
X51946Y27436D02*
X52010Y27500D01*
Y27117D01*
X51946D02*
X52074D01*
X40500Y3750D02*
Y3368D01*
Y3750D02*
X40691D01*
X40755Y3686D01*
Y3623D01*
X40691Y3559D01*
X40500D01*
X40564D02*
X40755Y3368D01*
X40946Y3686D02*
X41010Y3750D01*
Y3368D01*
X40946D02*
X41074D01*
X41520Y3495D02*
X41265D01*
Y3559D01*
X41456Y3750D01*
Y3368D01*
X39901Y3245D02*
X39838Y3309D01*
Y3436D01*
X39901Y3500D01*
X40156D01*
X40220Y3436D01*
Y3309D01*
X40156Y3245D01*
Y3054D02*
X40220Y2990D01*
X39838D01*
Y3054D02*
Y2926D01*
X40500Y4750D02*
Y4368D01*
Y4750D02*
X40691D01*
X40755Y4686D01*
Y4623D01*
X40691Y4559D01*
X40500D01*
X40564D02*
X40755Y4368D01*
X40946Y4686D02*
X41010Y4750D01*
Y4368D01*
X40946D02*
X41074D01*
X41265Y4623D02*
Y4750D01*
X41520D01*
X41265Y4623D02*
X41456D01*
X41520Y4559D01*
Y4431D01*
X41456Y4368D01*
X41329D01*
X41265Y4431D01*
X40500Y5750D02*
Y5367D01*
Y5750D02*
X40691D01*
X40755Y5686D01*
Y5622D01*
X40691Y5559D01*
X40500D01*
X40564D02*
X40755Y5367D01*
X40946Y5686D02*
X41010Y5750D01*
Y5367D01*
X40946D02*
X41074D01*
X41265Y5495D02*
X41329Y5559D01*
X41456D01*
X41520Y5495D01*
Y5431D01*
X41456Y5367D01*
X41329D01*
X41265Y5431D01*
Y5495D01*
Y5622D01*
X41392Y5750D01*
X41456D01*
X39901Y5245D02*
X39838Y5309D01*
Y5436D01*
X39901Y5500D01*
X40156D01*
X40220Y5436D01*
Y5309D01*
X40156Y5245D01*
Y5118D02*
X40220Y5054D01*
Y4926D01*
X40156Y4863D01*
X40093D01*
X40029Y4926D01*
Y5054D01*
X39965Y5118D01*
X39838D01*
Y4863D01*
X50564Y27500D02*
X50755D01*
Y27181D01*
X50691Y27117D01*
X50564D01*
X50500Y27181D01*
X50882Y27436D02*
X50946Y27500D01*
X51074D01*
X51137Y27436D01*
Y27373D01*
X51074Y27309D01*
X50946D01*
X50882Y27245D01*
Y27117D01*
X51137D01*
X44500Y3500D02*
Y3118D01*
Y3500D02*
X44691D01*
X44755Y3436D01*
Y3373D01*
X44691Y3309D01*
X44500D01*
X44564D02*
X44755Y3118D01*
X44883Y3436D02*
X44946Y3500D01*
X45074D01*
X45138Y3436D01*
Y3373D01*
X45074Y3309D01*
X45010D01*
X45074D02*
X45138Y3245D01*
Y3181D01*
X45074Y3118D01*
X44946D01*
X44883Y3181D01*
X45265Y3436D02*
Y3500D01*
X45520D01*
Y3436D01*
X45329Y3245D01*
Y3118D01*
X44685Y5351D02*
X44621Y5288D01*
X44494D01*
X44430Y5351D01*
Y5606D01*
X44494Y5670D01*
X44621D01*
X44685Y5606D01*
X44876D02*
X44940Y5670D01*
Y5288D01*
X44876D02*
X45004D01*
X45195Y5606D02*
X45259Y5670D01*
X45386D01*
X45450Y5606D01*
Y5543D01*
X45386Y5479D01*
X45323D01*
X45386D02*
X45450Y5415D01*
Y5351D01*
X45386Y5288D01*
X45259D01*
X45195Y5351D01*
X40500Y6750D02*
Y6368D01*
Y6750D02*
X40691D01*
X40755Y6686D01*
Y6623D01*
X40691Y6559D01*
X40500D01*
X40564D02*
X40755Y6368D01*
X40946Y6686D02*
X41010Y6750D01*
Y6368D01*
X40946D02*
X41074D01*
X41265Y6686D02*
Y6750D01*
X41520D01*
Y6686D01*
X41329Y6495D01*
Y6368D01*
X40500Y8750D02*
Y8368D01*
Y8750D02*
X40691D01*
X40755Y8686D01*
Y8623D01*
X40691Y8559D01*
X40500D01*
X40564D02*
X40755Y8368D01*
X40946Y8686D02*
X41010Y8750D01*
Y8368D01*
X40946D02*
X41074D01*
X41520Y8623D02*
X41456Y8559D01*
X41329D01*
X41265Y8623D01*
Y8686D01*
X41329Y8750D01*
X41456D01*
X41520Y8686D01*
Y8495D01*
X41392Y8368D01*
X41329D01*
X40500Y9750D02*
Y9368D01*
Y9750D02*
X40691D01*
X40755Y9686D01*
Y9623D01*
X40691Y9559D01*
X40500D01*
X40564D02*
X40755Y9368D01*
X40882Y9686D02*
X40946Y9750D01*
X41074D01*
X41137Y9686D01*
Y9623D01*
X41074Y9559D01*
X40946D01*
X40882Y9495D01*
Y9368D01*
X41137D01*
X41265Y9431D02*
Y9686D01*
X41329Y9750D01*
X41456D01*
X41520Y9686D01*
Y9431D01*
X41456Y9368D01*
X41329D01*
X41265Y9431D01*
X41520Y9686D02*
X41265Y9431D01*
X39931Y9245D02*
X39867Y9309D01*
Y9436D01*
X39931Y9500D01*
X40186D01*
X40250Y9436D01*
Y9309D01*
X40186Y9245D01*
X39995Y8863D02*
Y9117D01*
X40059D01*
X40250Y8926D01*
X39867D01*
X40500Y7750D02*
Y7367D01*
Y7750D02*
X40691D01*
X40755Y7686D01*
Y7622D01*
X40691Y7559D01*
X40500D01*
X40564D02*
X40755Y7367D01*
X40946Y7686D02*
X41010Y7750D01*
Y7367D01*
X40946D02*
X41074D01*
X41329Y7559D02*
X41265Y7622D01*
Y7686D01*
X41329Y7750D01*
X41456D01*
X41520Y7686D01*
Y7622D01*
X41456Y7559D01*
X41329D01*
X41456D02*
X41520Y7495D01*
Y7431D01*
X41456Y7367D01*
X41329D01*
X41265Y7431D01*
Y7495D01*
X41329Y7559D01*
X39931Y7245D02*
X39867Y7309D01*
Y7436D01*
X39931Y7500D01*
X40186D01*
X40250Y7436D01*
Y7309D01*
X40186Y7245D01*
Y7118D02*
X40250Y7054D01*
Y6926D01*
X40186Y6863D01*
X40122D01*
X40059Y6926D01*
Y6990D01*
Y6926D02*
X39995Y6863D01*
X39931D01*
X39867Y6926D01*
Y7054D01*
X39931Y7118D01*
X40500Y10750D02*
Y10367D01*
Y10750D02*
X40691D01*
X40755Y10686D01*
Y10622D01*
X40691Y10559D01*
X40500D01*
X40564D02*
X40755Y10367D01*
X40882Y10686D02*
X40946Y10750D01*
X41074D01*
X41137Y10686D01*
Y10622D01*
X41074Y10559D01*
X40946D01*
X40882Y10495D01*
Y10367D01*
X41137D01*
X41329Y10686D02*
X41392Y10750D01*
Y10367D01*
X41329D02*
X41456D01*
X40500Y12750D02*
Y12367D01*
Y12750D02*
X40691D01*
X40755Y12686D01*
Y12622D01*
X40691Y12559D01*
X40500D01*
X40564D02*
X40755Y12367D01*
X40882Y12686D02*
X40946Y12750D01*
X41074D01*
X41137Y12686D01*
Y12622D01*
X41074Y12559D01*
X40946D01*
X40882Y12495D01*
Y12367D01*
X41137D01*
X41265Y12686D02*
X41329Y12750D01*
X41456D01*
X41520Y12686D01*
Y12622D01*
X41456Y12559D01*
X41392D01*
X41456D02*
X41520Y12495D01*
Y12431D01*
X41456Y12367D01*
X41329D01*
X41265Y12431D01*
X40500Y13750D02*
Y13368D01*
Y13750D02*
X40691D01*
X40755Y13686D01*
Y13623D01*
X40691Y13559D01*
X40500D01*
X40564D02*
X40755Y13368D01*
X40882Y13686D02*
X40946Y13750D01*
X41074D01*
X41137Y13686D01*
Y13623D01*
X41074Y13559D01*
X40946D01*
X40882Y13495D01*
Y13368D01*
X41137D01*
X41520Y13495D02*
X41265D01*
Y13559D01*
X41456Y13750D01*
Y13368D01*
X39931Y13245D02*
X39867Y13309D01*
Y13436D01*
X39931Y13500D01*
X40186D01*
X40250Y13436D01*
Y13309D01*
X40186Y13245D01*
X39995Y13118D02*
X40059Y13054D01*
Y12926D01*
X39995Y12863D01*
X39931D01*
X39867Y12926D01*
Y13054D01*
X39931Y13118D01*
X39995D01*
X40122D01*
X40250Y12990D01*
Y12926D01*
X40500Y11750D02*
Y11368D01*
Y11750D02*
X40691D01*
X40755Y11686D01*
Y11623D01*
X40691Y11559D01*
X40500D01*
X40564D02*
X40755Y11368D01*
X40882Y11686D02*
X40946Y11750D01*
X41074D01*
X41137Y11686D01*
Y11623D01*
X41074Y11559D01*
X40946D01*
X40882Y11495D01*
Y11368D01*
X41137D01*
X41265Y11686D02*
X41329Y11750D01*
X41456D01*
X41520Y11686D01*
Y11623D01*
X41456Y11559D01*
X41329D01*
X41265Y11495D01*
Y11368D01*
X41520D01*
X39931Y11245D02*
X39867Y11309D01*
Y11436D01*
X39931Y11500D01*
X40186D01*
X40250Y11436D01*
Y11309D01*
X40186Y11245D01*
X40122Y11117D02*
X40250D01*
Y10862D01*
X40122Y11117D02*
Y10926D01*
X40059Y10862D01*
X39931D01*
X39867Y10926D01*
Y11054D01*
X39931Y11117D01*
X41750Y19500D02*
X42132D01*
X41750D02*
Y19691D01*
X41814Y19755D01*
X41877D01*
X41941Y19691D01*
Y19500D01*
Y19564D02*
X42132Y19755D01*
X41814Y19882D02*
X41750Y19946D01*
Y20074D01*
X41814Y20137D01*
X41877D01*
X41941Y20074D01*
Y20010D01*
Y20074D02*
X42005Y20137D01*
X42069D01*
X42132Y20074D01*
Y19946D01*
X42069Y19882D01*
X41941Y20329D02*
X41877Y20265D01*
X41814D01*
X41750Y20329D01*
Y20456D01*
X41814Y20520D01*
X41877D01*
X41941Y20456D01*
Y20329D01*
Y20456D02*
X42005Y20520D01*
X42069D01*
X42132Y20456D01*
Y20329D01*
X42069Y20265D01*
X42005D01*
X41941Y20329D01*
X40500Y14750D02*
Y14368D01*
Y14750D02*
X40691D01*
X40755Y14686D01*
Y14623D01*
X40691Y14559D01*
X40500D01*
X40564D02*
X40755Y14368D01*
X40882Y14686D02*
X40946Y14750D01*
X41074D01*
X41137Y14686D01*
Y14623D01*
X41074Y14559D01*
X40946D01*
X40882Y14495D01*
Y14368D01*
X41137D01*
X41265Y14623D02*
Y14750D01*
X41520D01*
X41265Y14623D02*
X41456D01*
X41520Y14559D01*
Y14431D01*
X41456Y14368D01*
X41329D01*
X41265Y14431D01*
X40500Y16750D02*
Y16368D01*
Y16750D02*
X40691D01*
X40755Y16686D01*
Y16623D01*
X40691Y16559D01*
X40500D01*
X40564D02*
X40755Y16368D01*
X40882Y16686D02*
X40946Y16750D01*
X41074D01*
X41137Y16686D01*
Y16623D01*
X41074Y16559D01*
X40946D01*
X40882Y16495D01*
Y16368D01*
X41137D01*
X41265Y16686D02*
Y16750D01*
X41520D01*
Y16686D01*
X41329Y16495D01*
Y16368D01*
X40500Y17750D02*
Y17368D01*
Y17750D02*
X40691D01*
X40755Y17686D01*
Y17623D01*
X40691Y17559D01*
X40500D01*
X40564D02*
X40755Y17368D01*
X40882Y17686D02*
X40946Y17750D01*
X41074D01*
X41137Y17686D01*
Y17623D01*
X41074Y17559D01*
X40946D01*
X40882Y17495D01*
Y17368D01*
X41137D01*
X41329Y17559D02*
X41265Y17623D01*
Y17686D01*
X41329Y17750D01*
X41456D01*
X41520Y17686D01*
Y17623D01*
X41456Y17559D01*
X41329D01*
X41456D02*
X41520Y17495D01*
Y17431D01*
X41456Y17368D01*
X41329D01*
X41265Y17431D01*
Y17495D01*
X41329Y17559D01*
X39931Y17245D02*
X39867Y17309D01*
Y17436D01*
X39931Y17500D01*
X40186D01*
X40250Y17436D01*
Y17309D01*
X40186Y17245D01*
X40059Y17054D02*
X40122Y17118D01*
X40186D01*
X40250Y17054D01*
Y16926D01*
X40186Y16863D01*
X40122D01*
X40059Y16926D01*
Y17054D01*
Y16926D02*
X39995Y16863D01*
X39931D01*
X39867Y16926D01*
Y17054D01*
X39931Y17118D01*
X39995D01*
X40059Y17054D01*
X40500Y15750D02*
Y15367D01*
Y15750D02*
X40691D01*
X40755Y15686D01*
Y15622D01*
X40691Y15559D01*
X40500D01*
X40564D02*
X40755Y15367D01*
X40882Y15686D02*
X40946Y15750D01*
X41074D01*
X41137Y15686D01*
Y15622D01*
X41074Y15559D01*
X40946D01*
X40882Y15495D01*
Y15367D01*
X41137D01*
X41265Y15495D02*
X41329Y15559D01*
X41456D01*
X41520Y15495D01*
Y15431D01*
X41456Y15367D01*
X41329D01*
X41265Y15431D01*
Y15495D01*
Y15622D01*
X41392Y15750D01*
X41456D01*
X39931Y15245D02*
X39867Y15309D01*
Y15436D01*
X39931Y15500D01*
X40186D01*
X40250Y15436D01*
Y15309D01*
X40186Y15245D01*
Y15118D02*
X40250D01*
Y14863D01*
X40186D01*
X39995Y15054D01*
X39867D01*
X40500Y18750D02*
Y18368D01*
Y18750D02*
X40691D01*
X40755Y18686D01*
Y18623D01*
X40691Y18559D01*
X40500D01*
X40564D02*
X40755Y18368D01*
X40882Y18686D02*
X40946Y18750D01*
X41074D01*
X41137Y18686D01*
Y18623D01*
X41074Y18559D01*
X40946D01*
X40882Y18495D01*
Y18368D01*
X41137D01*
X41520Y18623D02*
X41456Y18559D01*
X41329D01*
X41265Y18623D01*
Y18686D01*
X41329Y18750D01*
X41456D01*
X41520Y18686D01*
Y18495D01*
X41392Y18368D01*
X41329D01*
X40500Y20750D02*
Y20367D01*
Y20750D02*
X40691D01*
X40755Y20686D01*
Y20622D01*
X40691Y20559D01*
X40500D01*
X40564D02*
X40755Y20367D01*
X40882Y20686D02*
X40946Y20750D01*
X41074D01*
X41137Y20686D01*
Y20622D01*
X41074Y20559D01*
X41010D01*
X41074D02*
X41137Y20495D01*
Y20431D01*
X41074Y20367D01*
X40946D01*
X40882Y20431D01*
X41329Y20686D02*
X41392Y20750D01*
Y20367D01*
X41329D02*
X41456D01*
X40500Y21750D02*
Y21368D01*
Y21750D02*
X40691D01*
X40755Y21686D01*
Y21623D01*
X40691Y21559D01*
X40500D01*
X40564D02*
X40755Y21368D01*
X40882Y21686D02*
X40946Y21750D01*
X41074D01*
X41137Y21686D01*
Y21623D01*
X41074Y21559D01*
X41010D01*
X41074D02*
X41137Y21495D01*
Y21431D01*
X41074Y21368D01*
X40946D01*
X40882Y21431D01*
X41265Y21686D02*
X41329Y21750D01*
X41456D01*
X41520Y21686D01*
Y21623D01*
X41456Y21559D01*
X41329D01*
X41265Y21495D01*
Y21368D01*
X41520D01*
X39931Y21245D02*
X39867Y21309D01*
Y21436D01*
X39931Y21500D01*
X40186D01*
X40250Y21436D01*
Y21309D01*
X40186Y21245D01*
Y21054D02*
X40250Y20990D01*
X39867D01*
Y21054D02*
Y20926D01*
X39931Y20735D02*
X40186D01*
X40250Y20671D01*
Y20544D01*
X40186Y20480D01*
X39931D01*
X39867Y20544D01*
Y20671D01*
X39931Y20735D01*
X40186Y20480D02*
X39931Y20735D01*
X40500Y19750D02*
Y19368D01*
Y19750D02*
X40691D01*
X40755Y19686D01*
Y19622D01*
X40691Y19559D01*
X40500D01*
X40564D02*
X40755Y19368D01*
X40882Y19686D02*
X40946Y19750D01*
X41074D01*
X41137Y19686D01*
Y19622D01*
X41074Y19559D01*
X41010D01*
X41074D02*
X41137Y19495D01*
Y19431D01*
X41074Y19368D01*
X40946D01*
X40882Y19431D01*
X41265D02*
Y19686D01*
X41329Y19750D01*
X41456D01*
X41520Y19686D01*
Y19431D01*
X41456Y19368D01*
X41329D01*
X41265Y19431D01*
X41520Y19686D02*
X41265Y19431D01*
X39931Y19245D02*
X39867Y19309D01*
Y19436D01*
X39931Y19500D01*
X40186D01*
X40250Y19436D01*
Y19309D01*
X40186Y19245D01*
X40122Y18863D02*
X40059Y18926D01*
Y19054D01*
X40122Y19117D01*
X40186D01*
X40250Y19054D01*
Y18926D01*
X40186Y18863D01*
X39995D01*
X39867Y18990D01*
Y19054D01*
X42655Y18081D02*
X42591Y18018D01*
X42464D01*
X42400Y18081D01*
Y18336D01*
X42464Y18400D01*
X42591D01*
X42655Y18336D01*
X42846D02*
X42910Y18400D01*
Y18018D01*
X42846D02*
X42974D01*
X43420Y18145D02*
X43165D01*
Y18209D01*
X43356Y18400D01*
Y18018D01*
X40500Y22750D02*
Y22368D01*
Y22750D02*
X40691D01*
X40755Y22686D01*
Y22623D01*
X40691Y22559D01*
X40500D01*
X40564D02*
X40755Y22368D01*
X40882Y22686D02*
X40946Y22750D01*
X41074D01*
X41137Y22686D01*
Y22623D01*
X41074Y22559D01*
X41010D01*
X41074D02*
X41137Y22495D01*
Y22431D01*
X41074Y22368D01*
X40946D01*
X40882Y22431D01*
X41265Y22686D02*
X41329Y22750D01*
X41456D01*
X41520Y22686D01*
Y22623D01*
X41456Y22559D01*
X41392D01*
X41456D02*
X41520Y22495D01*
Y22431D01*
X41456Y22368D01*
X41329D01*
X41265Y22431D01*
X40500Y24750D02*
Y24367D01*
Y24750D02*
X40691D01*
X40755Y24686D01*
Y24622D01*
X40691Y24559D01*
X40500D01*
X40564D02*
X40755Y24367D01*
X40882Y24686D02*
X40946Y24750D01*
X41074D01*
X41137Y24686D01*
Y24622D01*
X41074Y24559D01*
X41010D01*
X41074D02*
X41137Y24495D01*
Y24431D01*
X41074Y24367D01*
X40946D01*
X40882Y24431D01*
X41265Y24622D02*
Y24750D01*
X41520D01*
X41265Y24622D02*
X41456D01*
X41520Y24559D01*
Y24431D01*
X41456Y24367D01*
X41329D01*
X41265Y24431D01*
X40500Y25750D02*
Y25367D01*
Y25750D02*
X40691D01*
X40755Y25686D01*
Y25623D01*
X40691Y25559D01*
X40500D01*
X40564D02*
X40755Y25367D01*
X40882Y25686D02*
X40946Y25750D01*
X41074D01*
X41137Y25686D01*
Y25623D01*
X41074Y25559D01*
X41010D01*
X41074D02*
X41137Y25495D01*
Y25431D01*
X41074Y25367D01*
X40946D01*
X40882Y25431D01*
X41265Y25495D02*
X41329Y25559D01*
X41456D01*
X41520Y25495D01*
Y25431D01*
X41456Y25367D01*
X41329D01*
X41265Y25431D01*
Y25495D01*
Y25623D01*
X41392Y25750D01*
X41456D01*
X39931Y25245D02*
X39867Y25309D01*
Y25436D01*
X39931Y25500D01*
X40186D01*
X40250Y25436D01*
Y25309D01*
X40186Y25245D01*
Y25054D02*
X40250Y24990D01*
X39867D01*
Y25054D02*
Y24926D01*
X40186Y24735D02*
X40250Y24671D01*
Y24544D01*
X40186Y24480D01*
X40122D01*
X40059Y24544D01*
Y24671D01*
X39995Y24735D01*
X39867D01*
Y24480D01*
X40500Y23750D02*
Y23367D01*
Y23750D02*
X40691D01*
X40755Y23686D01*
Y23623D01*
X40691Y23559D01*
X40500D01*
X40564D02*
X40755Y23367D01*
X40882Y23686D02*
X40946Y23750D01*
X41074D01*
X41137Y23686D01*
Y23623D01*
X41074Y23559D01*
X41010D01*
X41074D02*
X41137Y23495D01*
Y23431D01*
X41074Y23367D01*
X40946D01*
X40882Y23431D01*
X41520Y23495D02*
X41265D01*
Y23559D01*
X41456Y23750D01*
Y23367D01*
X39931Y23245D02*
X39867Y23309D01*
Y23436D01*
X39931Y23500D01*
X40186D01*
X40250Y23436D01*
Y23309D01*
X40186Y23245D01*
Y23054D02*
X40250Y22990D01*
X39867D01*
Y23054D02*
Y22926D01*
X40186Y22671D02*
X40250Y22608D01*
X39867D01*
Y22671D02*
Y22544D01*
X49564Y27500D02*
X49755D01*
Y27181D01*
X49691Y27117D01*
X49564D01*
X49500Y27181D01*
X49883Y27436D02*
X49946Y27500D01*
X50074D01*
X50138Y27436D01*
Y27373D01*
X50074Y27309D01*
X50010D01*
X50074D02*
X50138Y27245D01*
Y27181D01*
X50074Y27117D01*
X49946D01*
X49883Y27181D01*
X45000Y22681D02*
Y22873D01*
Y22936D01*
X45064Y23000D01*
X45191D01*
X45255Y22936D01*
Y22745D01*
X45127Y22618D01*
X45064D01*
X45000Y22681D01*
X45127Y22745D02*
X45255Y22618D01*
X45446Y22936D02*
X45510Y23000D01*
Y22618D01*
X45446D02*
X45574D01*
X45765Y22936D02*
X45829Y23000D01*
X45956D01*
X46020Y22936D01*
Y22873D01*
X45956Y22809D01*
X45892D01*
X45956D02*
X46020Y22745D01*
Y22681D01*
X45956Y22618D01*
X45829D01*
X45765Y22681D01*
X43000Y23250D02*
X43382D01*
X43000D02*
Y23441D01*
X43064Y23505D01*
X43127D01*
X43191Y23441D01*
Y23250D01*
Y23314D02*
X43382Y23505D01*
X43064Y23632D02*
X43000Y23696D01*
Y23824D01*
X43064Y23887D01*
X43127D01*
X43191Y23824D01*
Y23760D01*
Y23824D02*
X43255Y23887D01*
X43319D01*
X43382Y23824D01*
Y23696D01*
X43319Y23632D01*
X43127Y24270D02*
X43191Y24206D01*
Y24079D01*
X43127Y24015D01*
X43064D01*
X43000Y24079D01*
Y24206D01*
X43064Y24270D01*
X43255D01*
X43382Y24142D01*
Y24079D01*
X43505Y21681D02*
X43441Y21617D01*
X43314D01*
X43250Y21681D01*
Y21936D01*
X43314Y22000D01*
X43441D01*
X43505Y21936D01*
X43696D02*
X43760Y22000D01*
Y21617D01*
X43696D02*
X43824D01*
X44015Y21872D02*
Y22000D01*
X44270D01*
X44015Y21872D02*
X44206D01*
X44270Y21809D01*
Y21681D01*
X44206Y21617D01*
X44079D01*
X44015Y21681D01*
X48564Y27500D02*
X48755D01*
Y27181D01*
X48691Y27117D01*
X48564D01*
X48500Y27181D01*
X49138Y27245D02*
X48883D01*
Y27309D01*
X49074Y27500D01*
Y27117D01*
X54570Y7596D02*
Y7405D01*
X54251D01*
X54188Y7469D01*
Y7596D01*
X54251Y7660D01*
X54315Y7277D02*
X54379Y7214D01*
Y7086D01*
X54315Y7023D01*
X54251D01*
X54188Y7086D01*
Y7214D01*
X54251Y7277D01*
X54315D01*
X54443D01*
X54570Y7150D01*
Y7086D01*
Y23736D02*
Y23545D01*
X54251D01*
X54188Y23609D01*
Y23736D01*
X54251Y23800D01*
X54443Y23417D02*
X54570D01*
Y23163D01*
X54443Y23417D02*
Y23226D01*
X54379Y23163D01*
X54251D01*
X54188Y23226D01*
Y23354D01*
X54251Y23417D01*
X49140Y22260D02*
X49395D01*
X49267D02*
Y21878D01*
X49586Y22196D02*
X49650Y22260D01*
Y21878D01*
X49586D02*
X49714D01*
X15700Y9900D02*
X15891D01*
X15955Y9836D01*
Y9581D01*
X15891Y9517D01*
X15700D01*
X15764Y9900D02*
Y9517D01*
X16146Y9836D02*
X16210Y9900D01*
Y9517D01*
X16146D02*
X16274D01*
X16720Y9645D02*
X16465D01*
Y9709D01*
X16656Y9900D01*
Y9517D01*
X26450Y10150D02*
X26641D01*
X26705Y10086D01*
Y9831D01*
X26641Y9768D01*
X26450D01*
X26514Y10150D02*
Y9768D01*
X26896Y10086D02*
X26960Y10150D01*
Y9768D01*
X26896D02*
X27024D01*
X27215Y10086D02*
X27279Y10150D01*
X27406D01*
X27470Y10086D01*
Y10023D01*
X27406Y9959D01*
X27343D01*
X27406D02*
X27470Y9895D01*
Y9831D01*
X27406Y9768D01*
X27279D01*
X27215Y9831D01*
X26450Y22150D02*
X26641D01*
X26705Y22086D01*
Y21831D01*
X26641Y21768D01*
X26450D01*
X26514Y22150D02*
Y21768D01*
X26896Y22086D02*
X26960Y22150D01*
Y21768D01*
X26896D02*
X27024D01*
X27215Y22023D02*
Y22150D01*
X27470D01*
X27215Y22023D02*
X27406D01*
X27470Y21959D01*
Y21831D01*
X27406Y21768D01*
X27279D01*
X27215Y21831D01*
X15700Y21900D02*
X15891D01*
X15955Y21836D01*
Y21581D01*
X15891Y21518D01*
X15700D01*
X15764Y21900D02*
Y21518D01*
X16146Y21836D02*
X16210Y21900D01*
Y21518D01*
X16146D02*
X16274D01*
X16465Y21645D02*
X16529Y21709D01*
X16656D01*
X16720Y21645D01*
Y21581D01*
X16656Y21518D01*
X16529D01*
X16465Y21581D01*
Y21645D01*
Y21772D01*
X16592Y21900D01*
X16656D01*
X52240Y18900D02*
Y18518D01*
Y18900D02*
X52431D01*
X52495Y18836D01*
Y18773D01*
X52431Y18709D01*
X52240D01*
X52304D02*
X52495Y18518D01*
X52877Y18645D02*
X52622D01*
Y18709D01*
X52814Y18900D01*
Y18518D01*
X53005Y18836D02*
Y18900D01*
X53260D01*
Y18836D01*
X53069Y18645D01*
Y18518D01*
X54400Y13600D02*
X54017D01*
X54400D02*
Y13409D01*
X54336Y13345D01*
X54272D01*
X54209Y13409D01*
Y13600D01*
Y13536D02*
X54017Y13345D01*
X54145Y12963D02*
Y13218D01*
X54209D01*
X54400Y13026D01*
X54017D01*
X54145Y12835D02*
X54209Y12771D01*
Y12644D01*
X54145Y12580D01*
X54081D01*
X54017Y12644D01*
Y12771D01*
X54081Y12835D01*
X54145D01*
X54272D01*
X54400Y12708D01*
Y12644D01*
X51300Y13400D02*
Y13018D01*
Y13400D02*
X51491D01*
X51555Y13336D01*
Y13273D01*
X51491Y13209D01*
X51300D01*
X51364D02*
X51555Y13018D01*
X51938Y13145D02*
X51683D01*
Y13209D01*
X51874Y13400D01*
Y13018D01*
X52065Y13273D02*
Y13400D01*
X52320D01*
X52065Y13273D02*
X52256D01*
X52320Y13209D01*
Y13081D01*
X52256Y13018D01*
X52129D01*
X52065Y13081D01*
X51455Y10681D02*
X51391Y10618D01*
X51264D01*
X51200Y10681D01*
Y10936D01*
X51264Y11000D01*
X51391D01*
X51455Y10936D01*
X51646D02*
X51710Y11000D01*
Y10618D01*
X51646D02*
X51774D01*
X51965Y10745D02*
X52029Y10809D01*
X52156D01*
X52220Y10745D01*
Y10681D01*
X52156Y10618D01*
X52029D01*
X51965Y10681D01*
Y10745D01*
Y10873D01*
X52092Y11000D01*
X52156D01*
X51900Y10200D02*
Y9818D01*
Y10200D02*
X52091D01*
X52155Y10136D01*
Y10072D01*
X52091Y10009D01*
X51900D01*
X51964D02*
X52155Y9818D01*
X52537Y9945D02*
X52282D01*
Y10009D01*
X52474Y10200D01*
Y9818D01*
X52920Y9945D02*
X52665D01*
Y10009D01*
X52856Y10200D01*
Y9818D01*
X51900Y9200D02*
Y8818D01*
Y9200D02*
X52091D01*
X52155Y9136D01*
Y9073D01*
X52091Y9009D01*
X51900D01*
X51964D02*
X52155Y8818D01*
X52537Y8945D02*
X52282D01*
Y9009D01*
X52474Y9200D01*
Y8818D01*
X52665Y9136D02*
X52729Y9200D01*
X52856D01*
X52920Y9136D01*
Y9073D01*
X52856Y9009D01*
X52792D01*
X52856D02*
X52920Y8945D01*
Y8881D01*
X52856Y8818D01*
X52729D01*
X52665Y8881D01*
X51900Y8100D02*
Y7717D01*
Y8100D02*
X52091D01*
X52155Y8036D01*
Y7972D01*
X52091Y7909D01*
X51900D01*
X51964D02*
X52155Y7717D01*
X52537Y7845D02*
X52282D01*
Y7909D01*
X52474Y8100D01*
Y7717D01*
X52665Y8036D02*
X52729Y8100D01*
X52856D01*
X52920Y8036D01*
Y7972D01*
X52856Y7909D01*
X52729D01*
X52665Y7845D01*
Y7717D01*
X52920D01*
X52000Y7200D02*
Y6817D01*
Y7200D02*
X52191D01*
X52255Y7136D01*
Y7072D01*
X52191Y7009D01*
X52000D01*
X52064D02*
X52255Y6817D01*
X52638Y6945D02*
X52383D01*
Y7009D01*
X52574Y7200D01*
Y6817D01*
X52829Y7136D02*
X52893Y7200D01*
Y6817D01*
X52829D02*
X52956D01*
X52000Y6200D02*
Y5818D01*
Y6200D02*
X52191D01*
X52255Y6136D01*
Y6073D01*
X52191Y6009D01*
X52000D01*
X52064D02*
X52255Y5818D01*
X52638Y5945D02*
X52383D01*
Y6009D01*
X52574Y6200D01*
Y5818D01*
X52765Y5881D02*
Y6136D01*
X52829Y6200D01*
X52956D01*
X53020Y6136D01*
Y5881D01*
X52956Y5818D01*
X52829D01*
X52765Y5881D01*
X53020Y6136D02*
X52765Y5881D01*
X47500Y18200D02*
X47882D01*
X47500D02*
Y18391D01*
X47564Y18455D01*
X47627D01*
X47691Y18391D01*
Y18200D01*
Y18264D02*
X47882Y18455D01*
X47755Y18837D02*
Y18582D01*
X47691D01*
X47500Y18774D01*
X47882D01*
X47691Y19029D02*
X47627Y18965D01*
X47564D01*
X47500Y19029D01*
Y19156D01*
X47564Y19220D01*
X47627D01*
X47691Y19156D01*
Y19029D01*
Y19156D02*
X47755Y19220D01*
X47819D01*
X47882Y19156D01*
Y19029D01*
X47819Y18965D01*
X47755D01*
X47691Y19029D01*
X52881Y15745D02*
X52818Y15809D01*
Y15936D01*
X52881Y16000D01*
X53136D01*
X53200Y15936D01*
Y15809D01*
X53136Y15745D01*
Y15554D02*
X53200Y15490D01*
X52818D01*
Y15554D02*
Y15426D01*
X53009Y15171D02*
X53073Y15235D01*
X53136D01*
X53200Y15171D01*
Y15044D01*
X53136Y14980D01*
X53073D01*
X53009Y15044D01*
Y15171D01*
Y15044D02*
X52945Y14980D01*
X52881D01*
X52818Y15044D01*
Y15171D01*
X52881Y15235D01*
X52945D01*
X53009Y15171D01*
X51655Y13581D02*
X51591Y13518D01*
X51464D01*
X51400Y13581D01*
Y13836D01*
X51464Y13900D01*
X51591D01*
X51655Y13836D01*
X51846D02*
X51910Y13900D01*
Y13518D01*
X51846D02*
X51974D01*
X52165Y13836D02*
Y13900D01*
X52420D01*
Y13836D01*
X52229Y13645D01*
Y13518D01*
X51755Y16881D02*
X51691Y16818D01*
X51564D01*
X51500Y16881D01*
Y17136D01*
X51564Y17200D01*
X51691D01*
X51755Y17136D01*
X51946D02*
X52010Y17200D01*
Y16818D01*
X51946D02*
X52074D01*
X52520Y17073D02*
X52456Y17009D01*
X52329D01*
X52265Y17073D01*
Y17136D01*
X52329Y17200D01*
X52456D01*
X52520Y17136D01*
Y16945D01*
X52392Y16818D01*
X52329D01*
X50300Y19100D02*
X49918D01*
X50300D02*
Y18909D01*
X50236Y18845D01*
X50173D01*
X50109Y18909D01*
Y19100D01*
Y19036D02*
X49918Y18845D01*
X50045Y18463D02*
Y18718D01*
X50109D01*
X50300Y18526D01*
X49918D01*
X50173Y18080D02*
X50109Y18144D01*
Y18271D01*
X50173Y18335D01*
X50236D01*
X50300Y18271D01*
Y18144D01*
X50236Y18080D01*
X50045D01*
X49918Y18208D01*
Y18271D01*
X53100Y16500D02*
X53483D01*
X53100D02*
Y16691D01*
X53164Y16755D01*
X53228D01*
X53291Y16691D01*
Y16500D01*
Y16564D02*
X53483Y16755D01*
X53228Y16882D02*
X53100D01*
Y17137D01*
X53228Y16882D02*
Y17074D01*
X53291Y17137D01*
X53419D01*
X53483Y17074D01*
Y16946D01*
X53419Y16882D01*
Y17265D02*
X53164D01*
X53100Y17329D01*
Y17456D01*
X53164Y17520D01*
X53419D01*
X53483Y17456D01*
Y17329D01*
X53419Y17265D01*
X53164Y17520D02*
X53419Y17265D01*
D11*
X54015Y9669D02*
X53949Y9603D01*
X53816D01*
X53750Y9669D01*
Y9934D01*
X53816Y10000D01*
X53949D01*
X54015Y9934D01*
X54346Y9801D02*
X54214D01*
X54147Y9867D01*
Y9934D01*
X54214Y10000D01*
X54346D01*
X54412Y9934D01*
X54346Y9801D02*
X54412Y9735D01*
Y9669D01*
X54346Y9603D01*
X54214D01*
X54147Y9669D01*
X53750Y6500D02*
X54015D01*
X53882D02*
Y6102D01*
X54147Y6500D02*
Y6102D01*
Y6301D02*
X54412D01*
Y6500D02*
Y6102D01*
D12*
X53334Y26666D02*
X53417Y26750D01*
Y26247D01*
X53334D02*
X53501D01*
X53250Y24581D02*
Y24916D01*
X53334Y25000D01*
X53501D01*
X53585Y24916D01*
Y24581D01*
X53501Y24497D01*
X53334D01*
X53250Y24581D01*
X53585Y24916D02*
X53250Y24581D01*
X44035Y12600D02*
Y12181D01*
X43951Y12098D01*
X43784D01*
X43700Y12181D01*
Y12600D01*
X44286Y12516D02*
X44370Y12600D01*
Y12098D01*
X44286D02*
X44454D01*
X54909Y8345D02*
X54992Y8261D01*
Y8094D01*
X54909Y8010D01*
X54574D01*
X54490Y8094D01*
Y8261D01*
X54574Y8345D01*
X54992Y8513D02*
X54490D01*
X54825Y8848D01*
X54490D02*
X54992D01*
X54574Y9015D02*
X54490Y9099D01*
Y9266D01*
X54574Y9350D01*
X54657D01*
X54741Y9266D01*
Y9099D01*
X54825Y9015D01*
X54992D01*
Y9350D01*
X35139Y10540D02*
X34888D01*
X34804D01*
X34720Y10624D01*
Y10791D01*
X34804Y10875D01*
X35055D01*
X35223Y10708D01*
Y10624D01*
X35139Y10540D01*
X35055Y10708D02*
X35223Y10875D01*
X34888Y11043D02*
X34720D01*
Y11378D01*
X34888Y11043D02*
Y11294D01*
X34971Y11378D01*
X35139D01*
X35223Y11294D01*
Y11126D01*
X35139Y11043D01*
X55085Y17831D02*
X55001Y17747D01*
X54834D01*
X54750Y17831D01*
Y18166D01*
X54834Y18250D01*
X55001D01*
X55085Y18166D01*
X55252Y17747D02*
Y18250D01*
X55587Y17915D01*
Y18250D02*
Y17747D01*
X56090Y17915D02*
X55755D01*
Y17999D01*
X56006Y18250D01*
Y17747D01*
X35129Y8560D02*
X34878D01*
X34794D01*
X34710Y8644D01*
Y8811D01*
X34794Y8895D01*
X35045D01*
X35213Y8727D01*
Y8644D01*
X35129Y8560D01*
X35045Y8727D02*
X35213Y8895D01*
X35045Y9398D02*
Y9062D01*
X34961D01*
X34710Y9314D01*
X35213D01*
X35139Y6570D02*
X34888D01*
X34804D01*
X34720Y6654D01*
Y6821D01*
X34804Y6905D01*
X35055D01*
X35223Y6738D01*
Y6654D01*
X35139Y6570D01*
X35055Y6738D02*
X35223Y6905D01*
X34804Y7073D02*
X34720Y7156D01*
Y7324D01*
X34804Y7408D01*
X34888D01*
X34971Y7324D01*
Y7240D01*
Y7324D02*
X35055Y7408D01*
X35139D01*
X35223Y7324D01*
Y7156D01*
X35139Y7073D01*
X35169Y4590D02*
X34918D01*
X34834D01*
X34750Y4674D01*
Y4841D01*
X34834Y4925D01*
X35085D01*
X35253Y4757D01*
Y4674D01*
X35169Y4590D01*
X35085Y4757D02*
X35253Y4925D01*
X34834Y5093D02*
X34750Y5176D01*
Y5344D01*
X34834Y5428D01*
X34918D01*
X35001Y5344D01*
Y5176D01*
X35085Y5093D01*
X35253D01*
Y5428D01*
X35169Y2580D02*
X34918D01*
X34834D01*
X34750Y2664D01*
Y2831D01*
X34834Y2915D01*
X35085D01*
X35253Y2748D01*
Y2664D01*
X35169Y2580D01*
X35085Y2748D02*
X35253Y2915D01*
X34834Y3166D02*
X34750Y3250D01*
X35253D01*
Y3166D02*
Y3334D01*
X55085Y23831D02*
X55001Y23747D01*
X54834D01*
X54750Y23831D01*
Y24166D01*
X54834Y24250D01*
X55001D01*
X55085Y24166D01*
X55252Y23747D02*
Y24250D01*
X55587Y23915D01*
Y24250D02*
Y23747D01*
X55755Y24082D02*
Y24250D01*
X56090D01*
X55755Y24082D02*
X56006D01*
X56090Y23999D01*
Y23831D01*
X56006Y23747D01*
X55839D01*
X55755Y23831D01*
X35129Y14570D02*
X34878D01*
X34794D01*
X34710Y14654D01*
Y14821D01*
X34794Y14905D01*
X35045D01*
X35213Y14737D01*
Y14654D01*
X35129Y14570D01*
X35045Y14737D02*
X35213Y14905D01*
X34794Y15072D02*
X34710D01*
Y15408D01*
X34794D01*
X35045Y15156D01*
X35213D01*
X9750Y26000D02*
X10252D01*
X9750D02*
Y26251D01*
X9834Y26335D01*
X9918D01*
X10001Y26251D01*
Y26000D01*
Y26084D02*
X10252Y26335D01*
X9834Y26586D02*
X9750Y26670D01*
X10252D01*
Y26586D02*
Y26754D01*
X9834Y27005D02*
X9750Y27089D01*
Y27256D01*
X9834Y27340D01*
X9918D01*
X10001Y27256D01*
Y27089D01*
X10085Y27005D01*
X10252D01*
Y27340D01*
X35129Y12550D02*
X34878D01*
X34794D01*
X34710Y12634D01*
Y12801D01*
X34794Y12885D01*
X35045D01*
X35213Y12717D01*
Y12634D01*
X35129Y12550D01*
X35045Y12717D02*
X35213Y12885D01*
X35045Y13053D02*
X34961Y13136D01*
Y13304D01*
X35045Y13388D01*
X35129D01*
X35213Y13304D01*
Y13136D01*
X35129Y13053D01*
X35045D01*
X34878D01*
X34710Y13220D01*
Y13304D01*
X35129Y16580D02*
X34878D01*
X34794D01*
X34710Y16664D01*
Y16831D01*
X34794Y16915D01*
X35045D01*
X35213Y16748D01*
Y16664D01*
X35129Y16580D01*
X35045Y16748D02*
X35213Y16915D01*
X34961Y17166D02*
X34878Y17082D01*
X34794D01*
X34710Y17166D01*
Y17334D01*
X34794Y17418D01*
X34878D01*
X34961Y17334D01*
Y17166D01*
Y17334D02*
X35045Y17418D01*
X35129D01*
X35213Y17334D01*
Y17166D01*
X35129Y17082D01*
X35045D01*
X34961Y17166D01*
X35129Y18560D02*
X34878D01*
X34794D01*
X34710Y18644D01*
Y18811D01*
X34794Y18895D01*
X35045D01*
X35213Y18728D01*
Y18644D01*
X35129Y18560D01*
X35045Y18728D02*
X35213Y18895D01*
X34878Y19398D02*
X34961Y19314D01*
Y19146D01*
X34878Y19062D01*
X34794D01*
X34710Y19146D01*
Y19314D01*
X34794Y19398D01*
X35045D01*
X35213Y19230D01*
Y19146D01*
X21750Y26000D02*
X22253D01*
X21750D02*
Y26251D01*
X21834Y26335D01*
X21918D01*
X22001Y26251D01*
Y26000D01*
Y26084D02*
X22253Y26335D01*
X21834Y26586D02*
X21750Y26670D01*
X22253D01*
Y26586D02*
Y26754D01*
X21834Y27089D02*
X21750Y27172D01*
X22253D01*
Y27089D02*
Y27256D01*
X9750Y22000D02*
X10252D01*
X9750D02*
Y22251D01*
X9834Y22335D01*
X9918D01*
X10001Y22251D01*
Y22000D01*
Y22084D02*
X10252Y22335D01*
X9834Y22586D02*
X9750Y22670D01*
X10252D01*
Y22586D02*
Y22754D01*
X10169Y23005D02*
X9834D01*
X9750Y23089D01*
Y23256D01*
X9834Y23340D01*
X10169D01*
X10252Y23256D01*
Y23089D01*
X10169Y23005D01*
X9834Y23340D02*
X10169Y23005D01*
X21750Y22250D02*
X22253D01*
X21750D02*
Y22501D01*
X21834Y22585D01*
X21918D01*
X22001Y22501D01*
Y22250D01*
Y22334D02*
X22253Y22585D01*
X21918Y23087D02*
X22001Y23004D01*
Y22836D01*
X21918Y22752D01*
X21834D01*
X21750Y22836D01*
Y23004D01*
X21834Y23087D01*
X22085D01*
X22253Y22920D01*
Y22836D01*
X9750Y18250D02*
X10252D01*
X9750D02*
Y18501D01*
X9834Y18585D01*
X9918D01*
X10001Y18501D01*
Y18250D01*
Y18334D02*
X10252Y18585D01*
X10001Y18836D02*
X9918Y18752D01*
X9834D01*
X9750Y18836D01*
Y19004D01*
X9834Y19087D01*
X9918D01*
X10001Y19004D01*
Y18836D01*
Y19004D02*
X10085Y19087D01*
X10169D01*
X10252Y19004D01*
Y18836D01*
X10169Y18752D01*
X10085D01*
X10001Y18836D01*
X21750Y18250D02*
X22253D01*
X21750D02*
Y18501D01*
X21834Y18585D01*
X21918D01*
X22001Y18501D01*
Y18250D01*
Y18334D02*
X22253Y18585D01*
X21834Y18752D02*
X21750D01*
Y19087D01*
X21834D01*
X22085Y18836D01*
X22253D01*
X9750Y14250D02*
X10252D01*
X9750D02*
Y14501D01*
X9834Y14585D01*
X9918D01*
X10001Y14501D01*
Y14250D01*
Y14334D02*
X10252Y14585D01*
X10085Y14753D02*
X10001Y14836D01*
Y15004D01*
X10085Y15088D01*
X10169D01*
X10252Y15004D01*
Y14836D01*
X10169Y14753D01*
X10085D01*
X9918D01*
X9750Y14920D01*
Y15004D01*
X21750Y14250D02*
X22253D01*
X21750D02*
Y14501D01*
X21834Y14585D01*
X21918D01*
X22001Y14501D01*
Y14250D01*
Y14334D02*
X22253Y14585D01*
X21918Y14753D02*
X21750D01*
Y15088D01*
X21918Y14753D02*
Y15004D01*
X22001Y15088D01*
X22169D01*
X22253Y15004D01*
Y14836D01*
X22169Y14753D01*
X9750Y10250D02*
X10252D01*
X9750D02*
Y10501D01*
X9834Y10585D01*
X9918D01*
X10001Y10501D01*
Y10250D01*
Y10334D02*
X10252Y10585D01*
X10085Y11088D02*
Y10752D01*
X10001D01*
X9750Y11004D01*
X10252D01*
X21750Y10250D02*
X22253D01*
X21750D02*
Y10501D01*
X21834Y10585D01*
X21918D01*
X22001Y10501D01*
Y10250D01*
Y10334D02*
X22253Y10585D01*
X21834Y10752D02*
X21750Y10836D01*
Y11004D01*
X21834Y11088D01*
X21918D01*
X22001Y11004D01*
Y10920D01*
Y11004D02*
X22085Y11088D01*
X22169D01*
X22253Y11004D01*
Y10836D01*
X22169Y10752D01*
X9750Y6250D02*
X10252D01*
X9750D02*
Y6501D01*
X9834Y6585D01*
X9918D01*
X10001Y6501D01*
Y6250D01*
Y6334D02*
X10252Y6585D01*
X9834Y6753D02*
X9750Y6836D01*
Y7004D01*
X9834Y7088D01*
X9918D01*
X10001Y7004D01*
Y6836D01*
X10085Y6753D01*
X10252D01*
Y7088D01*
X21750Y6250D02*
X22253D01*
X21750D02*
Y6501D01*
X21834Y6585D01*
X21918D01*
X22001Y6501D01*
Y6250D01*
Y6334D02*
X22253Y6585D01*
X21834Y6836D02*
X21750Y6920D01*
X22253D01*
Y6836D02*
Y7004D01*
X35139Y20300D02*
X34888D01*
X34804D01*
X34720Y20384D01*
Y20551D01*
X34804Y20635D01*
X35055D01*
X35223Y20467D01*
Y20384D01*
X35139Y20300D01*
X35055Y20467D02*
X35223Y20635D01*
X34804Y20886D02*
X34720Y20970D01*
X35223D01*
Y20886D02*
Y21054D01*
X35139Y21305D02*
X34804D01*
X34720Y21389D01*
Y21556D01*
X34804Y21640D01*
X35139D01*
X35223Y21556D01*
Y21389D01*
X35139Y21305D01*
X34804Y21640D02*
X35139Y21305D01*
Y22280D02*
X34888D01*
X34804D01*
X34720Y22364D01*
Y22531D01*
X34804Y22615D01*
X35055D01*
X35223Y22448D01*
Y22364D01*
X35139Y22280D01*
X35055Y22448D02*
X35223Y22615D01*
X34804Y22866D02*
X34720Y22950D01*
X35223D01*
Y22866D02*
Y23034D01*
X34804Y23369D02*
X34720Y23452D01*
X35223D01*
Y23369D02*
Y23536D01*
X35169Y24290D02*
X34918D01*
X34834D01*
X34750Y24374D01*
Y24541D01*
X34834Y24625D01*
X35085D01*
X35253Y24457D01*
Y24374D01*
X35169Y24290D01*
X35085Y24457D02*
X35253Y24625D01*
X34834Y24876D02*
X34750Y24960D01*
X35253D01*
Y24876D02*
Y25044D01*
X34834Y25295D02*
X34750Y25379D01*
Y25546D01*
X34834Y25630D01*
X34918D01*
X35001Y25546D01*
Y25379D01*
X35085Y25295D01*
X35253D01*
Y25630D01*
X54919Y14585D02*
X55002Y14501D01*
Y14334D01*
X54919Y14250D01*
X54584D01*
X54500Y14334D01*
Y14501D01*
X54584Y14585D01*
X55002Y14753D02*
X54500D01*
X54835Y15088D01*
X54500D02*
X55002D01*
X54584Y15255D02*
X54500Y15339D01*
Y15506D01*
X54584Y15590D01*
X54667D01*
X54751Y15506D01*
Y15423D01*
Y15506D02*
X54835Y15590D01*
X54919D01*
X55002Y15506D01*
Y15339D01*
X54919Y15255D01*
X4831Y15165D02*
X4748Y15249D01*
Y15416D01*
X4831Y15500D01*
X5166D01*
X5250Y15416D01*
Y15249D01*
X5166Y15165D01*
X4748Y14997D02*
X5250D01*
X4915Y14662D01*
X5250D02*
X4748D01*
X5166Y14411D02*
X5250Y14327D01*
X4748D01*
Y14411D02*
Y14244D01*
X20500Y19750D02*
X20751D01*
X20835Y19666D01*
Y19331D01*
X20751Y19248D01*
X20500D01*
X20584Y19750D02*
Y19248D01*
X21086Y19666D02*
X21170Y19750D01*
Y19248D01*
X21086D02*
X21254D01*
X21505Y19331D02*
Y19666D01*
X21589Y19750D01*
X21756D01*
X21840Y19666D01*
Y19331D01*
X21756Y19248D01*
X21589D01*
X21505Y19331D01*
X21840Y19666D02*
X21505Y19331D01*
X9250Y19666D02*
Y19750D01*
X9585D01*
Y19666D01*
X9250Y19331D01*
X9585D02*
Y19248D01*
X9250D01*
Y19331D01*
X9836Y19666D02*
X9920Y19750D01*
Y19248D01*
X9836D02*
X10004D01*
X10255Y19331D02*
Y19666D01*
X10339Y19750D01*
X10506D01*
X10590Y19666D01*
Y19331D01*
X10506Y19248D01*
X10339D01*
X10255Y19331D01*
X10590Y19666D02*
X10255Y19331D01*
X32500Y19750D02*
X32751D01*
X32835Y19666D01*
Y19331D01*
X32751Y19248D01*
X32500D01*
X32584Y19750D02*
Y19248D01*
X33338Y19582D02*
X33254Y19499D01*
X33086D01*
X33003Y19582D01*
Y19666D01*
X33086Y19750D01*
X33254D01*
X33338Y19666D01*
Y19415D01*
X33170Y19248D01*
X33086D01*
X51000Y4065D02*
X50581D01*
X50498Y4149D01*
Y4316D01*
X50581Y4400D01*
X51000D01*
X50916Y3898D02*
X51000Y3814D01*
Y3646D01*
X50916Y3562D01*
X50833D01*
X50749Y3646D01*
Y3814D01*
X50665Y3898D01*
X50498D01*
Y3562D01*
X48535Y15700D02*
Y15281D01*
X48451Y15197D01*
X48284D01*
X48200Y15281D01*
Y15700D01*
X48703Y15616D02*
X48786Y15700D01*
X48954D01*
X49038Y15616D01*
Y15532D01*
X48954Y15449D01*
X48870D01*
X48954D02*
X49038Y15365D01*
Y15281D01*
X48954Y15197D01*
X48786D01*
X48703Y15281D01*
X50840Y22100D02*
Y22435D01*
Y22268D02*
X51343D01*
X50924Y22603D02*
X50840Y22686D01*
Y22854D01*
X50924Y22938D01*
X51007D01*
X51091Y22854D01*
Y22686D01*
X51175Y22603D01*
X51343D01*
Y22938D01*
X21500Y20416D02*
Y20500D01*
X21835D01*
Y20416D01*
X21500Y20081D01*
X21835D02*
Y19998D01*
X21500D01*
Y20081D01*
X22338Y20333D02*
X22254Y20249D01*
X22086D01*
X22002Y20333D01*
Y20416D01*
X22086Y20500D01*
X22254D01*
X22338Y20416D01*
Y20165D01*
X22170Y19998D01*
X22086D01*
X20500Y23750D02*
X20751D01*
X20835Y23666D01*
Y23331D01*
X20751Y23248D01*
X20500D01*
X20584Y23750D02*
Y23248D01*
X21086Y23666D02*
X21170Y23750D01*
Y23248D01*
X21086D02*
X21254D01*
X21505Y23666D02*
X21589Y23750D01*
X21756D01*
X21840Y23666D01*
Y23582D01*
X21756Y23499D01*
X21589D01*
X21505Y23415D01*
Y23248D01*
X21840D01*
X9250Y23916D02*
Y24000D01*
X9585D01*
Y23916D01*
X9250Y23581D01*
X9585D02*
Y23498D01*
X9250D01*
Y23581D01*
X9836Y23916D02*
X9920Y24000D01*
Y23498D01*
X9836D02*
X10004D01*
X10255Y23916D02*
X10339Y24000D01*
X10506D01*
X10590Y23916D01*
Y23832D01*
X10506Y23749D01*
X10339D01*
X10255Y23665D01*
Y23498D01*
X10590D01*
X6250Y26748D02*
Y26999D01*
Y27250D01*
X6585D01*
X6250Y26999D02*
X6501D01*
X6836Y27166D02*
X6920Y27250D01*
Y26748D01*
X6836D02*
X7004D01*
X7255Y27166D02*
X7339Y27250D01*
X7506D01*
X7590Y27166D01*
Y27083D01*
X7506Y26999D01*
X7339D01*
X7255Y26915D01*
Y26748D01*
X7590D01*
X6250Y24748D02*
Y24999D01*
Y25250D01*
X6585D01*
X6250Y24999D02*
X6501D01*
X6836Y25166D02*
X6920Y25250D01*
Y24748D01*
X6836D02*
X7004D01*
X7339Y25166D02*
X7422Y25250D01*
Y24748D01*
X7339D02*
X7506D01*
X6250Y22747D02*
Y22999D01*
Y23250D01*
X6585D01*
X6250Y22999D02*
X6501D01*
X6836Y23166D02*
X6920Y23250D01*
Y22747D01*
X6836D02*
X7004D01*
X7255Y22831D02*
Y23166D01*
X7339Y23250D01*
X7506D01*
X7590Y23166D01*
Y22831D01*
X7506Y22747D01*
X7339D01*
X7255Y22831D01*
X7590Y23166D02*
X7255Y22831D01*
X6500Y20748D02*
Y20999D01*
Y21250D01*
X6835D01*
X6500Y20999D02*
X6751D01*
X7338Y21082D02*
X7254Y20999D01*
X7086D01*
X7002Y21082D01*
Y21166D01*
X7086Y21250D01*
X7254D01*
X7338Y21166D01*
Y20915D01*
X7170Y20748D01*
X7086D01*
X6500Y18748D02*
Y18999D01*
Y19250D01*
X6835D01*
X6500Y18999D02*
X6751D01*
X7086D02*
X7002Y19083D01*
Y19166D01*
X7086Y19250D01*
X7254D01*
X7338Y19166D01*
Y19083D01*
X7254Y18999D01*
X7086D01*
X7254D02*
X7338Y18915D01*
Y18831D01*
X7254Y18748D01*
X7086D01*
X7002Y18831D01*
Y18915D01*
X7086Y18999D01*
X6500Y16748D02*
Y16999D01*
Y17250D01*
X6835D01*
X6500Y16999D02*
X6751D01*
X7002Y17166D02*
Y17250D01*
X7338D01*
Y17166D01*
X7086Y16915D01*
Y16748D01*
X6500Y14747D02*
Y14999D01*
Y15250D01*
X6835D01*
X6500Y14999D02*
X6751D01*
X7002Y14915D02*
X7086Y14999D01*
X7254D01*
X7338Y14915D01*
Y14831D01*
X7254Y14747D01*
X7086D01*
X7002Y14831D01*
Y14915D01*
Y15082D01*
X7170Y15250D01*
X7254D01*
X6500Y12747D02*
Y12999D01*
Y13250D01*
X6835D01*
X6500Y12999D02*
X6751D01*
X7002Y13082D02*
Y13250D01*
X7338D01*
X7002Y13082D02*
X7254D01*
X7338Y12999D01*
Y12831D01*
X7254Y12747D01*
X7086D01*
X7002Y12831D01*
X6500Y10747D02*
Y10999D01*
Y11250D01*
X6835D01*
X6500Y10999D02*
X6751D01*
X7338Y10915D02*
X7002D01*
Y10999D01*
X7254Y11250D01*
Y10747D01*
X6500Y8747D02*
Y8999D01*
Y9250D01*
X6835D01*
X6500Y8999D02*
X6751D01*
X7002Y9166D02*
X7086Y9250D01*
X7254D01*
X7338Y9166D01*
Y9083D01*
X7254Y8999D01*
X7170D01*
X7254D02*
X7338Y8915D01*
Y8831D01*
X7254Y8747D01*
X7086D01*
X7002Y8831D01*
X6500Y6748D02*
Y6999D01*
Y7250D01*
X6835D01*
X6500Y6999D02*
X6751D01*
X7002Y7166D02*
X7086Y7250D01*
X7254D01*
X7338Y7166D01*
Y7083D01*
X7254Y6999D01*
X7086D01*
X7002Y6915D01*
Y6748D01*
X7338D01*
X6500Y4747D02*
Y4999D01*
Y5250D01*
X6835D01*
X6500Y4999D02*
X6751D01*
X7086Y5166D02*
X7170Y5250D01*
Y4747D01*
X7086D02*
X7254D01*
X20500Y15750D02*
X20751D01*
X20835Y15666D01*
Y15331D01*
X20751Y15247D01*
X20500D01*
X20584Y15750D02*
Y15247D01*
X21086Y15499D02*
X21003Y15582D01*
Y15666D01*
X21086Y15750D01*
X21254D01*
X21338Y15666D01*
Y15582D01*
X21254Y15499D01*
X21086D01*
X21254D02*
X21338Y15415D01*
Y15331D01*
X21254Y15247D01*
X21086D01*
X21003Y15331D01*
Y15415D01*
X21086Y15499D01*
X9750Y15666D02*
Y15750D01*
X10085D01*
Y15666D01*
X9750Y15331D01*
X10085D02*
Y15247D01*
X9750D01*
Y15331D01*
X10336Y15499D02*
X10252Y15582D01*
Y15666D01*
X10336Y15750D01*
X10504D01*
X10587Y15666D01*
Y15582D01*
X10504Y15499D01*
X10336D01*
X10504D02*
X10587Y15415D01*
Y15331D01*
X10504Y15247D01*
X10336D01*
X10252Y15331D01*
Y15415D01*
X10336Y15499D01*
X32500Y15750D02*
X32751D01*
X32835Y15666D01*
Y15331D01*
X32751Y15247D01*
X32500D01*
X32584Y15750D02*
Y15247D01*
X33003Y15666D02*
Y15750D01*
X33338D01*
Y15666D01*
X33086Y15415D01*
Y15247D01*
X21750Y15666D02*
Y15750D01*
X22085D01*
Y15666D01*
X21750Y15331D01*
X22085D02*
Y15247D01*
X21750D01*
Y15331D01*
X22253Y15666D02*
Y15750D01*
X22588D01*
Y15666D01*
X22336Y15415D01*
Y15247D01*
X32500Y23750D02*
X32751D01*
X32835Y23666D01*
Y23331D01*
X32751Y23248D01*
X32500D01*
X32584Y23750D02*
Y23248D01*
X33086Y23666D02*
X33170Y23750D01*
Y23248D01*
X33086D02*
X33254D01*
X33589Y23666D02*
X33673Y23750D01*
Y23248D01*
X33589D02*
X33756D01*
X21000Y24416D02*
Y24500D01*
X21335D01*
Y24416D01*
X21000Y24081D01*
X21335D02*
Y23997D01*
X21000D01*
Y24081D01*
X21586Y24416D02*
X21670Y24500D01*
Y23997D01*
X21586D02*
X21754D01*
X22089Y24416D02*
X22173Y24500D01*
Y23997D01*
X22089D02*
X22256D01*
X20500Y11750D02*
X20751D01*
X20835Y11666D01*
Y11331D01*
X20751Y11247D01*
X20500D01*
X20584Y11750D02*
Y11247D01*
X21003Y11415D02*
X21086Y11499D01*
X21254D01*
X21338Y11415D01*
Y11331D01*
X21254Y11247D01*
X21086D01*
X21003Y11331D01*
Y11415D01*
Y11583D01*
X21170Y11750D01*
X21254D01*
X9750Y11666D02*
Y11750D01*
X10085D01*
Y11666D01*
X9750Y11331D01*
X10085D02*
Y11247D01*
X9750D01*
Y11331D01*
X10252Y11415D02*
X10336Y11499D01*
X10504D01*
X10587Y11415D01*
Y11331D01*
X10504Y11247D01*
X10336D01*
X10252Y11331D01*
Y11415D01*
Y11583D01*
X10420Y11750D01*
X10504D01*
X32500D02*
X32751D01*
X32835Y11666D01*
Y11331D01*
X32751Y11247D01*
X32500D01*
X32584Y11750D02*
Y11247D01*
X33003Y11583D02*
Y11750D01*
X33338D01*
X33003Y11583D02*
X33254D01*
X33338Y11499D01*
Y11331D01*
X33254Y11247D01*
X33086D01*
X33003Y11331D01*
X21750Y11666D02*
Y11750D01*
X22085D01*
Y11666D01*
X21750Y11331D01*
X22085D02*
Y11247D01*
X21750D01*
Y11331D01*
X22253Y11583D02*
Y11750D01*
X22588D01*
X22253Y11583D02*
X22504D01*
X22588Y11499D01*
Y11331D01*
X22504Y11247D01*
X22336D01*
X22253Y11331D01*
X20500Y7750D02*
X20751D01*
X20835Y7666D01*
Y7331D01*
X20751Y7247D01*
X20500D01*
X20584Y7750D02*
Y7247D01*
X21338Y7415D02*
X21003D01*
Y7499D01*
X21254Y7750D01*
Y7247D01*
X9500Y7666D02*
Y7750D01*
X9835D01*
Y7666D01*
X9500Y7331D01*
X9835D02*
Y7247D01*
X9500D01*
Y7331D01*
X10337Y7415D02*
X10002D01*
Y7499D01*
X10254Y7750D01*
Y7247D01*
X32500Y7750D02*
X32751D01*
X32835Y7666D01*
Y7331D01*
X32751Y7247D01*
X32500D01*
X32584Y7750D02*
Y7247D01*
X33003Y7666D02*
X33086Y7750D01*
X33254D01*
X33338Y7666D01*
Y7582D01*
X33254Y7499D01*
X33170D01*
X33254D02*
X33338Y7415D01*
Y7331D01*
X33254Y7247D01*
X33086D01*
X33003Y7331D01*
X21750Y7666D02*
Y7750D01*
X22085D01*
Y7666D01*
X21750Y7331D01*
X22085D02*
Y7247D01*
X21750D01*
Y7331D01*
X22253Y7666D02*
X22336Y7750D01*
X22504D01*
X22588Y7666D01*
Y7582D01*
X22504Y7499D01*
X22420D01*
X22504D02*
X22588Y7415D01*
Y7331D01*
X22504Y7247D01*
X22336D01*
X22253Y7331D01*
X20500Y3750D02*
X20751D01*
X20835Y3666D01*
Y3331D01*
X20751Y3247D01*
X20500D01*
X20584Y3750D02*
Y3247D01*
X21003Y3666D02*
X21086Y3750D01*
X21254D01*
X21338Y3666D01*
Y3582D01*
X21254Y3499D01*
X21086D01*
X21003Y3415D01*
Y3247D01*
X21338D01*
X9750Y3666D02*
Y3750D01*
X10085D01*
Y3666D01*
X9750Y3331D01*
X10085D02*
Y3247D01*
X9750D01*
Y3331D01*
X10252Y3666D02*
X10336Y3750D01*
X10504D01*
X10587Y3666D01*
Y3582D01*
X10504Y3499D01*
X10336D01*
X10252Y3415D01*
Y3247D01*
X10587D01*
X32500Y3750D02*
X32751D01*
X32835Y3666D01*
Y3331D01*
X32751Y3247D01*
X32500D01*
X32584Y3750D02*
Y3247D01*
X33086Y3666D02*
X33170Y3750D01*
Y3247D01*
X33086D02*
X33254D01*
X21750Y3666D02*
Y3750D01*
X22085D01*
Y3666D01*
X21750Y3331D01*
X22085D02*
Y3247D01*
X21750D01*
Y3331D01*
X22336Y3666D02*
X22420Y3750D01*
Y3247D01*
X22336D02*
X22504D01*
D13*
X20500Y27000D02*
X10500D01*
Y24000D01*
X20500Y19000D02*
X10500D01*
Y24000D02*
X20500D01*
Y27000D01*
X32500D02*
X22500D01*
Y24000D01*
X32500D01*
Y27000D01*
X20500Y23000D02*
X10500D01*
Y20000D01*
X20500D01*
Y23000D01*
X32500D02*
X22500D01*
Y20000D01*
X32500D01*
Y23000D01*
X10500Y19000D02*
Y16000D01*
X20500D01*
Y19000D01*
X32500D02*
X22500D01*
Y16000D01*
X32500D01*
Y19000D01*
X20500Y15000D02*
X10500D01*
Y12000D01*
X20500D01*
Y15000D01*
X32500D02*
X22500D01*
Y12000D01*
X32500D01*
Y15000D01*
X20500Y11000D02*
X10500D01*
Y8000D01*
X20500D01*
Y11000D01*
X32500D02*
X22500D01*
Y8000D01*
X32500D01*
Y11000D01*
X20500Y7000D02*
X10500D01*
Y4000D01*
X20500D01*
Y7000D01*
X32500D02*
X22500D01*
Y4000D01*
X32500D01*
Y7000D01*
D14*
X52150Y26500D02*
X52350D01*
Y25500D01*
X52150D01*
X52350D02*
Y24500D01*
X52150D01*
X56500Y11000D02*
X60500D01*
Y6000D01*
X56500D01*
X51150Y26500D02*
X51350D01*
X44710Y12920D02*
Y18040D01*
X44220D01*
X44190D02*
Y17540D01*
X43940D01*
Y18040D01*
X43440D01*
Y12920D01*
X44690D01*
X51350Y26500D02*
Y25500D01*
X51150D01*
X56500Y6000D02*
Y11000D01*
X51350Y25500D02*
Y24500D01*
X51150D01*
X56500Y24000D02*
X60500D01*
Y21000D01*
X56500D01*
Y24000D01*
X50150Y26500D02*
X50350D01*
Y25500D01*
X50150D01*
X56500Y21000D02*
X60500D01*
Y18000D01*
X56500D01*
Y21000D01*
Y18000D02*
X60500D01*
Y11000D01*
X56500D01*
Y18000D01*
X3000Y8000D02*
X-1000D01*
Y22000D01*
X3000D01*
Y8000D01*
X50350Y25500D02*
Y24500D01*
X50150D01*
X49150Y26500D02*
X49350D01*
Y25500D01*
X49150D01*
X49350D02*
Y24500D01*
X49150D01*
X53800Y9000D02*
X54000D01*
Y8000D01*
X53800D01*
X54000D02*
Y7000D01*
X53800D01*
X52000Y24020D02*
Y23020D01*
X54000D01*
Y24020D01*
X52000D01*
X15950Y8670D02*
X15500D01*
Y9370D01*
X16000D01*
X26700Y20920D02*
X26250D01*
Y21620D01*
X26700Y8920D02*
X26250D01*
X17250Y20120D02*
Y18880D01*
X13750D02*
Y20120D01*
X26250Y8920D02*
Y9620D01*
X26750D01*
X26250Y21620D02*
X26750D01*
X29250Y20120D02*
Y18880D01*
X15950Y20670D02*
X15500D01*
Y21370D01*
X16000D01*
X52240Y22150D02*
Y19650D01*
X53990D01*
Y22150D01*
X52240D01*
X25750Y18880D02*
Y20120D01*
X17250Y24120D02*
Y22880D01*
X13750D02*
Y24120D01*
X17250Y16120D02*
Y14880D01*
X13750D02*
Y16120D01*
X29250D02*
Y14880D01*
X25750D02*
Y16120D01*
X29250Y24120D02*
Y22880D01*
X25750D02*
Y24120D01*
X17250Y12120D02*
Y10880D01*
X13750D02*
Y12120D01*
X29250D02*
Y10880D01*
X25750D02*
Y12120D01*
X17250Y8120D02*
Y6880D01*
X13750D02*
Y8120D01*
X29250D02*
Y6880D01*
X25750D02*
Y8120D01*
X17250Y4120D02*
Y2880D01*
X13750D02*
Y4120D01*
X29250D02*
Y2880D01*
X25750D02*
Y4120D01*
G75*
X52340Y21900D02*
G02I150J0D01*
D15*
G01X36600Y27310D02*
X36949D01*
X37065Y27194D01*
Y27078D01*
X36949Y26961D01*
X36716D01*
X36949D02*
X37065Y26845D01*
Y26729D01*
X36949Y26612D01*
X36600D01*
X36716Y27310D02*
Y26612D01*
X37297D02*
Y27310D01*
X37530Y27078D01*
X37762Y27310D01*
Y26612D01*
X37530Y27078D02*
Y26961D01*
X38344D02*
X38111D01*
X37995Y27078D01*
Y27194D01*
X38111Y27310D01*
X38344D01*
X38460Y27194D01*
X38344Y26961D02*
X38460Y26845D01*
Y26729D01*
X38344Y26612D01*
X38111D01*
X37995Y26729D01*
X38693Y26961D02*
X39158D01*
X39390Y26845D02*
X39506Y26961D01*
X39739D01*
X39855Y26845D01*
Y26729D01*
X39739Y26612D01*
X39506D01*
X39390Y26729D01*
Y26845D01*
Y27078D01*
X39623Y27310D01*
X39739D01*
X40204Y26961D02*
X40088Y27078D01*
Y27194D01*
X40204Y27310D01*
X40436D01*
X40553Y27194D01*
Y27078D01*
X40436Y26961D01*
X40204D01*
X40436D02*
X40553Y26845D01*
Y26729D01*
X40436Y26612D01*
X40204D01*
X40088Y26729D01*
Y26845D01*
X40204Y26961D01*
X40785Y26729D02*
Y27194D01*
X40901Y27310D01*
X41134D01*
X41250Y27194D01*
Y26729D01*
X41134Y26612D01*
X40901D01*
X40785Y26729D01*
X41250Y27194D02*
X40785Y26729D01*
X41948Y26845D02*
X41483D01*
Y26961D01*
X41831Y27310D01*
Y26612D01*
X42180Y26961D02*
X42645D01*
X42878Y27194D02*
X42994Y27310D01*
X43226D01*
X43343Y27194D01*
Y27078D01*
X43226Y26961D01*
X42994D01*
X42878Y26845D01*
Y26612D01*
X43343D01*
X44273Y27310D02*
Y26612D01*
Y27310D02*
X44621D01*
X44738Y27194D01*
Y27078D01*
X44621Y26961D01*
X44273D01*
X44389D02*
X44738Y26612D01*
X45319D02*
X45086D01*
X44970Y26729D01*
Y26961D01*
X45086Y27078D01*
X45319D01*
X45435Y26961D01*
Y26845D01*
X44970D01*
X46133Y27078D02*
Y26845D01*
X45900Y26612D01*
X45668Y26845D01*
Y27078D01*
X47063Y26612D02*
Y27078D01*
X47295Y27310D01*
X47528Y27078D01*
Y26612D01*
X47063Y26845D02*
X47528D01*
D16*
X37700Y2930D02*
X37260D01*
Y2230D01*
X37700D01*
X38060Y2930D02*
X38500D01*
Y2230D01*
X38060D01*
X37700Y3830D02*
X37260D01*
Y3130D01*
X37700D01*
X38060Y3830D02*
X38500D01*
Y3130D01*
X38060D01*
X38920Y3020D02*
Y2580D01*
X39620D01*
Y3020D01*
X38920Y3380D02*
Y3820D01*
X39620D01*
Y3380D01*
X37700Y4930D02*
X37260D01*
Y4230D01*
X37700D01*
X38060Y4930D02*
X38500D01*
Y4230D01*
X38060D01*
X37700Y5830D02*
X37260D01*
Y5130D01*
X37700D01*
X38060Y5830D02*
X38500D01*
Y5130D01*
X38060D01*
X38920Y5030D02*
Y4590D01*
X39620D01*
Y5030D01*
X38920Y5390D02*
Y5830D01*
X39620D01*
Y5390D01*
X44760Y4330D02*
X44320D01*
Y3630D01*
X44760D01*
X45120Y4330D02*
X45560D01*
Y3630D01*
X45120D01*
X45110Y4420D02*
X45550D01*
Y5120D01*
X45110D01*
X44750Y4420D02*
X44310D01*
Y5120D01*
X44750D01*
X42400Y19900D02*
Y19460D01*
X43100D01*
X37670Y6910D02*
X37230D01*
Y6210D01*
X37670D01*
X38030Y6910D02*
X38470D01*
Y6210D01*
X38030D01*
X37670Y8910D02*
X37230D01*
Y8210D01*
X37670D01*
X38030Y8910D02*
X38470D01*
Y8210D01*
X38030D01*
X37670Y9810D02*
X37230D01*
Y9110D01*
X37670D01*
X38030Y9810D02*
X38470D01*
Y9110D01*
X38030D01*
X38920Y9010D02*
Y8570D01*
X39620D01*
Y9010D01*
X38920Y9370D02*
Y9810D01*
X39620D01*
Y9370D01*
X37670Y7810D02*
X37230D01*
Y7110D01*
X37670D01*
X38030Y7810D02*
X38470D01*
Y7110D01*
X38030D01*
X38920Y7000D02*
Y6560D01*
X39620D01*
Y7000D01*
X38920Y7360D02*
Y7800D01*
X39620D01*
Y7360D01*
X43100Y19460D02*
Y19900D01*
X37670Y10890D02*
X37230D01*
Y10190D01*
X37670D01*
X38030Y10890D02*
X38470D01*
Y10190D01*
X38030D01*
X37670Y12890D02*
X37230D01*
Y12190D01*
X37670D01*
X38030Y12890D02*
X38470D01*
Y12190D01*
X38030D01*
X37670Y13790D02*
X37230D01*
Y13090D01*
X37670D01*
X38030Y13790D02*
X38470D01*
Y13090D01*
X38030D01*
X38920Y12990D02*
Y12550D01*
X39620D01*
Y12990D01*
X38920Y13350D02*
Y13790D01*
X39620D01*
Y13350D01*
X37670Y11790D02*
X37230D01*
Y11090D01*
X37670D01*
X38030Y11790D02*
X38470D01*
Y11090D01*
X38030D01*
X38920Y10980D02*
Y10540D01*
X39620D01*
Y10980D01*
X38920Y11340D02*
Y11780D01*
X39620D01*
Y11340D01*
X42400Y20260D02*
Y20700D01*
X43100D01*
Y20260D01*
X37670Y14920D02*
X37230D01*
Y14220D01*
X37670D01*
X38030Y14920D02*
X38470D01*
Y14220D01*
X38030D01*
X37670Y16920D02*
X37230D01*
Y16220D01*
X37670D01*
X38030Y16920D02*
X38470D01*
Y16220D01*
X38030D01*
X37670Y17820D02*
X37230D01*
Y17120D01*
X37670D01*
X38030Y17820D02*
X38470D01*
Y17120D01*
X38030D01*
X38920Y17020D02*
Y16580D01*
X39620D01*
Y17020D01*
X38920Y17380D02*
Y17820D01*
X39620D01*
Y17380D01*
X37670Y15820D02*
X37230D01*
Y15120D01*
X37670D01*
X38030Y15820D02*
X38470D01*
Y15120D01*
X38030D01*
X38920Y15020D02*
Y14580D01*
X39620D01*
Y15020D01*
X38920Y15380D02*
Y15820D01*
X39620D01*
Y15380D01*
X37670Y18900D02*
X37230D01*
Y18200D01*
X37670D01*
X38030Y18900D02*
X38470D01*
Y18200D01*
X38030D01*
X37670Y20900D02*
X37230D01*
Y20200D01*
X37670D01*
X38030Y20900D02*
X38470D01*
Y20200D01*
X38030D01*
X37670Y21800D02*
X37230D01*
Y21100D01*
X37670D01*
X38030Y21800D02*
X38470D01*
Y21100D01*
X38030D01*
X38920Y21000D02*
Y20560D01*
X39620D01*
Y21000D01*
X38920Y21360D02*
Y21800D01*
X39620D01*
Y21360D01*
X37670Y19800D02*
X37230D01*
Y19100D01*
X37670D01*
X38030Y19800D02*
X38470D01*
Y19100D01*
X38030D01*
X38920Y18990D02*
Y18550D01*
X39620D01*
Y18990D01*
X38920Y19350D02*
Y19790D01*
X39620D01*
Y19350D01*
X42850Y19250D02*
X42410D01*
Y18550D01*
X42850D01*
X43210Y19250D02*
X43650D01*
Y18550D01*
X43210D01*
X37680Y22880D02*
X37240D01*
Y22180D01*
X37680D01*
X38040Y22880D02*
X38480D01*
Y22180D01*
X38040D01*
X37680Y24880D02*
X37240D01*
Y24180D01*
X37680D01*
X38040Y24880D02*
X38480D01*
Y24180D01*
X38040D01*
X37680Y25780D02*
X37240D01*
Y25080D01*
X37680D01*
X38040Y25780D02*
X38480D01*
Y25080D01*
X38040D01*
X38930Y24980D02*
Y24540D01*
X39630D01*
Y24980D01*
X38930Y25340D02*
Y25780D01*
X39630D01*
Y25340D01*
X37680Y23780D02*
X37240D01*
Y23080D01*
X37680D01*
X38040Y23780D02*
X38480D01*
Y23080D01*
X38040D01*
X38930Y22970D02*
Y22530D01*
X39630D01*
Y22970D01*
X38930Y23330D02*
Y23770D01*
X39630D01*
Y23330D01*
X44340Y21590D02*
Y19870D01*
X46660Y21590D02*
Y19870D01*
X45850Y19670D02*
X46050D01*
X44940D02*
X45140D01*
X44700Y21590D02*
X44340D01*
X46300D02*
X46660D01*
X43600Y23500D02*
Y23060D01*
X44300D01*
Y23500D01*
X43600Y23860D02*
Y24300D01*
X44300D01*
Y23860D01*
X43500Y22850D02*
X43060D01*
Y22150D01*
X43500D01*
X43860Y22850D02*
X44300D01*
Y22150D01*
X43860D01*
X49190Y21590D02*
X49830D01*
Y20290D01*
X49190D01*
Y21590D01*
X15660Y9350D02*
Y8650D01*
X16460Y9350D02*
X16900D01*
Y8650D01*
X16460D01*
X26410Y21600D02*
Y20900D01*
X27210Y21600D02*
X27650D01*
Y20900D01*
X27210D01*
X19250Y18880D02*
Y20120D01*
X16750Y18880D02*
Y20120D01*
X19250D02*
X16750D01*
Y18880D02*
X19250D01*
X16750Y19500D02*
X16380D01*
X19250D02*
X19620D01*
X11750Y20120D02*
Y18880D01*
X14250Y20120D02*
Y18880D01*
X11750D02*
X14250D01*
Y20120D02*
X11750D01*
X14250Y19500D02*
X14620D01*
X11750D02*
X11380D01*
X26410Y9600D02*
Y8900D01*
X27210Y9600D02*
X27650D01*
Y8900D01*
X27210D01*
X31250Y18880D02*
Y20120D01*
X28750Y18880D02*
Y20120D01*
X31250D02*
X28750D01*
Y18880D02*
X31250D01*
X28750Y19500D02*
X28380D01*
X31250D02*
X31620D01*
X23750Y20120D02*
Y18880D01*
X26250Y20120D02*
Y18880D01*
X23750D02*
X26250D01*
X48250Y10400D02*
X47650D01*
Y2600D01*
X49350D01*
Y10400D01*
X48750D01*
Y9900D01*
X48250D01*
Y10400D01*
X15660Y21350D02*
Y20650D01*
X16460Y21350D02*
X16900D01*
Y20650D01*
X16460D01*
X48250Y14800D02*
X47650D01*
Y11000D01*
X49350D01*
Y14800D01*
X48750D01*
Y14300D01*
X48250D01*
Y14800D01*
X26250Y20120D02*
X23750D01*
X26250Y19500D02*
X26620D01*
X23750D02*
X23380D01*
X19250Y22880D02*
Y24120D01*
X16750Y22880D02*
Y24120D01*
X19250D02*
X16750D01*
X52940Y17650D02*
X53380D01*
Y18350D01*
X52940D01*
X52580Y17650D02*
X52140D01*
Y18350D01*
X52580D01*
X16750Y22880D02*
X19250D01*
X53730Y13300D02*
Y13740D01*
X53030D01*
Y13300D01*
X53730Y12940D02*
Y12500D01*
X53030D01*
Y12940D01*
X48750Y18880D02*
Y19320D01*
X48050D01*
Y18880D01*
X51600Y12850D02*
X51160D01*
Y12150D01*
X51600D01*
X51960Y12850D02*
X52400D01*
Y12150D01*
X51960D01*
X51600Y11850D02*
X51160D01*
Y11150D01*
X51600D01*
X51960Y11850D02*
X52400D01*
Y11150D01*
X51960D01*
X48750Y18520D02*
Y18080D01*
X51330Y9650D02*
X51770D01*
Y10350D01*
X51330D01*
X50970Y9650D02*
X50530D01*
Y10350D01*
X50970D01*
X51330Y8650D02*
X51770D01*
Y9350D01*
X51330D01*
X50970Y8650D02*
X50530D01*
Y9350D01*
X50970D01*
X51330Y7650D02*
X51770D01*
Y8350D01*
X51330D01*
X50970Y7650D02*
X50530D01*
Y8350D01*
X50970D01*
X51330Y6650D02*
X51770D01*
Y7350D01*
X51330D01*
X50970Y6650D02*
X50530D01*
Y7350D01*
X50970D01*
X51330Y5650D02*
X51770D01*
Y6350D01*
X51330D01*
X50970Y5650D02*
X50530D01*
Y6350D01*
X50970D01*
X48750Y18080D02*
X48050D01*
Y18520D01*
X51760Y15750D02*
X51320D01*
Y15050D01*
X51760D01*
X52120Y15750D02*
X52560D01*
Y15050D01*
X52120D01*
X51760Y14850D02*
X51320D01*
Y14150D01*
X51760D01*
X52120Y14850D02*
X52560D01*
Y14150D01*
X52120D01*
X51760Y16650D02*
X51320D01*
Y15950D01*
X51760D01*
X52120Y16650D02*
X52560D01*
Y15950D01*
X52120D01*
X49750Y18880D02*
Y19320D01*
X49050D01*
Y18880D01*
X49750Y18520D02*
Y18080D01*
X49050D01*
Y18520D01*
X16750Y23500D02*
X16380D01*
X19250D02*
X19620D01*
X11750Y24120D02*
Y22880D01*
X14250Y24120D02*
Y22880D01*
X53650Y16800D02*
Y16360D01*
X54350D01*
Y16800D01*
X53650Y17160D02*
Y17600D01*
X54350D01*
Y17160D01*
X11750Y22880D02*
X14250D01*
Y24120D02*
X11750D01*
X14250Y23500D02*
X14620D01*
X11750D02*
X11380D01*
X5850Y25500D02*
Y26500D01*
X8150D02*
X5850D01*
X8150D02*
Y25500D01*
X5850D02*
X8150D01*
X5850Y26000D02*
X5500D01*
X8150D02*
X8500D01*
X5850Y23500D02*
Y24500D01*
X8150D02*
X5850D01*
X8150D02*
Y23500D01*
X5850D02*
X8150D01*
X5850Y24000D02*
X5500D01*
X8150D02*
X8500D01*
X5850Y21500D02*
Y22500D01*
X8150D02*
X5850D01*
X8150D02*
Y21500D01*
X5850D02*
X8150D01*
X5850Y22000D02*
X5500D01*
X8150D02*
X8500D01*
X5850Y19500D02*
Y20500D01*
X8150D02*
X5850D01*
X8150D02*
Y19500D01*
X5850D02*
X8150D01*
X5850Y20000D02*
X5500D01*
X8150D02*
X8500D01*
X5850Y17500D02*
Y18500D01*
X8150D02*
X5850D01*
X8150D02*
Y17500D01*
X5850D02*
X8150D01*
X5850Y18000D02*
X5500D01*
X8150D02*
X8500D01*
X5850Y15500D02*
Y16500D01*
X8150D02*
X5850D01*
X8150D02*
Y15500D01*
X5850D02*
X8150D01*
X5850Y16000D02*
X5500D01*
X8150D02*
X8500D01*
X5850Y13500D02*
Y14500D01*
X8150D02*
X5850D01*
X8150D02*
Y13500D01*
X5850D02*
X8150D01*
X5850Y14000D02*
X5500D01*
X8150D02*
X8500D01*
X5850Y11500D02*
Y12500D01*
X8150D02*
X5850D01*
X8150D02*
Y11500D01*
X5850D02*
X8150D01*
X5850Y12000D02*
X5500D01*
X8150D02*
X8500D01*
X5850Y9500D02*
Y10500D01*
X8150D02*
X5850D01*
X8150D02*
Y9500D01*
X5850D02*
X8150D01*
X5850Y10000D02*
X5500D01*
X8150D02*
X8500D01*
X5850Y7500D02*
Y8500D01*
X8150D02*
X5850D01*
X8150D02*
Y7500D01*
X5850D02*
X8150D01*
X5850Y8000D02*
X5500D01*
X8150D02*
X8500D01*
X5850Y5500D02*
Y6500D01*
X8150D02*
X5850D01*
X8150D02*
Y5500D01*
X5850D02*
X8150D01*
X5850Y6000D02*
X5500D01*
X8150D02*
X8500D01*
X5850Y3500D02*
Y4500D01*
X8150D02*
X5850D01*
X8150D02*
Y3500D01*
X5850D02*
X8150D01*
X5850Y4000D02*
X5500D01*
X8150D02*
X8500D01*
X19250Y14880D02*
Y16120D01*
X16750Y14880D02*
Y16120D01*
X19250D02*
X16750D01*
Y14880D02*
X19250D01*
X16750Y15500D02*
X16380D01*
X19250D02*
X19620D01*
X11750Y16120D02*
Y14880D01*
X14250Y16120D02*
Y14880D01*
X11750D02*
X14250D01*
Y16120D02*
X11750D01*
X14250Y15500D02*
X14620D01*
X11750D02*
X11380D01*
X31250Y14880D02*
Y16120D01*
X28750Y14880D02*
Y16120D01*
X31250D02*
X28750D01*
Y14880D02*
X31250D01*
X28750Y15500D02*
X28380D01*
X31250D02*
X31620D01*
X23750Y16120D02*
Y14880D01*
X26250Y16120D02*
Y14880D01*
X23750D02*
X26250D01*
Y16120D02*
X23750D01*
X26250Y15500D02*
X26620D01*
X23750D02*
X23380D01*
X31250Y22880D02*
Y24120D01*
X28750Y22880D02*
Y24120D01*
X31250D02*
X28750D01*
Y22880D02*
X31250D01*
X28750Y23500D02*
X28380D01*
X31250D02*
X31620D01*
X23750Y24120D02*
Y22880D01*
X26250Y24120D02*
Y22880D01*
X23750D02*
X26250D01*
Y24120D02*
X23750D01*
X26250Y23500D02*
X26620D01*
X23750D02*
X23380D01*
X19250Y10880D02*
Y12120D01*
X16750Y10880D02*
Y12120D01*
X19250D02*
X16750D01*
Y10880D02*
X19250D01*
X16750Y11500D02*
X16380D01*
X19250D02*
X19620D01*
X11750Y12120D02*
Y10880D01*
X14250Y12120D02*
Y10880D01*
X11750D02*
X14250D01*
Y12120D02*
X11750D01*
X14250Y11500D02*
X14620D01*
X11750D02*
X11380D01*
X31250Y10880D02*
Y12120D01*
X28750Y10880D02*
Y12120D01*
X31250D02*
X28750D01*
Y10880D02*
X31250D01*
X28750Y11500D02*
X28380D01*
X31250D02*
X31620D01*
X23750Y12120D02*
Y10880D01*
X26250Y12120D02*
Y10880D01*
X23750D02*
X26250D01*
Y12120D02*
X23750D01*
X26250Y11500D02*
X26620D01*
X23750D02*
X23380D01*
X19250Y6880D02*
Y8120D01*
X16750Y6880D02*
Y8120D01*
X19250D02*
X16750D01*
Y6880D02*
X19250D01*
X16750Y7500D02*
X16380D01*
X19250D02*
X19620D01*
X11750Y8120D02*
Y6880D01*
X14250Y8120D02*
Y6880D01*
X11750D02*
X14250D01*
Y8120D02*
X11750D01*
X14250Y7500D02*
X14620D01*
X11750D02*
X11380D01*
X31250Y6880D02*
Y8120D01*
X28750Y6880D02*
Y8120D01*
X31250D02*
X28750D01*
Y6880D02*
X31250D01*
X28750Y7500D02*
X28380D01*
X31250D02*
X31620D01*
X23750Y8120D02*
Y6880D01*
X26250Y8120D02*
Y6880D01*
X23750D02*
X26250D01*
Y8120D02*
X23750D01*
X26250Y7500D02*
X26620D01*
X23750D02*
X23380D01*
X19250Y2880D02*
Y4120D01*
X16750Y2880D02*
Y4120D01*
X19250D02*
X16750D01*
Y2880D02*
X19250D01*
X16750Y3500D02*
X16380D01*
X19250D02*
X19620D01*
X11750Y4120D02*
Y2880D01*
X14250Y4120D02*
Y2880D01*
X11750D02*
X14250D01*
Y4120D02*
X11750D01*
X14250Y3500D02*
X14620D01*
X11750D02*
X11380D01*
X31250Y2880D02*
Y4120D01*
X28750Y2880D02*
Y4120D01*
X31250D02*
X28750D01*
Y2880D02*
X31250D01*
X28750Y3500D02*
X28380D01*
X31250D02*
X31620D01*
X23750Y4120D02*
Y2880D01*
X26250Y4120D02*
Y2880D01*
X23750D02*
X26250D01*
Y4120D02*
X23750D01*
X26250Y3500D02*
X26620D01*
X23750D02*
X23380D01*
%LPC*%
D17*
X41300Y6540D03*
X42100Y4570D03*
X38700Y4560D03*
X40900Y8530D03*
X40500Y10510D03*
X40100Y12520D03*
X38670Y6540D03*
Y8540D03*
X39700Y14550D03*
X38670Y10520D03*
Y12520D03*
Y14550D03*
X41110Y22510D03*
X38670Y16550D03*
X40100D03*
X41510Y24510D03*
X38670Y18550D03*
Y20550D03*
X40700D03*
X38680Y22510D03*
Y24510D03*
X40310Y18550D03*
X44400Y16450D03*
Y18800D03*
X43900Y15470D03*
X46410Y18600D03*
X50000Y15500D03*
Y15000D03*
X44750Y16060D03*
X46500Y18000D03*
X49400D03*
X44500Y15000D03*
X53380Y12050D03*
X44400Y14400D03*
X43980Y7000D03*
X47400Y10800D03*
X51820Y7000D03*
Y6000D03*
Y7900D03*
Y9000D03*
Y10400D03*
X52700Y15400D03*
X50900Y16060D03*
D18*
X43990Y3980D03*
D19*
X37000Y23920D03*
Y19940D03*
X20000Y25500D03*
X15000Y27000D03*
X20000Y24500D03*
X47000Y9000D03*
X27000Y24500D03*
X15000Y22500D03*
X27000Y20500D03*
X15000Y18500D03*
Y14500D03*
X27000Y16500D03*
X15000Y10500D03*
X27000Y12500D03*
Y8500D03*
X15000Y6500D03*
X37000Y15940D03*
Y11940D03*
Y7960D03*
Y3960D03*
X27000Y4500D03*
X32500Y20500D03*
Y24500D03*
X5000Y26000D03*
X9000D03*
X5000Y24000D03*
X9000D03*
X5000Y22000D03*
X9000D03*
X5000Y20000D03*
X9000D03*
X5000Y18000D03*
X9000D03*
X5000Y16000D03*
X9000D03*
X5000Y14000D03*
X9000D03*
X5000Y12000D03*
X9000D03*
X5000Y10000D03*
X9000D03*
X5000Y8000D03*
X9000D03*
X5000Y6000D03*
X9000D03*
X5000Y4000D03*
X9000D03*
X32500Y16500D03*
Y12500D03*
Y8500D03*
Y4500D03*
X47000Y8000D03*
Y7000D03*
Y6000D03*
Y5000D03*
X25500Y9250D03*
X47000Y4000D03*
Y3000D03*
X50000D03*
Y4000D03*
Y5000D03*
Y6000D03*
Y7000D03*
Y8000D03*
Y9000D03*
Y10000D03*
X17000Y8500D03*
Y2500D03*
Y20250D03*
X25500Y21250D03*
X47000Y13400D03*
Y12400D03*
Y11400D03*
X50000D03*
Y12400D03*
Y13400D03*
Y14400D03*
X25500Y2500D03*
X29000Y1700D03*
X18000D03*
Y21000D03*
Y9000D03*
X29000Y9260D03*
Y21260D03*
X48700Y13090D03*
D20*
X51750Y24500D03*
Y25500D03*
X52500Y23520D03*
X53500D03*
X50750Y24500D03*
Y25500D03*
X21000Y17500D03*
Y25500D03*
X32000Y2500D03*
X10000Y25500D03*
X49750Y24500D03*
X21000Y21500D03*
X10000D03*
X16000Y19500D03*
X20000D03*
X15000D03*
X11000D03*
X10000Y17500D03*
X33000Y21500D03*
X22000D03*
X28000Y19500D03*
X32000D03*
X27000D03*
X23000D03*
X49750Y25500D03*
X16000Y23500D03*
X20000D03*
X33000Y25500D03*
X22000D03*
X15000Y23500D03*
X11000D03*
X33000Y17500D03*
X22000D03*
X21000Y13500D03*
X10000D03*
X33000D03*
X22000D03*
X21000Y9500D03*
X16000Y15500D03*
X20000D03*
X15000D03*
X11000D03*
X10000Y9500D03*
X33000D03*
X22000D03*
X28000Y15500D03*
X32000D03*
X21000Y5500D03*
X10000D03*
X27000Y15500D03*
X23000D03*
X33000Y5500D03*
X22000D03*
X28000Y23500D03*
X32000D03*
X27000D03*
X23000D03*
X16000Y11500D03*
X20000D03*
X15000D03*
X11000D03*
X28000D03*
X32000D03*
X27000D03*
X23000D03*
X16000Y7500D03*
X20000D03*
X15000D03*
X11000D03*
X28000D03*
X32000D03*
X27000D03*
X23000D03*
X48750Y24500D03*
Y25500D03*
X16000Y3500D03*
X20000D03*
X15000D03*
X11000D03*
X53400Y7000D03*
Y8000D03*
X28000Y3500D03*
X32000D03*
X27000D03*
X23000D03*
D21*
X55500Y8000D03*
Y7000D03*
Y9000D03*
X4000Y11000D03*
X55500Y22000D03*
Y19000D03*
Y15000D03*
Y14000D03*
Y16000D03*
Y12000D03*
Y13000D03*
X4000Y12000D03*
Y10000D03*
Y14000D03*
Y13000D03*
Y15000D03*
Y17000D03*
Y16000D03*
Y18000D03*
Y19000D03*
Y21000D03*
Y20000D03*
D22*
X2000Y28000D03*
X57500D03*
Y2000D03*
X2000D03*
D24*
X47000Y10000D03*
Y14400D03*
D25*
X51750Y26500D03*
X50750D03*
X49750D03*
X48750D03*
X53400Y9000D03*
D26*
X55500Y10000D03*
X4000Y9000D03*
X55500Y23000D03*
Y17000D03*
Y20000D03*
D27*
X0Y30000D03*
D28*
X37600Y2580D03*
X38150D03*
X37600Y4580D03*
X38150D03*
X37600Y5480D03*
X38150D03*
X39270Y4930D03*
Y5480D03*
X37600Y3480D03*
X38150D03*
X39270Y2920D03*
Y3470D03*
X43950Y23400D03*
Y23950D03*
X42750Y19800D03*
X45210Y4770D03*
X44660Y3980D03*
X45210D03*
X44660Y4770D03*
X43400Y22500D03*
X43950D03*
X42750Y20350D03*
X37570Y6560D03*
X38120D03*
X37570Y8560D03*
X38120D03*
X37570Y9460D03*
X38120D03*
X39270Y8910D03*
Y9460D03*
X37570Y7460D03*
X38120D03*
X39270Y6900D03*
Y7450D03*
X37570Y10540D03*
X38120D03*
X37570Y12540D03*
X38120D03*
X37570Y13440D03*
X38120D03*
X39270Y12890D03*
Y13440D03*
X37570Y11440D03*
X38120D03*
X39270Y10880D03*
Y11430D03*
X37570Y14570D03*
X38120D03*
X37570Y16570D03*
X38120D03*
X37570Y17470D03*
X38120D03*
X39270Y16920D03*
Y17470D03*
X37570Y15470D03*
X38120D03*
X39270Y14920D03*
Y15470D03*
X37570Y18550D03*
X38120D03*
X37570Y20550D03*
X38120D03*
X37570Y21450D03*
X38120D03*
X39270Y20900D03*
Y21450D03*
X37570Y19450D03*
X38120D03*
X39270Y18890D03*
Y19440D03*
X42750Y18900D03*
X43300D03*
X37580Y22530D03*
X38130D03*
X37580Y24530D03*
X38130D03*
X37580Y25430D03*
X38130D03*
X39280Y24880D03*
Y25430D03*
X37580Y23430D03*
X38130D03*
X39280Y22870D03*
Y23420D03*
X16000Y9000D03*
X16550D03*
X26750Y21250D03*
X27300D03*
X26750Y9250D03*
X27300D03*
X16000Y21000D03*
X16550D03*
X53040Y18000D03*
X52490D03*
X48400Y18980D03*
Y18430D03*
X53380Y13400D03*
X51430Y9000D03*
X51500Y12500D03*
X52050D03*
X53380Y12850D03*
X54000Y16700D03*
X50880Y9000D03*
X51430Y8000D03*
X50880D03*
X51430Y10000D03*
X51500Y11500D03*
X52050D03*
X50880Y10000D03*
X51430Y7000D03*
X50880D03*
X51430Y6000D03*
X50880D03*
X49400Y18980D03*
X51660Y15400D03*
X52210D03*
X51660Y14500D03*
X52210D03*
X51660Y16300D03*
X52210D03*
X49400Y18430D03*
X54000Y17250D03*
D29*
X45500Y19400D03*
X46410D03*
X44590D03*
D30*
X51740Y21900D03*
Y19900D03*
X54390Y21900D03*
Y19900D03*
D31*
X48780Y21390D03*
Y20390D03*
X50250Y21390D03*
Y20390D03*
D32*
X36470Y10540D03*
Y11290D03*
X35680Y10920D03*
X36500Y2580D03*
Y4590D03*
Y5340D03*
Y3330D03*
X36460Y8560D03*
Y9310D03*
X35670Y8940D03*
X36470Y6570D03*
Y7320D03*
X35710Y4970D03*
X35680Y6950D03*
X36460Y14570D03*
X35710Y2960D03*
X36460Y15320D03*
X35670Y14950D03*
X36460Y12550D03*
Y13300D03*
X35670Y12930D03*
X36460Y16580D03*
Y17330D03*
Y18560D03*
X35670Y16960D03*
X36460Y19310D03*
X36470Y20550D03*
X35670Y18940D03*
X36470Y21300D03*
X35680Y20930D03*
X36470Y22530D03*
Y23280D03*
X35680Y22910D03*
X36500Y24540D03*
Y25290D03*
X35710Y24920D03*
D33*
X42750Y14690D03*
Y14890D03*
Y15080D03*
Y15280D03*
Y15480D03*
Y15670D03*
Y15870D03*
Y16070D03*
Y16260D03*
Y16460D03*
Y16660D03*
Y16850D03*
Y17050D03*
Y17250D03*
Y17440D03*
Y17640D03*
Y13510D03*
Y13710D03*
Y13900D03*
Y14100D03*
Y14300D03*
Y14490D03*
X45400Y13900D03*
Y14100D03*
Y14290D03*
Y14490D03*
Y14690D03*
Y14880D03*
Y15080D03*
Y15280D03*
Y15470D03*
Y15670D03*
Y15870D03*
Y16060D03*
Y16260D03*
Y16460D03*
Y16650D03*
Y16850D03*
X42750Y13310D03*
Y13120D03*
X45400D03*
Y13310D03*
Y13510D03*
Y13700D03*
Y17050D03*
Y17250D03*
Y17440D03*
Y17640D03*
D34*
X45500Y21880D03*
%LPD*%
D23*
X0Y30000D02*
X59500D01*
Y0D01*
X0D01*
Y30000D01*
M02*
